<svg width="728" height="503" viewBox="0 0 728 503" fill="none" xmlns="http://www.w3.org/2000/svg">
<g filter="url(#filter0_d_93_548)">
<rect x="4" width="720" height="495" rx="8" fill="white"/>
<g clip-path="url(#clip0_93_548)">
<g clip-path="url(#clip1_93_548)">
<g filter="url(#filter1_i_93_548)">
<rect x="4" y="42" width="720" height="38" fill="#35363A"/>
</g>
<g clip-path="url(#clip2_93_548)">
<g clip-path="url(#clip3_93_548)">
<rect x="579" y="53" width="16" height="16" rx="7.5" fill="#F6225D"/>
<g clip-path="url(#clip4_93_548)">
<path d="M586.267 57.4224C587.457 56.2326 589.387 56.2326 590.576 57.4224C591.766 58.6123 591.766 60.5415 590.576 61.7314C589.696 62.6114 588.413 62.8399 587.323 62.4195L587.197 62.3681L587.188 62.3658H586.902V63.1057C586.902 63.4091 586.671 63.6586 586.376 63.6886L586.316 63.6917H585.576V64.4316C585.576 64.7349 585.346 64.9845 585.05 65.0145L584.99 65.0175H583.123C582.879 65.0175 582.678 64.8329 582.653 64.5957L582.65 64.5441V63.32C582.65 63.1568 582.707 62.9995 582.809 62.8744L582.856 62.8228L585.434 60.2444L585.439 60.2269C585.44 60.2172 585.44 60.2042 585.437 60.189C585.239 59.2215 585.516 58.1743 586.267 57.4224ZM588.256 58.7483C587.982 59.0229 587.982 59.4681 588.256 59.7427C588.531 60.0172 588.976 60.0172 589.251 59.7427C589.525 59.4681 589.525 59.0229 589.251 58.7483C588.976 58.4737 588.531 58.4737 588.256 58.7483Z" fill="white"/>
</g>
</g>
<path fill-rule="evenodd" clip-rule="evenodd" d="M613.866 55.2341C613.949 54.825 614.147 54.4577 614.424 54.1676C614.817 53.7562 615.371 53.5 615.984 53.5C616.549 53.5 617.063 53.7772 617.448 54.1676C617.755 54.4788 617.98 54.862 618.083 55.2341H621.728C622.28 55.2341 622.728 55.6818 622.728 56.2341V59.6044C623.155 59.6823 623.539 59.8862 623.839 60.1763C624.246 60.5706 624.5 61.1241 624.5 61.737C624.5 62.3012 624.226 62.8151 623.839 63.2007C623.516 63.5226 623.114 63.7552 622.728 63.8532V67.5C622.728 68.0523 622.28 68.5 621.728 68.5H610.5C609.948 68.5 609.5 68.0523 609.5 67.5V64.9046V63.9046V61.737L609.5 62.9046V63.9046C609.818 63.9046 610.172 63.7904 610.5 63.592L610.5 63.592C611.128 63.2121 611.661 62.5235 611.661 61.737C611.661 60.9017 611.19 60.1768 610.5 59.8148L610.5 59.8148C610.201 59.658 609.861 59.5694 609.5 59.5694L609.5 58.5694V56.2341C609.5 55.6818 609.948 55.2341 610.5 55.2341H613.866ZM611.607 64.0042C611.293 64.2939 610.912 64.5425 610.5 64.7046V67.5H621.728V56.2341L610.5 56.2341V58.731C611.757 59.1506 612.661 60.3395 612.661 61.737C612.661 62.687 612.176 63.4782 611.607 64.0042Z" fill="#D9D9D9"/>
<line x1="637.25" y1="69.5" x2="637.25" y2="53.5" stroke="#5F6368" stroke-width="1.5"/>
<circle cx="659" cy="61.5" r="11" fill="#5A28B9"/>
<path d="M658.754 57.0767L655.694 65.5H654.444L657.967 56.2578H658.773L658.754 57.0767ZM661.318 65.5L658.252 57.0767L658.233 56.2578H659.04L662.575 65.5H661.318ZM661.16 62.0786V63.0815H655.967V62.0786H661.16Z" fill="white"/>
<path fill-rule="evenodd" clip-rule="evenodd" d="M688.167 58.5C688.992 58.5 689.667 57.825 689.667 57C689.667 56.175 688.992 55.5 688.167 55.5C687.342 55.5 686.667 56.175 686.667 57C686.667 57.825 687.342 58.5 688.167 58.5ZM688.167 60C687.342 60 686.667 60.675 686.667 61.5C686.667 62.325 687.342 63 688.167 63C688.992 63 689.667 62.325 689.667 61.5C689.667 60.675 688.992 60 688.167 60ZM688.167 64.5C687.342 64.5 686.667 65.175 686.667 66C686.667 66.825 687.342 67.5 688.167 67.5C688.992 67.5 689.667 66.825 689.667 66C689.667 65.175 688.992 64.5 688.167 64.5Z" fill="#BDC1C6"/>
</g>
<g clip-path="url(#clip5_93_548)">
<rect x="138" y="47.5" width="427" height="28" rx="14" fill="#202124"/>
<path fill-rule="evenodd" clip-rule="evenodd" d="M552.362 59.3401L548.969 59.0456L547.644 55.9259C547.406 55.358 546.592 55.358 546.354 55.9259L545.029 59.0526L541.643 59.3401C541.026 59.3892 540.774 60.1603 541.243 60.5669L543.816 62.7963L543.045 66.1053C542.905 66.7083 543.557 67.185 544.09 66.8625L546.999 65.1098L549.908 66.8695C550.441 67.192 551.093 66.7153 550.953 66.1124L550.182 62.7963L552.755 60.5669C553.224 60.1603 552.979 59.3892 552.362 59.3401V59.3401ZM546.999 63.7988L544.363 65.3903L545.064 62.3897L542.737 60.3706L545.807 60.1042L546.999 57.2789L548.198 60.1112L551.268 60.3777L548.941 62.3967L549.642 65.3973L546.999 63.7988Z" fill="#BDC1C6"/>
<path d="M177.46 63.9844C177.46 63.752 177.424 63.5469 177.351 63.3691C177.282 63.1868 177.159 63.0228 176.981 62.877C176.808 62.7311 176.567 62.5921 176.257 62.46C175.951 62.3278 175.564 62.1934 175.095 62.0566C174.603 61.9108 174.158 61.749 173.762 61.5713C173.365 61.389 173.026 61.1816 172.743 60.9492C172.461 60.7168 172.244 60.4502 172.094 60.1494C171.943 59.8486 171.868 59.5046 171.868 59.1172C171.868 58.7298 171.948 58.3721 172.107 58.0439C172.267 57.7158 172.495 57.431 172.791 57.1895C173.092 56.9434 173.45 56.752 173.864 56.6152C174.279 56.4785 174.742 56.4102 175.252 56.4102C175.999 56.4102 176.633 56.5537 177.152 56.8408C177.676 57.1234 178.075 57.4948 178.349 57.9551C178.622 58.4108 178.759 58.8984 178.759 59.418H177.446C177.446 59.0443 177.367 58.7139 177.207 58.4268C177.048 58.1351 176.806 57.9072 176.482 57.7432C176.159 57.5745 175.749 57.4902 175.252 57.4902C174.783 57.4902 174.395 57.5609 174.09 57.7021C173.785 57.8434 173.557 58.0348 173.406 58.2764C173.26 58.5179 173.188 58.7936 173.188 59.1035C173.188 59.3132 173.231 59.5046 173.317 59.6777C173.409 59.8464 173.548 60.0036 173.734 60.1494C173.926 60.2952 174.167 60.4297 174.459 60.5527C174.755 60.6758 175.108 60.7943 175.519 60.9082C176.084 61.0677 176.571 61.2454 176.981 61.4414C177.392 61.6374 177.729 61.8584 177.993 62.1045C178.262 62.346 178.46 62.6217 178.588 62.9316C178.72 63.237 178.786 63.5833 178.786 63.9707C178.786 64.3763 178.704 64.7432 178.54 65.0713C178.376 65.3994 178.141 65.6797 177.836 65.9121C177.531 66.1445 177.164 66.3245 176.735 66.4521C176.312 66.5752 175.838 66.6367 175.313 66.6367C174.853 66.6367 174.4 66.5729 173.953 66.4453C173.511 66.3177 173.108 66.1263 172.743 65.8711C172.383 65.6159 172.094 65.3014 171.875 64.9277C171.661 64.5495 171.554 64.112 171.554 63.6152H172.866C172.866 63.957 172.932 64.251 173.064 64.4971C173.197 64.7386 173.377 64.9391 173.604 65.0986C173.837 65.2581 174.099 65.3766 174.391 65.4541C174.687 65.527 174.994 65.5635 175.313 65.5635C175.774 65.5635 176.163 65.4997 176.482 65.3721C176.801 65.2445 177.043 65.0622 177.207 64.8252C177.376 64.5882 177.46 64.3079 177.46 63.9844ZM183.596 66.6367C183.081 66.6367 182.614 66.5501 182.194 66.377C181.78 66.1992 181.422 65.9508 181.121 65.6318C180.825 65.3128 180.597 64.9346 180.438 64.4971C180.278 64.0596 180.198 63.5811 180.198 63.0615V62.7744C180.198 62.1729 180.287 61.6374 180.465 61.168C180.643 60.694 180.884 60.293 181.189 59.9648C181.495 59.6367 181.841 59.3883 182.229 59.2197C182.616 59.0511 183.017 58.9668 183.432 58.9668C183.96 58.9668 184.416 59.0579 184.799 59.2402C185.186 59.4225 185.503 59.6777 185.749 60.0059C185.995 60.3294 186.177 60.7122 186.296 61.1543C186.414 61.5918 186.474 62.0703 186.474 62.5898V63.1572H180.95V62.125H185.209V62.0293C185.191 61.7012 185.122 61.3822 185.004 61.0723C184.89 60.7624 184.708 60.5072 184.457 60.3066C184.206 60.1061 183.865 60.0059 183.432 60.0059C183.145 60.0059 182.88 60.0674 182.639 60.1904C182.397 60.3089 182.19 60.4867 182.017 60.7236C181.843 60.9606 181.709 61.25 181.613 61.5918C181.518 61.9336 181.47 62.3278 181.47 62.7744V63.0615C181.47 63.4124 181.518 63.7428 181.613 64.0527C181.714 64.3581 181.857 64.627 182.044 64.8594C182.235 65.0918 182.465 65.2741 182.734 65.4062C183.008 65.5384 183.318 65.6045 183.664 65.6045C184.111 65.6045 184.489 65.5133 184.799 65.3311C185.109 65.1488 185.38 64.9049 185.612 64.5996L186.378 65.208C186.218 65.4495 186.016 65.6797 185.77 65.8984C185.523 66.1172 185.22 66.2949 184.86 66.4316C184.505 66.5684 184.083 66.6367 183.596 66.6367ZM192.562 65.2354V61.4277C192.562 61.1361 192.502 60.8831 192.384 60.6689C192.27 60.4502 192.097 60.2816 191.864 60.1631C191.632 60.0446 191.345 59.9854 191.003 59.9854C190.684 59.9854 190.404 60.04 190.162 60.1494C189.925 60.2588 189.738 60.4023 189.602 60.5801C189.469 60.7578 189.403 60.9492 189.403 61.1543H188.139C188.139 60.89 188.207 60.6279 188.344 60.3682C188.48 60.1084 188.676 59.8737 188.932 59.6641C189.191 59.4499 189.501 59.2812 189.861 59.1582C190.226 59.0306 190.632 58.9668 191.078 58.9668C191.616 58.9668 192.09 59.0579 192.5 59.2402C192.915 59.4225 193.238 59.6982 193.471 60.0674C193.708 60.432 193.826 60.89 193.826 61.4414V64.8867C193.826 65.1328 193.847 65.3949 193.888 65.6729C193.933 65.9508 193.999 66.1901 194.086 66.3906V66.5H192.767C192.703 66.3542 192.653 66.1605 192.616 65.9189C192.58 65.6729 192.562 65.445 192.562 65.2354ZM192.78 62.0156L192.794 62.9043H191.516C191.156 62.9043 190.834 62.9339 190.552 62.9932C190.269 63.0479 190.032 63.1322 189.841 63.2461C189.649 63.36 189.504 63.5036 189.403 63.6768C189.303 63.8454 189.253 64.0436 189.253 64.2715C189.253 64.5039 189.305 64.7158 189.41 64.9072C189.515 65.0986 189.672 65.2513 189.882 65.3652C190.096 65.4746 190.358 65.5293 190.668 65.5293C191.055 65.5293 191.397 65.4473 191.693 65.2832C191.99 65.1191 192.224 64.9186 192.397 64.6816C192.575 64.4447 192.671 64.2145 192.685 63.9912L193.225 64.5996C193.193 64.791 193.106 65.0029 192.965 65.2354C192.824 65.4678 192.634 65.6911 192.397 65.9053C192.165 66.1149 191.887 66.2904 191.563 66.4316C191.244 66.5684 190.884 66.6367 190.483 66.6367C189.982 66.6367 189.542 66.5387 189.164 66.3428C188.79 66.1468 188.499 65.8848 188.289 65.5566C188.084 65.224 187.981 64.8525 187.981 64.4424C187.981 64.0459 188.059 63.6973 188.214 63.3965C188.369 63.0911 188.592 62.8382 188.884 62.6377C189.175 62.4326 189.526 62.2777 189.937 62.1729C190.347 62.068 190.805 62.0156 191.311 62.0156H192.78ZM197.33 60.2656V66.5H196.065V59.1035H197.296L197.33 60.2656ZM199.641 59.0625L199.634 60.2383C199.529 60.2155 199.429 60.2018 199.333 60.1973C199.242 60.1882 199.137 60.1836 199.019 60.1836C198.727 60.1836 198.469 60.2292 198.246 60.3203C198.023 60.4115 197.834 60.5391 197.679 60.7031C197.524 60.8672 197.401 61.0632 197.31 61.291C197.223 61.5143 197.166 61.7604 197.139 62.0293L196.783 62.2344C196.783 61.7878 196.826 61.3685 196.913 60.9766C197.004 60.5846 197.143 60.2383 197.33 59.9375C197.517 59.6322 197.754 59.3952 198.041 59.2266C198.333 59.0534 198.679 58.9668 199.08 58.9668C199.171 58.9668 199.276 58.9782 199.395 59.001C199.513 59.0192 199.595 59.0397 199.641 59.0625ZM203.883 65.5977C204.184 65.5977 204.462 65.5361 204.717 65.4131C204.972 65.29 205.182 65.1214 205.346 64.9072C205.51 64.6885 205.603 64.4401 205.626 64.1621H206.829C206.806 64.5996 206.658 65.0075 206.385 65.3857C206.116 65.7594 205.763 66.0625 205.325 66.2949C204.888 66.5228 204.407 66.6367 203.883 66.6367C203.327 66.6367 202.841 66.5387 202.427 66.3428C202.017 66.1468 201.675 65.8779 201.401 65.5361C201.132 65.1943 200.93 64.8024 200.793 64.3604C200.661 63.9137 200.595 63.4421 200.595 62.9453V62.6582C200.595 62.1615 200.661 61.6921 200.793 61.25C200.93 60.8034 201.132 60.4092 201.401 60.0674C201.675 59.7256 202.017 59.4567 202.427 59.2607C202.841 59.0648 203.327 58.9668 203.883 58.9668C204.462 58.9668 204.967 59.0853 205.4 59.3223C205.833 59.5547 206.173 59.8737 206.419 60.2793C206.67 60.6803 206.806 61.1361 206.829 61.6465H205.626C205.603 61.3411 205.517 61.0654 205.366 60.8193C205.22 60.5732 205.02 60.3773 204.765 60.2314C204.514 60.0811 204.22 60.0059 203.883 60.0059C203.495 60.0059 203.17 60.0833 202.905 60.2383C202.646 60.3887 202.438 60.5938 202.283 60.8535C202.133 61.1087 202.023 61.3936 201.955 61.708C201.891 62.0179 201.859 62.3346 201.859 62.6582V62.9453C201.859 63.2689 201.891 63.5879 201.955 63.9023C202.019 64.2168 202.126 64.5016 202.276 64.7568C202.431 65.012 202.639 65.2171 202.898 65.3721C203.163 65.5225 203.491 65.5977 203.883 65.5977ZM209.766 56V66.5H208.501V56H209.766ZM209.465 62.5215L208.938 62.501C208.943 61.9951 209.018 61.528 209.164 61.0996C209.31 60.6667 209.515 60.2907 209.779 59.9717C210.044 59.6527 210.358 59.4066 210.723 59.2334C211.092 59.0557 211.5 58.9668 211.946 58.9668C212.311 58.9668 212.639 59.0169 212.931 59.1172C213.222 59.2129 213.471 59.3678 213.676 59.582C213.885 59.7962 214.045 60.0742 214.154 60.416C214.264 60.7533 214.318 61.1657 214.318 61.6533V66.5H213.047V61.6396C213.047 61.2523 212.99 60.9424 212.876 60.71C212.762 60.473 212.596 60.3021 212.377 60.1973C212.158 60.0879 211.889 60.0332 211.57 60.0332C211.256 60.0332 210.969 60.0993 210.709 60.2314C210.454 60.3636 210.233 60.5459 210.046 60.7783C209.864 61.0107 209.72 61.2773 209.615 61.5781C209.515 61.8743 209.465 62.1888 209.465 62.5215ZM227.731 61.5439V65.1875C227.608 65.3698 227.412 65.5749 227.144 65.8027C226.875 66.026 226.503 66.222 226.029 66.3906C225.56 66.5547 224.954 66.6367 224.211 66.6367C223.605 66.6367 223.047 66.5319 222.536 66.3223C222.03 66.1081 221.59 65.7982 221.217 65.3926C220.848 64.9824 220.561 64.4857 220.355 63.9023C220.155 63.3145 220.055 62.6491 220.055 61.9062V61.1338C220.055 60.391 220.141 59.7279 220.314 59.1445C220.492 58.5612 220.752 58.0667 221.094 57.6611C221.436 57.251 221.855 56.9411 222.352 56.7314C222.848 56.5173 223.418 56.4102 224.061 56.4102C224.822 56.4102 225.457 56.5423 225.968 56.8066C226.483 57.0664 226.884 57.4264 227.171 57.8867C227.463 58.347 227.649 58.8711 227.731 59.459H226.412C226.353 59.099 226.234 58.7708 226.057 58.4746C225.883 58.1784 225.635 57.9414 225.312 57.7637C224.988 57.5814 224.571 57.4902 224.061 57.4902C223.6 57.4902 223.201 57.5745 222.864 57.7432C222.527 57.9118 222.249 58.1533 222.03 58.4678C221.812 58.7822 221.647 59.1628 221.538 59.6094C221.433 60.056 221.381 60.5596 221.381 61.1201V61.9062C221.381 62.4805 221.447 62.9932 221.579 63.4443C221.716 63.8955 221.91 64.2806 222.16 64.5996C222.411 64.9141 222.709 65.1533 223.056 65.3174C223.407 65.4814 223.794 65.5635 224.218 65.5635C224.687 65.5635 225.068 65.5247 225.359 65.4473C225.651 65.3652 225.879 65.2695 226.043 65.1602C226.207 65.0462 226.332 64.9391 226.419 64.8389V62.6104H224.115V61.5439H227.731ZM229.643 62.8838V62.7266C229.643 62.1934 229.72 61.6989 229.875 61.2432C230.03 60.7829 230.253 60.3841 230.545 60.0469C230.837 59.7051 231.19 59.4408 231.604 59.2539C232.019 59.0625 232.484 58.9668 232.999 58.9668C233.519 58.9668 233.986 59.0625 234.4 59.2539C234.82 59.4408 235.175 59.7051 235.467 60.0469C235.763 60.3841 235.989 60.7829 236.144 61.2432C236.299 61.6989 236.376 62.1934 236.376 62.7266V62.8838C236.376 63.417 236.299 63.9115 236.144 64.3672C235.989 64.8229 235.763 65.2217 235.467 65.5635C235.175 65.9007 234.822 66.165 234.407 66.3564C233.997 66.5433 233.532 66.6367 233.013 66.6367C232.493 66.6367 232.026 66.5433 231.611 66.3564C231.197 66.165 230.841 65.9007 230.545 65.5635C230.253 65.2217 230.03 64.8229 229.875 64.3672C229.72 63.9115 229.643 63.417 229.643 62.8838ZM230.907 62.7266V62.8838C230.907 63.2529 230.951 63.6016 231.037 63.9297C231.124 64.2533 231.254 64.5404 231.427 64.791C231.604 65.0417 231.826 65.2399 232.09 65.3857C232.354 65.527 232.662 65.5977 233.013 65.5977C233.359 65.5977 233.662 65.527 233.922 65.3857C234.186 65.2399 234.405 65.0417 234.578 64.791C234.751 64.5404 234.881 64.2533 234.968 63.9297C235.059 63.6016 235.104 63.2529 235.104 62.8838V62.7266C235.104 62.362 235.059 62.0179 234.968 61.6943C234.881 61.3662 234.749 61.0768 234.571 60.8262C234.398 60.571 234.179 60.3704 233.915 60.2246C233.655 60.0788 233.35 60.0059 232.999 60.0059C232.653 60.0059 232.347 60.0788 232.083 60.2246C231.823 60.3704 231.604 60.571 231.427 60.8262C231.254 61.0768 231.124 61.3662 231.037 61.6943C230.951 62.0179 230.907 62.362 230.907 62.7266ZM237.877 62.8838V62.7266C237.877 62.1934 237.954 61.6989 238.109 61.2432C238.264 60.7829 238.488 60.3841 238.779 60.0469C239.071 59.7051 239.424 59.4408 239.839 59.2539C240.254 59.0625 240.718 58.9668 241.233 58.9668C241.753 58.9668 242.22 59.0625 242.635 59.2539C243.054 59.4408 243.41 59.7051 243.701 60.0469C243.997 60.3841 244.223 60.7829 244.378 61.2432C244.533 61.6989 244.61 62.1934 244.61 62.7266V62.8838C244.61 63.417 244.533 63.9115 244.378 64.3672C244.223 64.8229 243.997 65.2217 243.701 65.5635C243.41 65.9007 243.056 66.165 242.642 66.3564C242.231 66.5433 241.767 66.6367 241.247 66.6367C240.728 66.6367 240.26 66.5433 239.846 66.3564C239.431 66.165 239.076 65.9007 238.779 65.5635C238.488 65.2217 238.264 64.8229 238.109 64.3672C237.954 63.9115 237.877 63.417 237.877 62.8838ZM239.142 62.7266V62.8838C239.142 63.2529 239.185 63.6016 239.271 63.9297C239.358 64.2533 239.488 64.5404 239.661 64.791C239.839 65.0417 240.06 65.2399 240.324 65.3857C240.589 65.527 240.896 65.5977 241.247 65.5977C241.593 65.5977 241.896 65.527 242.156 65.3857C242.421 65.2399 242.639 65.0417 242.812 64.791C242.986 64.5404 243.116 64.2533 243.202 63.9297C243.293 63.6016 243.339 63.2529 243.339 62.8838V62.7266C243.339 62.362 243.293 62.0179 243.202 61.6943C243.116 61.3662 242.983 61.0768 242.806 60.8262C242.632 60.571 242.414 60.3704 242.149 60.2246C241.89 60.0788 241.584 60.0059 241.233 60.0059C240.887 60.0059 240.582 60.0788 240.317 60.2246C240.058 60.3704 239.839 60.571 239.661 60.8262C239.488 61.0768 239.358 61.3662 239.271 61.6943C239.185 62.0179 239.142 62.362 239.142 62.7266ZM251.238 59.1035H252.387V66.3428C252.387 66.9945 252.255 67.5505 251.99 68.0107C251.726 68.471 251.357 68.8197 250.883 69.0566C250.413 69.2982 249.871 69.4189 249.256 69.4189C249.001 69.4189 248.7 69.3779 248.354 69.2959C248.012 69.2184 247.674 69.084 247.342 68.8926C247.014 68.7057 246.738 68.4528 246.515 68.1338L247.178 67.3818C247.488 67.7555 247.811 68.0153 248.148 68.1611C248.49 68.307 248.827 68.3799 249.16 68.3799C249.561 68.3799 249.908 68.3047 250.199 68.1543C250.491 68.0039 250.716 67.7806 250.876 67.4844C251.04 67.1927 251.122 66.8327 251.122 66.4043V60.7305L251.238 59.1035ZM246.146 62.8838V62.7402C246.146 62.1751 246.212 61.6624 246.344 61.2021C246.48 60.7373 246.674 60.3385 246.925 60.0059C247.18 59.6732 247.488 59.418 247.848 59.2402C248.208 59.0579 248.613 58.9668 249.064 58.9668C249.529 58.9668 249.935 59.0488 250.281 59.2129C250.632 59.3724 250.928 59.6071 251.17 59.917C251.416 60.2223 251.61 60.5915 251.751 61.0244C251.892 61.4574 251.99 61.9473 252.045 62.4941V63.123C251.995 63.6654 251.897 64.153 251.751 64.5859C251.61 65.0189 251.416 65.388 251.17 65.6934C250.928 65.9987 250.632 66.2334 250.281 66.3975C249.93 66.557 249.52 66.6367 249.051 66.6367C248.609 66.6367 248.208 66.5433 247.848 66.3564C247.492 66.1696 247.187 65.9076 246.932 65.5703C246.676 65.2331 246.48 64.8366 246.344 64.3809C246.212 63.9206 246.146 63.4215 246.146 62.8838ZM247.41 62.7402V62.8838C247.41 63.2529 247.447 63.5993 247.52 63.9229C247.597 64.2464 247.713 64.5312 247.868 64.7773C248.028 65.0234 248.23 65.2171 248.477 65.3584C248.723 65.4951 249.017 65.5635 249.358 65.5635C249.778 65.5635 250.124 65.4746 250.397 65.2969C250.671 65.1191 250.887 64.8844 251.047 64.5928C251.211 64.3011 251.339 63.9844 251.43 63.6426V61.9951C251.38 61.7445 251.302 61.5029 251.197 61.2705C251.097 61.0335 250.965 60.8239 250.801 60.6416C250.641 60.4548 250.443 60.3066 250.206 60.1973C249.969 60.0879 249.691 60.0332 249.372 60.0332C249.026 60.0332 248.727 60.1061 248.477 60.252C248.23 60.3932 248.028 60.5892 247.868 60.8398C247.713 61.0859 247.597 61.373 247.52 61.7012C247.447 62.0247 247.41 62.3711 247.41 62.7402ZM255.932 56V66.5H254.66V56H255.932ZM261.281 66.6367C260.766 66.6367 260.299 66.5501 259.88 66.377C259.465 66.1992 259.107 65.9508 258.807 65.6318C258.51 65.3128 258.283 64.9346 258.123 64.4971C257.964 64.0596 257.884 63.5811 257.884 63.0615V62.7744C257.884 62.1729 257.973 61.6374 258.15 61.168C258.328 60.694 258.57 60.293 258.875 59.9648C259.18 59.6367 259.527 59.3883 259.914 59.2197C260.301 59.0511 260.702 58.9668 261.117 58.9668C261.646 58.9668 262.102 59.0579 262.484 59.2402C262.872 59.4225 263.188 59.6777 263.435 60.0059C263.681 60.3294 263.863 60.7122 263.981 61.1543C264.1 61.5918 264.159 62.0703 264.159 62.5898V63.1572H258.636V62.125H262.895V62.0293C262.876 61.7012 262.808 61.3822 262.689 61.0723C262.576 60.7624 262.393 60.5072 262.143 60.3066C261.892 60.1061 261.55 60.0059 261.117 60.0059C260.83 60.0059 260.566 60.0674 260.324 60.1904C260.083 60.3089 259.875 60.4867 259.702 60.7236C259.529 60.9606 259.395 61.25 259.299 61.5918C259.203 61.9336 259.155 62.3278 259.155 62.7744V63.0615C259.155 63.4124 259.203 63.7428 259.299 64.0527C259.399 64.3581 259.543 64.627 259.729 64.8594C259.921 65.0918 260.151 65.2741 260.42 65.4062C260.693 65.5384 261.003 65.6045 261.35 65.6045C261.796 65.6045 262.174 65.5133 262.484 65.3311C262.794 65.1488 263.065 64.9049 263.298 64.5996L264.063 65.208C263.904 65.4495 263.701 65.6797 263.455 65.8984C263.209 66.1172 262.906 66.2949 262.546 66.4316C262.19 66.5684 261.769 66.6367 261.281 66.6367ZM269.273 62.8838V62.7266C269.273 62.1934 269.351 61.6989 269.506 61.2432C269.661 60.7829 269.884 60.3841 270.176 60.0469C270.467 59.7051 270.821 59.4408 271.235 59.2539C271.65 59.0625 272.115 58.9668 272.63 58.9668C273.149 58.9668 273.617 59.0625 274.031 59.2539C274.451 59.4408 274.806 59.7051 275.098 60.0469C275.394 60.3841 275.619 60.7829 275.774 61.2432C275.929 61.6989 276.007 62.1934 276.007 62.7266V62.8838C276.007 63.417 275.929 63.9115 275.774 64.3672C275.619 64.8229 275.394 65.2217 275.098 65.5635C274.806 65.9007 274.453 66.165 274.038 66.3564C273.628 66.5433 273.163 66.6367 272.644 66.6367C272.124 66.6367 271.657 66.5433 271.242 66.3564C270.827 66.165 270.472 65.9007 270.176 65.5635C269.884 65.2217 269.661 64.8229 269.506 64.3672C269.351 63.9115 269.273 63.417 269.273 62.8838ZM270.538 62.7266V62.8838C270.538 63.2529 270.581 63.6016 270.668 63.9297C270.755 64.2533 270.884 64.5404 271.058 64.791C271.235 65.0417 271.456 65.2399 271.721 65.3857C271.985 65.527 272.293 65.5977 272.644 65.5977C272.99 65.5977 273.293 65.527 273.553 65.3857C273.817 65.2399 274.036 65.0417 274.209 64.791C274.382 64.5404 274.512 64.2533 274.599 63.9297C274.69 63.6016 274.735 63.2529 274.735 62.8838V62.7266C274.735 62.362 274.69 62.0179 274.599 61.6943C274.512 61.3662 274.38 61.0768 274.202 60.8262C274.029 60.571 273.81 60.3704 273.546 60.2246C273.286 60.0788 272.981 60.0059 272.63 60.0059C272.284 60.0059 271.978 60.0788 271.714 60.2246C271.454 60.3704 271.235 60.571 271.058 60.8262C270.884 61.0768 270.755 61.3662 270.668 61.6943C270.581 62.0179 270.538 62.362 270.538 62.7266ZM279.107 60.2656V66.5H277.843V59.1035H279.073L279.107 60.2656ZM281.418 59.0625L281.411 60.2383C281.306 60.2155 281.206 60.2018 281.11 60.1973C281.019 60.1882 280.914 60.1836 280.796 60.1836C280.504 60.1836 280.247 60.2292 280.023 60.3203C279.8 60.4115 279.611 60.5391 279.456 60.7031C279.301 60.8672 279.178 61.0632 279.087 61.291C279 61.5143 278.943 61.7604 278.916 62.0293L278.561 62.2344C278.561 61.7878 278.604 61.3685 278.69 60.9766C278.782 60.5846 278.921 60.2383 279.107 59.9375C279.294 59.6322 279.531 59.3952 279.818 59.2266C280.11 59.0534 280.456 58.9668 280.857 58.9668C280.949 58.9668 281.053 58.9782 281.172 59.001C281.29 59.0192 281.372 59.0397 281.418 59.0625ZM289.656 59.1035V60.0742H285.657V59.1035H289.656ZM287.011 57.3057H288.275V64.668C288.275 64.9186 288.314 65.1077 288.392 65.2354C288.469 65.363 288.569 65.4473 288.692 65.4883C288.815 65.5293 288.948 65.5498 289.089 65.5498C289.194 65.5498 289.303 65.5407 289.417 65.5225C289.535 65.4997 289.624 65.4814 289.684 65.4678L289.69 66.5C289.59 66.5319 289.458 66.5615 289.294 66.5889C289.134 66.6208 288.941 66.6367 288.713 66.6367C288.403 66.6367 288.118 66.5752 287.858 66.4521C287.599 66.3291 287.391 66.124 287.236 65.8369C287.086 65.5452 287.011 65.1533 287.011 64.6611V57.3057ZM293.468 65.7344L295.525 59.1035H296.879L293.912 67.6416C293.844 67.8239 293.753 68.0199 293.639 68.2295C293.529 68.4437 293.388 68.6465 293.215 68.8379C293.042 69.0293 292.832 69.1842 292.586 69.3027C292.344 69.4258 292.055 69.4873 291.718 69.4873C291.618 69.4873 291.49 69.4736 291.335 69.4463C291.18 69.4189 291.071 69.3962 291.007 69.3779L291 68.3525C291.036 68.3571 291.093 68.3617 291.171 68.3662C291.253 68.3753 291.31 68.3799 291.342 68.3799C291.629 68.3799 291.873 68.3411 292.073 68.2637C292.274 68.1908 292.442 68.0654 292.579 67.8877C292.72 67.7145 292.841 67.4753 292.941 67.1699L293.468 65.7344ZM291.957 59.1035L293.878 64.8457L294.206 66.1787L293.297 66.6436L290.576 59.1035H291.957ZM299.535 60.5254V69.3438H298.264V59.1035H299.426L299.535 60.5254ZM304.519 62.7402V62.8838C304.519 63.4215 304.455 63.9206 304.327 64.3809C304.2 64.8366 304.013 65.2331 303.767 65.5703C303.525 65.9076 303.227 66.1696 302.871 66.3564C302.516 66.5433 302.108 66.6367 301.647 66.6367C301.178 66.6367 300.763 66.5592 300.403 66.4043C300.043 66.2493 299.738 66.0238 299.487 65.7275C299.237 65.4313 299.036 65.0758 298.886 64.6611C298.74 64.2464 298.64 63.7793 298.585 63.2598V62.4941C298.64 61.9473 298.742 61.4574 298.893 61.0244C299.043 60.5915 299.241 60.2223 299.487 59.917C299.738 59.6071 300.041 59.3724 300.396 59.2129C300.752 59.0488 301.162 58.9668 301.627 58.9668C302.092 58.9668 302.504 59.0579 302.864 59.2402C303.224 59.418 303.527 59.6732 303.773 60.0059C304.02 60.3385 304.204 60.7373 304.327 61.2021C304.455 61.6624 304.519 62.1751 304.519 62.7402ZM303.247 62.8838V62.7402C303.247 62.3711 303.208 62.0247 303.131 61.7012C303.053 61.373 302.933 61.0859 302.769 60.8398C302.609 60.5892 302.404 60.3932 302.153 60.252C301.903 60.1061 301.604 60.0332 301.258 60.0332C300.939 60.0332 300.661 60.0879 300.424 60.1973C300.191 60.3066 299.993 60.4548 299.829 60.6416C299.665 60.8239 299.531 61.0335 299.426 61.2705C299.326 61.5029 299.25 61.7445 299.2 61.9951V63.7656C299.291 64.0846 299.419 64.3854 299.583 64.668C299.747 64.946 299.966 65.1715 300.239 65.3447C300.513 65.5133 300.857 65.5977 301.271 65.5977C301.613 65.5977 301.907 65.527 302.153 65.3857C302.404 65.2399 302.609 65.0417 302.769 64.791C302.933 64.5404 303.053 64.2533 303.131 63.9297C303.208 63.6016 303.247 63.2529 303.247 62.8838ZM309.451 66.6367C308.936 66.6367 308.469 66.5501 308.05 66.377C307.635 66.1992 307.277 65.9508 306.977 65.6318C306.68 65.3128 306.452 64.9346 306.293 64.4971C306.133 64.0596 306.054 63.5811 306.054 63.0615V62.7744C306.054 62.1729 306.143 61.6374 306.32 61.168C306.498 60.694 306.74 60.293 307.045 59.9648C307.35 59.6367 307.697 59.3883 308.084 59.2197C308.471 59.0511 308.872 58.9668 309.287 58.9668C309.816 58.9668 310.271 59.0579 310.654 59.2402C311.042 59.4225 311.358 59.6777 311.604 60.0059C311.851 60.3294 312.033 60.7122 312.151 61.1543C312.27 61.5918 312.329 62.0703 312.329 62.5898V63.1572H306.806V62.125H311.064V62.0293C311.046 61.7012 310.978 61.3822 310.859 61.0723C310.745 60.7624 310.563 60.5072 310.312 60.3066C310.062 60.1061 309.72 60.0059 309.287 60.0059C309 60.0059 308.736 60.0674 308.494 60.1904C308.253 60.3089 308.045 60.4867 307.872 60.7236C307.699 60.9606 307.564 61.25 307.469 61.5918C307.373 61.9336 307.325 62.3278 307.325 62.7744V63.0615C307.325 63.4124 307.373 63.7428 307.469 64.0527C307.569 64.3581 307.713 64.627 307.899 64.8594C308.091 65.0918 308.321 65.2741 308.59 65.4062C308.863 65.5384 309.173 65.6045 309.52 65.6045C309.966 65.6045 310.344 65.5133 310.654 65.3311C310.964 65.1488 311.235 64.9049 311.468 64.5996L312.233 65.208C312.074 65.4495 311.871 65.6797 311.625 65.8984C311.379 66.1172 311.076 66.2949 310.716 66.4316C310.36 66.5684 309.939 66.6367 309.451 66.6367ZM323.664 56.5469H324.977V63.2803C324.977 64.0277 324.81 64.6497 324.478 65.1465C324.145 65.6432 323.703 66.0169 323.151 66.2676C322.604 66.5137 322.01 66.6367 321.367 66.6367C320.693 66.6367 320.082 66.5137 319.535 66.2676C318.993 66.0169 318.562 65.6432 318.243 65.1465C317.929 64.6497 317.771 64.0277 317.771 63.2803V56.5469H319.077V63.2803C319.077 63.7998 319.173 64.2282 319.364 64.5654C319.556 64.9027 319.822 65.1533 320.164 65.3174C320.51 65.4814 320.911 65.5635 321.367 65.5635C321.827 65.5635 322.229 65.4814 322.57 65.3174C322.917 65.1533 323.186 64.9027 323.377 64.5654C323.568 64.2282 323.664 63.7998 323.664 63.2803V56.5469ZM327.298 56.5469H330.593C331.34 56.5469 331.971 56.6608 332.486 56.8887C333.006 57.1165 333.4 57.4538 333.669 57.9004C333.942 58.3424 334.079 58.887 334.079 59.5342C334.079 59.9899 333.986 60.4069 333.799 60.7852C333.617 61.1589 333.352 61.4779 333.006 61.7422C332.664 62.002 332.254 62.1956 331.775 62.3232L331.406 62.4668H328.31L328.296 61.3936H330.634C331.108 61.3936 331.502 61.3115 331.816 61.1475C332.131 60.9788 332.368 60.7533 332.527 60.4707C332.687 60.1882 332.767 59.876 332.767 59.5342C332.767 59.1514 332.691 58.8164 332.541 58.5293C332.391 58.2422 332.154 58.0212 331.83 57.8662C331.511 57.7067 331.099 57.627 330.593 57.627H328.617V66.5H327.298V56.5469ZM333.115 66.5L330.695 61.9883L332.069 61.9814L334.523 66.418V66.5H333.115ZM342.211 65.4268V66.5H337.234V65.4268H342.211ZM337.494 56.5469V66.5H336.175V56.5469H337.494Z" fill="#EAEAEA"/>
<path d="M155.978 65.8128C157.332 64.5548 157.934 62.458 157.573 60.4512H152.186V62.6677H155.256C155.135 63.3866 154.714 63.9856 154.112 64.375L155.978 65.8128Z" fill="#EAEAEA"/>
<path d="M147.07 64.0456C147.119 64.1422 147.171 64.2374 147.226 64.3311C147.281 64.4248 147.338 64.5169 147.398 64.6074C147.458 64.6979 147.52 64.7866 147.585 64.8736C147.65 64.9606 147.717 65.0456 147.787 65.1288C147.857 65.212 147.929 65.2932 148.004 65.3723C148.078 65.4514 148.155 65.5284 148.233 65.6032C148.312 65.678 148.393 65.7505 148.476 65.8208C148.559 65.8911 148.644 65.959 148.73 66.0245C148.817 66.09 148.906 66.153 148.996 66.2135C149.086 66.274 149.178 66.3319 149.272 66.3872C149.365 66.4425 149.461 66.4952 149.557 66.5452C149.654 66.5952 149.752 66.6424 149.851 66.6869C149.95 66.7313 150.051 66.773 150.153 66.8118C150.254 66.8506 150.357 66.8865 150.461 66.9196C150.564 66.9526 150.669 66.9828 150.774 67.0099C150.88 67.037 150.986 67.0612 151.093 67.0824C151.199 67.1036 151.307 67.1218 151.414 67.1369C151.522 67.152 151.63 67.1642 151.739 67.1732C151.847 67.1823 151.956 67.1883 152.065 67.1912C152.174 67.1942 152.283 67.194 152.391 67.1909C152.5 67.1877 152.609 67.1815 152.717 67.1722C152.826 67.1629 152.934 67.1505 153.042 67.1352C153.15 67.1198 153.257 67.1014 153.364 67.08C153.47 67.0585 153.576 67.0342 153.682 67.0068C153.787 66.9794 153.892 66.9491 153.995 66.9158C154.099 66.8826 154.202 66.8464 154.303 66.8074C154.405 66.7683 154.505 66.7265 154.604 66.6818C154.703 66.6371 154.801 66.5897 154.898 66.5395C154.994 66.4893 155.089 66.4365 155.183 66.3809C155.276 66.3254 155.368 66.2673 155.458 66.2066C155.549 66.1459 155.637 66.0827 155.724 66.017C155.81 65.9513 155.895 65.8833 155.978 65.8128L154.112 64.3751C152.517 65.4234 149.869 65.034 148.966 62.5779L147.07 64.0456Z" fill="#EAEAEA"/>
<path d="M148.966 62.5779C148.725 61.829 148.725 61.1401 148.966 60.3913L147.07 58.9236C146.378 60.3015 146.167 62.2484 147.07 64.0456L148.966 62.5779Z" fill="#EAEAEA"/>
<path d="M148.966 60.3913C149.628 58.3246 152.457 57.1265 154.353 58.8937L156.008 57.2762C153.66 55.0297 149.086 55.1196 147.07 58.9236L148.966 60.3913Z" fill="#EAEAEA"/>
</g>
<g clip-path="url(#clip6_93_548)">
<path fill-rule="evenodd" clip-rule="evenodd" d="M117 55.0078C116.818 54.9827 116.626 55.0354 116.478 55.1688L111.211 59.9354C110.947 60.1741 110.926 60.5809 111.163 60.8457C111.402 61.1125 111.813 61.134 112.078 60.8937L112.474 60.5356V65.7047V66C112.474 66.5523 112.922 67 113.474 67H113.763H120.206H120.495C121.048 67 121.495 66.5523 121.495 66V65.7047V60.5076L121.922 60.8937C122.187 61.134 122.598 61.1125 122.837 60.8457C123.074 60.5809 123.053 60.1741 122.789 59.9354L117.522 55.1688C117.375 55.0354 117.183 54.9827 117 55.0078ZM113.763 59.3693V60.228V61.1857V61.228V63.7047V65V65.0423V65.7047H114.43H114.474H115.763H118.206H119.495H119.54H120.206V65.0423V65V63.7047V61.228V61.1857V60.228V59.3413L117 56.4395L113.763 59.3693Z" fill="white"/>
<path fill-rule="evenodd" clip-rule="evenodd" d="M91.9979 59.3312V55.8045C91.9979 55.5045 91.6379 55.3579 91.4312 55.5712L90.2446 56.7579C89.0379 55.5512 87.3179 54.8579 85.4379 55.0245C82.6446 55.2779 80.3446 57.5245 80.0379 60.3179C79.6379 63.9312 82.4579 66.9979 85.9979 66.9979C89.0579 66.9979 91.5846 64.7046 91.9512 61.7446C91.9979 61.3446 91.6846 60.9979 91.2846 60.9979C90.9512 60.9979 90.6712 61.2446 90.6312 61.5712C90.3446 63.8979 88.3379 65.6979 85.9312 65.6646C83.4579 65.6312 81.3712 63.5446 81.3312 61.0646C81.2912 58.4645 83.4046 56.3312 85.9979 56.3312C87.2846 56.3312 88.4512 56.8579 89.2979 57.6979L87.9046 59.0912C87.6912 59.3045 87.8379 59.6645 88.1379 59.6645H91.6646C91.8512 59.6645 91.9979 59.5179 91.9979 59.3312Z" fill="white"/>
<path fill-rule="evenodd" clip-rule="evenodd" d="M49.7701 61.617H58.3721L54.614 65.3751C54.3137 65.6754 54.3137 66.1683 54.614 66.4686C54.9143 66.769 55.3995 66.769 55.6998 66.4686L60.7747 61.3937C61.0751 61.0934 61.0751 60.6082 60.7747 60.3079L55.7075 55.2253C55.4072 54.9249 54.922 54.9249 54.6217 55.2253C54.3214 55.5256 54.3214 56.0107 54.6217 56.3111L58.3721 60.0768H49.7701C49.3465 60.0768 49 60.4234 49 60.8469C49 61.2705 49.3465 61.617 49.7701 61.617Z" fill="#86888A"/>
<path fill-rule="evenodd" clip-rule="evenodd" d="M29.2299 60.0768H20.6279L24.386 56.3188C24.6863 56.0185 24.6863 55.5256 24.386 55.2253C24.0857 54.9249 23.6005 54.9249 23.3002 55.2253L18.2253 60.3002C17.9249 60.6005 17.9249 61.0857 18.2253 61.386L23.3002 66.4609C23.6005 66.7613 24.0857 66.7613 24.386 66.4609C24.6863 66.1606 24.6863 65.6754 24.386 65.3751L20.6279 61.617H29.2299C29.6535 61.617 30 61.2705 30 60.8469C30 60.4234 29.6535 60.0768 29.2299 60.0768Z" fill="white"/>
</g>
</g>
<g clip-path="url(#clip7_93_548)">
<g filter="url(#filter2_d_93_548)">
<path d="M4 8C4 3.58172 7.58172 0 12 0H716C720.418 0 724 3.58172 724 8V42H4V8Z" fill="#202124"/>
</g>
<path fill-rule="evenodd" clip-rule="evenodd" d="M78 42C79.3846 41.0588 82.6154 40.5882 84 34C84 34 84 42 84 42C84 42 78 42 78 42Z" fill="#35363A"/>
<path d="M84 16C84 11.5817 87.5817 8 92 8H214C218.418 8 222 11.5817 222 16V42H84V16Z" fill="#35363A"/>
<rect x="92" y="17" width="16" height="16" rx="7.5" fill="#F6225D"/>
<g clip-path="url(#clip8_93_548)">
<path d="M99.2675 21.4224C100.457 20.2326 102.387 20.2326 103.576 21.4224C104.766 22.6123 104.766 24.5415 103.576 25.7314C102.696 26.6114 101.413 26.8399 100.323 26.4195L100.197 26.3681L100.188 26.3658H99.902V27.1057C99.902 27.4091 99.6714 27.6586 99.3759 27.6886L99.316 27.6917H98.5761V28.4316C98.5761 28.7349 98.3456 28.9845 98.0501 29.0145L97.9902 29.0175H96.1233C95.8793 29.0175 95.6784 28.8329 95.6527 28.5957L95.6499 28.5441V27.32C95.6499 27.1568 95.7066 26.9995 95.8091 26.8744L95.8558 26.8228L98.4343 24.2444L98.4386 24.2269C98.4398 24.2172 98.44 24.2042 98.4369 24.189C98.2393 23.2215 98.5156 22.1743 99.2675 21.4224ZM101.256 22.7483C100.982 23.0229 100.982 23.4681 101.256 23.7427C101.531 24.0172 101.976 24.0172 102.251 23.7427C102.525 23.4681 102.525 23.0229 102.251 22.7483C101.976 22.4737 101.531 22.4737 101.256 22.7483Z" fill="white"/>
</g>
<path d="M120.299 29H118.518L118.529 28.0801H120.299C120.908 28.0801 121.416 27.9531 121.822 27.6992C122.229 27.4414 122.533 27.082 122.736 26.6211C122.943 26.1562 123.047 25.6133 123.047 24.9922V24.4707C123.047 23.9824 122.988 23.5488 122.871 23.1699C122.754 22.7871 122.582 22.4648 122.355 22.2031C122.129 21.9375 121.852 21.7363 121.523 21.5996C121.199 21.4629 120.826 21.3945 120.404 21.3945H118.482V20.4688H120.404C120.963 20.4688 121.473 20.5625 121.934 20.75C122.395 20.9336 122.791 21.2012 123.123 21.5527C123.459 21.9004 123.717 22.3223 123.896 22.8184C124.076 23.3105 124.166 23.8652 124.166 24.4824V24.9922C124.166 25.6094 124.076 26.166 123.896 26.6621C123.717 27.1543 123.457 27.5742 123.117 27.9219C122.781 28.2695 122.375 28.5371 121.898 28.7246C121.426 28.9082 120.893 29 120.299 29ZM119.121 20.4688V29H117.99V20.4688H119.121ZM128.532 29.1172C128.091 29.1172 127.69 29.043 127.331 28.8945C126.975 28.7422 126.669 28.5293 126.411 28.2559C126.157 27.9824 125.962 27.6582 125.825 27.2832C125.688 26.9082 125.62 26.498 125.62 26.0527V25.8066C125.62 25.291 125.696 24.832 125.848 24.4297C126.001 24.0234 126.208 23.6797 126.47 23.3984C126.731 23.1172 127.028 22.9043 127.36 22.7598C127.692 22.6152 128.036 22.543 128.391 22.543C128.845 22.543 129.235 22.6211 129.563 22.7773C129.895 22.9336 130.167 23.1523 130.378 23.4336C130.589 23.7109 130.745 24.0391 130.846 24.418C130.948 24.793 130.999 25.2031 130.999 25.6484V26.1348H126.264V25.25H129.915V25.168C129.899 24.8867 129.841 24.6133 129.739 24.3477C129.641 24.082 129.485 23.8633 129.27 23.6914C129.055 23.5195 128.762 23.4336 128.391 23.4336C128.145 23.4336 127.919 23.4863 127.712 23.5918C127.505 23.6934 127.327 23.8457 127.179 24.0488C127.03 24.252 126.915 24.5 126.833 24.793C126.751 25.0859 126.71 25.4238 126.71 25.8066V26.0527C126.71 26.3535 126.751 26.6367 126.833 26.9023C126.919 27.1641 127.042 27.3945 127.202 27.5938C127.366 27.793 127.563 27.9492 127.794 28.0625C128.028 28.1758 128.294 28.2324 128.591 28.2324C128.973 28.2324 129.298 28.1543 129.563 27.998C129.829 27.8418 130.061 27.6328 130.261 27.3711L130.917 27.8926C130.78 28.0996 130.606 28.2969 130.395 28.4844C130.184 28.6719 129.925 28.8242 129.616 28.9414C129.311 29.0586 128.95 29.1172 128.532 29.1172ZM135.002 28.2266C135.259 28.2266 135.498 28.1738 135.716 28.0684C135.935 27.9629 136.115 27.8184 136.255 27.6348C136.396 27.4473 136.476 27.2344 136.496 26.9961H137.527C137.507 27.3711 137.38 27.7207 137.146 28.0449C136.916 28.3652 136.613 28.625 136.238 28.8242C135.863 29.0195 135.451 29.1172 135.002 29.1172C134.525 29.1172 134.109 29.0332 133.754 28.8652C133.402 28.6973 133.109 28.4668 132.875 28.1738C132.644 27.8809 132.47 27.5449 132.353 27.166C132.24 26.7832 132.183 26.3789 132.183 25.9531V25.707C132.183 25.2812 132.24 24.8789 132.353 24.5C132.47 24.1172 132.644 23.7793 132.875 23.4863C133.109 23.1934 133.402 22.9629 133.754 22.7949C134.109 22.627 134.525 22.543 135.002 22.543C135.498 22.543 135.931 22.6445 136.302 22.8477C136.673 23.0469 136.964 23.3203 137.175 23.668C137.39 24.0117 137.507 24.4023 137.527 24.8398H136.496C136.476 24.5781 136.402 24.3418 136.273 24.1309C136.148 23.9199 135.976 23.752 135.757 23.627C135.543 23.498 135.291 23.4336 135.002 23.4336C134.67 23.4336 134.39 23.5 134.164 23.6328C133.941 23.7617 133.763 23.9375 133.63 24.1602C133.502 24.3789 133.408 24.623 133.349 24.8926C133.295 25.1582 133.267 25.4297 133.267 25.707V25.9531C133.267 26.2305 133.295 26.5039 133.349 26.7734C133.404 27.043 133.496 27.2871 133.625 27.5059C133.757 27.7246 133.935 27.9004 134.158 28.0332C134.384 28.1621 134.666 28.2266 135.002 28.2266ZM138.659 25.9004V25.7656C138.659 25.3086 138.725 24.8848 138.858 24.4941C138.991 24.0996 139.182 23.7578 139.432 23.4688C139.682 23.1758 139.985 22.9492 140.34 22.7891C140.696 22.625 141.094 22.543 141.536 22.543C141.981 22.543 142.381 22.625 142.737 22.7891C143.096 22.9492 143.401 23.1758 143.651 23.4688C143.905 23.7578 144.098 24.0996 144.231 24.4941C144.364 24.8848 144.43 25.3086 144.43 25.7656V25.9004C144.43 26.3574 144.364 26.7812 144.231 27.1719C144.098 27.5625 143.905 27.9043 143.651 28.1973C143.401 28.4863 143.098 28.7129 142.743 28.877C142.391 29.0371 141.993 29.1172 141.547 29.1172C141.102 29.1172 140.702 29.0371 140.346 28.877C139.991 28.7129 139.686 28.4863 139.432 28.1973C139.182 27.9043 138.991 27.5625 138.858 27.1719C138.725 26.7812 138.659 26.3574 138.659 25.9004ZM139.743 25.7656V25.9004C139.743 26.2168 139.78 26.5156 139.854 26.7969C139.928 27.0742 140.039 27.3203 140.188 27.5352C140.34 27.75 140.53 27.9199 140.756 28.0449C140.983 28.166 141.246 28.2266 141.547 28.2266C141.844 28.2266 142.104 28.166 142.327 28.0449C142.553 27.9199 142.741 27.75 142.889 27.5352C143.038 27.3203 143.149 27.0742 143.223 26.7969C143.301 26.5156 143.34 26.2168 143.34 25.9004V25.7656C143.34 25.4531 143.301 25.1582 143.223 24.8809C143.149 24.5996 143.036 24.3516 142.883 24.1367C142.735 23.918 142.547 23.7461 142.321 23.6211C142.098 23.4961 141.836 23.4336 141.536 23.4336C141.239 23.4336 140.977 23.4961 140.75 23.6211C140.528 23.7461 140.34 23.918 140.188 24.1367C140.039 24.3516 139.928 24.5996 139.854 24.8809C139.78 25.1582 139.743 25.4531 139.743 25.7656ZM149.986 27.7695V20H151.075V29H150.079L149.986 27.7695ZM145.72 25.9004V25.7773C145.72 25.293 145.779 24.8535 145.896 24.459C146.017 24.0605 146.187 23.7188 146.405 23.4336C146.628 23.1484 146.892 22.9297 147.196 22.7773C147.505 22.6211 147.849 22.543 148.228 22.543C148.626 22.543 148.974 22.6133 149.271 22.7539C149.571 22.8906 149.825 23.0918 150.032 23.3574C150.243 23.6191 150.409 23.9355 150.53 24.3066C150.652 24.6777 150.736 25.0977 150.782 25.5664V26.1055C150.739 26.5703 150.655 26.9883 150.53 27.3594C150.409 27.7305 150.243 28.0469 150.032 28.3086C149.825 28.5703 149.571 28.7715 149.271 28.9121C148.97 29.0488 148.618 29.1172 148.216 29.1172C147.845 29.1172 147.505 29.0371 147.196 28.877C146.892 28.7168 146.628 28.4922 146.405 28.2031C146.187 27.9141 146.017 27.5742 145.896 27.1836C145.779 26.7891 145.72 26.3613 145.72 25.9004ZM146.81 25.7773V25.9004C146.81 26.2168 146.841 26.5137 146.904 26.791C146.97 27.0684 147.071 27.3125 147.208 27.5234C147.345 27.7344 147.519 27.9004 147.73 28.0215C147.941 28.1387 148.193 28.1973 148.486 28.1973C148.845 28.1973 149.14 28.1211 149.37 27.9688C149.605 27.8164 149.792 27.6152 149.933 27.3652C150.073 27.1152 150.183 26.8438 150.261 26.5508V25.1387C150.214 24.9238 150.146 24.7168 150.056 24.5176C149.97 24.3145 149.857 24.1348 149.716 23.9785C149.579 23.8184 149.409 23.6914 149.206 23.5977C149.007 23.5039 148.771 23.457 148.497 23.457C148.2 23.457 147.945 23.5195 147.73 23.6445C147.519 23.7656 147.345 23.9336 147.208 24.1484C147.071 24.3594 146.97 24.6055 146.904 24.8867C146.841 25.1641 146.81 25.4609 146.81 25.7773ZM155.594 29.1172C155.152 29.1172 154.752 29.043 154.393 28.8945C154.037 28.7422 153.73 28.5293 153.473 28.2559C153.219 27.9824 153.023 27.6582 152.887 27.2832C152.75 26.9082 152.682 26.498 152.682 26.0527V25.8066C152.682 25.291 152.758 24.832 152.91 24.4297C153.062 24.0234 153.27 23.6797 153.531 23.3984C153.793 23.1172 154.09 22.9043 154.422 22.7598C154.754 22.6152 155.098 22.543 155.453 22.543C155.906 22.543 156.297 22.6211 156.625 22.7773C156.957 22.9336 157.229 23.1523 157.439 23.4336C157.65 23.7109 157.807 24.0391 157.908 24.418C158.01 24.793 158.061 25.2031 158.061 25.6484V26.1348H153.326V25.25H156.977V25.168C156.961 24.8867 156.902 24.6133 156.801 24.3477C156.703 24.082 156.547 23.8633 156.332 23.6914C156.117 23.5195 155.824 23.4336 155.453 23.4336C155.207 23.4336 154.98 23.4863 154.773 23.5918C154.566 23.6934 154.389 23.8457 154.24 24.0488C154.092 24.252 153.977 24.5 153.895 24.793C153.812 25.0859 153.771 25.4238 153.771 25.8066V26.0527C153.771 26.3535 153.812 26.6367 153.895 26.9023C153.98 27.1641 154.104 27.3945 154.264 27.5938C154.428 27.793 154.625 27.9492 154.855 28.0625C155.09 28.1758 155.355 28.2324 155.652 28.2324C156.035 28.2324 156.359 28.1543 156.625 27.998C156.891 27.8418 157.123 27.6328 157.322 27.3711L157.979 27.8926C157.842 28.0996 157.668 28.2969 157.457 28.4844C157.246 28.6719 156.986 28.8242 156.678 28.9414C156.373 29.0586 156.012 29.1172 155.594 29.1172ZM166.447 26.5098V20.4688H167.572V26.5098C167.572 27.0723 167.457 27.5469 167.226 27.9336C166.996 28.3203 166.677 28.6152 166.271 28.8184C165.869 29.0176 165.406 29.1172 164.882 29.1172C164.359 29.1172 163.894 29.0273 163.488 28.8477C163.082 28.668 162.763 28.3945 162.533 28.0273C162.302 27.6602 162.187 27.1973 162.187 26.6387H163.318C163.318 26.998 163.384 27.293 163.517 27.5234C163.65 27.7539 163.834 27.9238 164.068 28.0332C164.306 28.1426 164.578 28.1973 164.882 28.1973C165.179 28.1973 165.445 28.1348 165.679 28.0098C165.918 27.8809 166.105 27.6914 166.242 27.4414C166.379 27.1875 166.447 26.877 166.447 26.5098ZM171.932 26.4219L173.625 20.4688H174.446L173.971 22.7832L172.149 29H171.334L171.932 26.4219ZM170.18 20.4688L171.528 26.3047L171.932 29H171.123L169.055 20.4688H170.18ZM176.637 26.2988L177.955 20.4688H179.086L177.024 29H176.215L176.637 26.2988ZM174.569 20.4688L176.215 26.4219L176.813 29H175.998L174.241 22.7832L173.76 20.4688H174.569ZM183.775 20.4688V29H182.661V20.4688H183.775ZM186.517 20.4688V21.3945H179.925V20.4688H186.517Z" fill="white"/>
<path fill-rule="evenodd" clip-rule="evenodd" d="M208.584 21.4221C208.362 21.2002 208.003 21.2002 207.782 21.4221L205 24.198L202.218 21.4164C201.997 21.1945 201.638 21.1945 201.416 21.4164C201.195 21.6382 201.195 21.9966 201.416 22.2184L204.198 25L201.416 27.7816C201.195 28.0034 201.195 28.3618 201.416 28.5836C201.638 28.8055 201.997 28.8055 202.218 28.5836L205 25.802L207.782 28.5836C208.003 28.8055 208.362 28.8055 208.584 28.5836C208.805 28.3618 208.805 28.0034 208.584 27.7816L205.802 25L208.584 22.2184C208.8 22.0023 208.8 21.6382 208.584 21.4221Z" fill="white"/>
<path fill-rule="evenodd" clip-rule="evenodd" d="M228 42C226.615 41.0588 223.385 40.5882 222 34C222 34 222 42 222 42C222 42 228 42 228 42Z" fill="#35363A"/>
<path fill-rule="evenodd" clip-rule="evenodd" d="M251.714 25.9523H246.953V30.7142C246.953 31.238 246.524 31.6666 246 31.6666C245.476 31.6666 245.048 31.238 245.048 30.7142V25.9523H240.286C239.762 25.9523 239.333 25.5237 239.333 24.9999C239.333 24.4761 239.762 24.0475 240.286 24.0475H245.048V19.2856C245.048 18.7618 245.476 18.3333 246 18.3333C246.524 18.3333 246.953 18.7618 246.953 19.2856V24.0475H251.714C252.238 24.0475 252.667 24.4761 252.667 24.9999C252.667 25.5237 252.238 25.9523 251.714 25.9523Z" fill="#BDC1C6"/>
<g clip-path="url(#clip9_93_548)">
<circle cx="63" cy="21.5" r="5.75" fill="#27CA40" stroke="#3EAF3F" stroke-width="0.5"/>
<circle cx="43" cy="21.5" r="5.75" fill="#FFC130" stroke="#E1A325" stroke-width="0.5"/>
<circle cx="23" cy="21.5" r="5.75" fill="#FF6058" stroke="#E14942" stroke-width="0.5"/>
</g>
</g>
</g>
<path d="M221.397 461.5H218.022L224.167 444.045H228.07L234.223 461.5H230.848L226.186 447.625H226.05L221.397 461.5ZM221.507 454.656H230.712V457.196H221.507V454.656ZM248.97 448.409V450.795H241.231V448.409H248.97ZM243.166 461.5V447.173C243.166 446.293 243.348 445.56 243.711 444.974C244.081 444.389 244.575 443.952 245.194 443.662C245.814 443.372 246.501 443.227 247.257 443.227C247.791 443.227 248.265 443.27 248.68 443.355C249.095 443.44 249.402 443.517 249.6 443.585L248.987 445.972C248.856 445.932 248.691 445.892 248.493 445.852C248.294 445.807 248.072 445.784 247.828 445.784C247.254 445.784 246.848 445.923 246.609 446.202C246.376 446.474 246.26 446.866 246.26 447.378V461.5H243.166ZM254.708 461.764C253.878 461.764 253.131 461.616 252.466 461.321C251.807 461.02 251.284 460.577 250.898 459.991C250.517 459.406 250.327 458.685 250.327 457.827C250.327 457.088 250.463 456.477 250.736 455.994C251.009 455.511 251.381 455.125 251.853 454.835C252.324 454.545 252.855 454.327 253.446 454.179C254.043 454.026 254.659 453.915 255.296 453.847C256.063 453.767 256.685 453.696 257.162 453.634C257.64 453.565 257.986 453.463 258.202 453.327C258.424 453.185 258.534 452.966 258.534 452.67V452.619C258.534 451.977 258.344 451.48 257.963 451.128C257.583 450.776 257.034 450.599 256.319 450.599C255.563 450.599 254.963 450.764 254.52 451.094C254.083 451.423 253.787 451.812 253.634 452.261L250.753 451.852C250.98 451.057 251.355 450.392 251.878 449.858C252.401 449.318 253.04 448.915 253.796 448.648C254.551 448.375 255.387 448.239 256.301 448.239C256.932 448.239 257.56 448.312 258.185 448.46C258.81 448.608 259.381 448.852 259.898 449.193C260.415 449.528 260.83 449.986 261.142 450.565C261.461 451.145 261.62 451.869 261.62 452.739V461.5H258.654V459.702H258.551C258.364 460.065 258.1 460.406 257.759 460.724C257.424 461.037 257 461.29 256.489 461.483C255.983 461.67 255.39 461.764 254.708 461.764ZM255.509 459.497C256.128 459.497 256.665 459.375 257.12 459.131C257.574 458.881 257.924 458.551 258.168 458.142C258.418 457.733 258.543 457.287 258.543 456.804V455.261C258.446 455.341 258.282 455.415 258.049 455.483C257.821 455.551 257.566 455.611 257.282 455.662C256.998 455.713 256.716 455.759 256.438 455.798C256.159 455.838 255.918 455.872 255.713 455.901C255.253 455.963 254.841 456.065 254.478 456.207C254.114 456.349 253.827 456.548 253.617 456.804C253.407 457.054 253.301 457.378 253.301 457.776C253.301 458.344 253.509 458.773 253.924 459.062C254.338 459.352 254.867 459.497 255.509 459.497ZM275.069 451.869L272.256 452.176C272.176 451.892 272.037 451.625 271.838 451.375C271.645 451.125 271.384 450.923 271.054 450.77C270.725 450.616 270.321 450.54 269.844 450.54C269.202 450.54 268.662 450.679 268.225 450.957C267.793 451.236 267.58 451.597 267.586 452.04C267.58 452.42 267.719 452.73 268.003 452.969C268.293 453.207 268.77 453.403 269.435 453.557L271.668 454.034C272.907 454.301 273.827 454.724 274.429 455.304C275.037 455.884 275.344 456.642 275.35 457.58C275.344 458.403 275.103 459.131 274.625 459.761C274.154 460.386 273.498 460.875 272.657 461.227C271.816 461.58 270.85 461.756 269.759 461.756C268.157 461.756 266.867 461.42 265.89 460.75C264.912 460.074 264.33 459.134 264.142 457.929L267.151 457.639C267.287 458.23 267.577 458.676 268.02 458.977C268.463 459.278 269.04 459.429 269.75 459.429C270.483 459.429 271.071 459.278 271.515 458.977C271.963 458.676 272.188 458.304 272.188 457.861C272.188 457.486 272.043 457.176 271.753 456.932C271.469 456.687 271.026 456.5 270.424 456.369L268.191 455.901C266.935 455.639 266.006 455.199 265.404 454.58C264.801 453.955 264.503 453.165 264.509 452.21C264.503 451.403 264.722 450.705 265.165 450.114C265.614 449.517 266.236 449.057 267.032 448.733C267.833 448.403 268.756 448.239 269.801 448.239C271.336 448.239 272.543 448.565 273.424 449.219C274.31 449.872 274.858 450.756 275.069 451.869ZM284.431 448.409V450.795H276.905V448.409H284.431ZM278.763 445.273H281.848V457.562C281.848 457.977 281.911 458.295 282.036 458.517C282.167 458.733 282.337 458.881 282.547 458.96C282.757 459.04 282.99 459.08 283.246 459.08C283.439 459.08 283.615 459.065 283.775 459.037C283.939 459.009 284.064 458.983 284.15 458.96L284.669 461.372C284.505 461.429 284.269 461.491 283.962 461.56C283.661 461.628 283.292 461.668 282.854 461.679C282.081 461.702 281.385 461.585 280.766 461.33C280.147 461.068 279.655 460.665 279.292 460.119C278.934 459.574 278.757 458.892 278.763 458.074V445.273ZM290.633 459.114L290.522 460.051C290.443 460.767 290.301 461.494 290.096 462.233C289.897 462.977 289.687 463.662 289.466 464.287C289.244 464.912 289.065 465.403 288.929 465.761H286.849C286.929 465.415 287.037 464.943 287.173 464.347C287.315 463.75 287.451 463.08 287.582 462.335C287.713 461.591 287.801 460.835 287.846 460.068L287.906 459.114H290.633ZM305.299 461.756C303.986 461.756 302.853 461.483 301.898 460.938C300.949 460.386 300.219 459.608 299.708 458.602C299.196 457.591 298.941 456.401 298.941 455.031C298.941 453.685 299.196 452.503 299.708 451.486C300.225 450.463 300.946 449.668 301.873 449.099C302.799 448.526 303.887 448.239 305.137 448.239C305.944 448.239 306.705 448.369 307.421 448.631C308.142 448.886 308.779 449.284 309.33 449.824C309.887 450.364 310.324 451.051 310.642 451.886C310.961 452.716 311.12 453.705 311.12 454.852V455.798H300.39V453.719H308.162C308.157 453.128 308.029 452.602 307.779 452.142C307.529 451.676 307.179 451.31 306.73 451.043C306.287 450.776 305.77 450.642 305.179 450.642C304.549 450.642 303.995 450.795 303.517 451.102C303.04 451.403 302.668 451.801 302.401 452.295C302.14 452.784 302.006 453.321 302 453.906V455.722C302 456.483 302.14 457.136 302.418 457.682C302.696 458.222 303.086 458.636 303.586 458.926C304.086 459.21 304.671 459.352 305.341 459.352C305.79 459.352 306.196 459.29 306.56 459.165C306.924 459.034 307.239 458.844 307.506 458.594C307.773 458.344 307.975 458.034 308.111 457.665L310.992 457.989C310.81 458.75 310.463 459.415 309.952 459.983C309.446 460.545 308.799 460.983 308.009 461.295C307.219 461.602 306.316 461.756 305.299 461.756ZM317.497 461.764C316.667 461.764 315.92 461.616 315.255 461.321C314.596 461.02 314.074 460.577 313.687 459.991C313.306 459.406 313.116 458.685 313.116 457.827C313.116 457.088 313.252 456.477 313.525 455.994C313.798 455.511 314.17 455.125 314.642 454.835C315.113 454.545 315.645 454.327 316.235 454.179C316.832 454.026 317.449 453.915 318.085 453.847C318.852 453.767 319.474 453.696 319.951 453.634C320.429 453.565 320.775 453.463 320.991 453.327C321.213 453.185 321.324 452.966 321.324 452.67V452.619C321.324 451.977 321.133 451.48 320.752 451.128C320.372 450.776 319.824 450.599 319.108 450.599C318.352 450.599 317.752 450.764 317.309 451.094C316.872 451.423 316.576 451.812 316.423 452.261L313.542 451.852C313.77 451.057 314.145 450.392 314.667 449.858C315.19 449.318 315.829 448.915 316.585 448.648C317.341 448.375 318.176 448.239 319.091 448.239C319.721 448.239 320.349 448.312 320.974 448.46C321.599 448.608 322.17 448.852 322.687 449.193C323.204 449.528 323.619 449.986 323.931 450.565C324.25 451.145 324.409 451.869 324.409 452.739V461.5H321.443V459.702H321.341C321.153 460.065 320.889 460.406 320.548 460.724C320.213 461.037 319.789 461.29 319.278 461.483C318.772 461.67 318.179 461.764 317.497 461.764ZM318.298 459.497C318.917 459.497 319.454 459.375 319.909 459.131C320.363 458.881 320.713 458.551 320.957 458.142C321.207 457.733 321.332 457.287 321.332 456.804V455.261C321.235 455.341 321.071 455.415 320.838 455.483C320.61 455.551 320.355 455.611 320.071 455.662C319.787 455.713 319.505 455.759 319.227 455.798C318.949 455.838 318.707 455.872 318.502 455.901C318.042 455.963 317.63 456.065 317.267 456.207C316.903 456.349 316.616 456.548 316.406 456.804C316.196 457.054 316.091 457.378 316.091 457.776C316.091 458.344 316.298 458.773 316.713 459.062C317.127 459.352 317.656 459.497 318.298 459.497ZM337.858 451.869L335.045 452.176C334.966 451.892 334.826 451.625 334.627 451.375C334.434 451.125 334.173 450.923 333.843 450.77C333.514 450.616 333.11 450.54 332.633 450.54C331.991 450.54 331.451 450.679 331.014 450.957C330.582 451.236 330.369 451.597 330.375 452.04C330.369 452.42 330.508 452.73 330.792 452.969C331.082 453.207 331.559 453.403 332.224 453.557L334.457 454.034C335.696 454.301 336.616 454.724 337.218 455.304C337.826 455.884 338.133 456.642 338.139 457.58C338.133 458.403 337.892 459.131 337.414 459.761C336.943 460.386 336.287 460.875 335.446 461.227C334.605 461.58 333.639 461.756 332.548 461.756C330.946 461.756 329.656 461.42 328.679 460.75C327.701 460.074 327.119 459.134 326.931 457.929L329.94 457.639C330.076 458.23 330.366 458.676 330.809 458.977C331.252 459.278 331.829 459.429 332.539 459.429C333.272 459.429 333.86 459.278 334.304 458.977C334.752 458.676 334.977 458.304 334.977 457.861C334.977 457.486 334.832 457.176 334.542 456.932C334.258 456.687 333.815 456.5 333.213 456.369L330.98 455.901C329.724 455.639 328.795 455.199 328.193 454.58C327.591 453.955 327.292 453.165 327.298 452.21C327.292 451.403 327.511 450.705 327.954 450.114C328.403 449.517 329.025 449.057 329.821 448.733C330.622 448.403 331.545 448.239 332.591 448.239C334.125 448.239 335.332 448.565 336.213 449.219C337.099 449.872 337.647 450.756 337.858 451.869ZM342.6 466.409C342.18 466.409 341.791 466.375 341.433 466.307C341.081 466.244 340.799 466.17 340.589 466.085L341.305 463.682C341.754 463.813 342.154 463.875 342.507 463.869C342.859 463.864 343.169 463.753 343.436 463.537C343.708 463.327 343.939 462.974 344.126 462.48L344.39 461.773L339.643 448.409H342.916L345.933 458.295H346.069L349.095 448.409H352.376L347.135 463.085C346.89 463.778 346.566 464.372 346.163 464.866C345.76 465.366 345.265 465.747 344.68 466.009C344.1 466.276 343.407 466.409 342.6 466.409ZM357.313 459.114L357.202 460.051C357.123 460.767 356.98 461.494 356.776 462.233C356.577 462.977 356.367 463.662 356.145 464.287C355.924 464.912 355.745 465.403 355.608 465.761H353.529C353.608 465.415 353.716 464.943 353.853 464.347C353.995 463.75 354.131 463.08 354.262 462.335C354.392 461.591 354.48 460.835 354.526 460.068L354.586 459.114H357.313ZM369.95 461.764C369.12 461.764 368.373 461.616 367.708 461.321C367.049 461.02 366.527 460.577 366.14 459.991C365.76 459.406 365.569 458.685 365.569 457.827C365.569 457.088 365.706 456.477 365.978 455.994C366.251 455.511 366.623 455.125 367.095 454.835C367.566 454.545 368.098 454.327 368.689 454.179C369.285 454.026 369.902 453.915 370.538 453.847C371.305 453.767 371.927 453.696 372.404 453.634C372.882 453.565 373.228 453.463 373.444 453.327C373.666 453.185 373.777 452.966 373.777 452.67V452.619C373.777 451.977 373.586 451.48 373.206 451.128C372.825 450.776 372.277 450.599 371.561 450.599C370.805 450.599 370.206 450.764 369.762 451.094C369.325 451.423 369.029 451.812 368.876 452.261L365.995 451.852C366.223 451.057 366.598 450.392 367.12 449.858C367.643 449.318 368.282 448.915 369.038 448.648C369.794 448.375 370.629 448.239 371.544 448.239C372.174 448.239 372.802 448.312 373.427 448.46C374.052 448.608 374.623 448.852 375.14 449.193C375.657 449.528 376.072 449.986 376.385 450.565C376.703 451.145 376.862 451.869 376.862 452.739V461.5H373.896V459.702H373.794C373.606 460.065 373.342 460.406 373.001 460.724C372.666 461.037 372.243 461.29 371.731 461.483C371.225 461.67 370.632 461.764 369.95 461.764ZM370.751 459.497C371.37 459.497 371.907 459.375 372.362 459.131C372.816 458.881 373.166 458.551 373.41 458.142C373.66 457.733 373.785 457.287 373.785 456.804V455.261C373.689 455.341 373.524 455.415 373.291 455.483C373.064 455.551 372.808 455.611 372.524 455.662C372.24 455.713 371.958 455.759 371.68 455.798C371.402 455.838 371.16 455.872 370.956 455.901C370.495 455.963 370.083 456.065 369.72 456.207C369.356 456.349 369.069 456.548 368.859 456.804C368.649 457.054 368.544 457.378 368.544 457.776C368.544 458.344 368.751 458.773 369.166 459.062C369.581 459.352 370.109 459.497 370.751 459.497ZM383.049 453.83V461.5H379.964V448.409H382.913V450.634H383.066C383.368 449.901 383.848 449.318 384.507 448.886C385.172 448.455 385.993 448.239 386.97 448.239C387.873 448.239 388.66 448.432 389.331 448.818C390.007 449.205 390.529 449.764 390.899 450.497C391.274 451.23 391.458 452.119 391.453 453.165V461.5H388.368V453.642C388.368 452.767 388.14 452.082 387.686 451.588C387.237 451.094 386.615 450.847 385.819 450.847C385.279 450.847 384.799 450.966 384.379 451.205C383.964 451.437 383.637 451.776 383.399 452.219C383.166 452.662 383.049 453.199 383.049 453.83ZM399.447 461.73C398.419 461.73 397.498 461.466 396.686 460.938C395.873 460.409 395.231 459.642 394.76 458.636C394.288 457.631 394.052 456.409 394.052 454.972C394.052 453.517 394.291 452.29 394.768 451.29C395.251 450.284 395.902 449.526 396.72 449.014C397.538 448.497 398.45 448.239 399.456 448.239C400.223 448.239 400.853 448.369 401.348 448.631C401.842 448.886 402.234 449.196 402.524 449.56C402.814 449.918 403.038 450.256 403.197 450.574H403.325V444.045H406.419V461.5H403.385V459.438H403.197C403.038 459.756 402.808 460.094 402.507 460.452C402.206 460.804 401.808 461.105 401.314 461.355C400.819 461.605 400.197 461.73 399.447 461.73ZM400.308 459.199C400.961 459.199 401.518 459.023 401.978 458.67C402.439 458.312 402.788 457.815 403.027 457.179C403.265 456.543 403.385 455.801 403.385 454.955C403.385 454.108 403.265 453.372 403.027 452.747C402.794 452.122 402.447 451.636 401.987 451.29C401.532 450.943 400.973 450.77 400.308 450.77C399.62 450.77 399.047 450.949 398.586 451.307C398.126 451.665 397.779 452.159 397.547 452.79C397.314 453.42 397.197 454.142 397.197 454.955C397.197 455.773 397.314 456.503 397.547 457.145C397.785 457.781 398.135 458.284 398.595 458.653C399.061 459.017 399.632 459.199 400.308 459.199ZM415.659 461.5V448.409H418.651V450.591H418.787C419.026 449.835 419.435 449.253 420.015 448.844C420.6 448.429 421.267 448.222 422.017 448.222C422.188 448.222 422.378 448.23 422.588 448.247C422.804 448.259 422.983 448.278 423.125 448.307V451.145C422.995 451.099 422.787 451.06 422.503 451.026C422.225 450.986 421.955 450.966 421.694 450.966C421.131 450.966 420.625 451.088 420.176 451.332C419.733 451.571 419.384 451.903 419.128 452.33C418.873 452.756 418.745 453.247 418.745 453.804V461.5H415.659ZM430.431 461.756C429.119 461.756 427.985 461.483 427.031 460.938C426.082 460.386 425.352 459.608 424.841 458.602C424.329 457.591 424.074 456.401 424.074 455.031C424.074 453.685 424.329 452.503 424.841 451.486C425.358 450.463 426.079 449.668 427.005 449.099C427.931 448.526 429.02 448.239 430.27 448.239C431.076 448.239 431.838 448.369 432.554 448.631C433.275 448.886 433.912 449.284 434.463 449.824C435.02 450.364 435.457 451.051 435.775 451.886C436.093 452.716 436.252 453.705 436.252 454.852V455.798H425.522V453.719H433.295C433.289 453.128 433.162 452.602 432.912 452.142C432.662 451.676 432.312 451.31 431.863 451.043C431.42 450.776 430.903 450.642 430.312 450.642C429.681 450.642 429.127 450.795 428.65 451.102C428.173 451.403 427.801 451.801 427.534 452.295C427.272 452.784 427.139 453.321 427.133 453.906V455.722C427.133 456.483 427.272 457.136 427.551 457.682C427.829 458.222 428.218 458.636 428.718 458.926C429.218 459.21 429.804 459.352 430.474 459.352C430.923 459.352 431.329 459.29 431.693 459.165C432.056 459.034 432.372 458.844 432.639 458.594C432.906 458.344 433.108 458.034 433.244 457.665L436.125 457.989C435.943 458.75 435.596 459.415 435.085 459.983C434.579 460.545 433.931 460.983 433.142 461.295C432.352 461.602 431.449 461.756 430.431 461.756ZM441.948 444.045V461.5H438.863V444.045H441.948ZM445.12 461.5V448.409H448.206V461.5H445.12ZM446.672 446.551C446.183 446.551 445.762 446.389 445.41 446.065C445.058 445.736 444.882 445.341 444.882 444.881C444.882 444.415 445.058 444.02 445.41 443.696C445.762 443.366 446.183 443.202 446.672 443.202C447.166 443.202 447.586 443.366 447.933 443.696C448.285 444.02 448.461 444.415 448.461 444.881C448.461 445.341 448.285 445.736 447.933 446.065C447.586 446.389 447.166 446.551 446.672 446.551ZM455.145 461.764C454.316 461.764 453.569 461.616 452.904 461.321C452.245 461.02 451.722 460.577 451.336 459.991C450.955 459.406 450.765 458.685 450.765 457.827C450.765 457.088 450.901 456.477 451.174 455.994C451.446 455.511 451.819 455.125 452.29 454.835C452.762 454.545 453.293 454.327 453.884 454.179C454.48 454.026 455.097 453.915 455.733 453.847C456.5 453.767 457.123 453.696 457.6 453.634C458.077 453.565 458.424 453.463 458.64 453.327C458.861 453.185 458.972 452.966 458.972 452.67V452.619C458.972 451.977 458.782 451.48 458.401 451.128C458.02 450.776 457.472 450.599 456.756 450.599C456 450.599 455.401 450.764 454.958 451.094C454.52 451.423 454.225 451.812 454.071 452.261L451.191 451.852C451.418 451.057 451.793 450.392 452.316 449.858C452.838 449.318 453.478 448.915 454.233 448.648C454.989 448.375 455.824 448.239 456.739 448.239C457.37 448.239 457.998 448.312 458.623 448.46C459.248 448.608 459.819 448.852 460.336 449.193C460.853 449.528 461.267 449.986 461.58 450.565C461.898 451.145 462.057 451.869 462.057 452.739V461.5H459.091V459.702H458.989C458.801 460.065 458.537 460.406 458.196 460.724C457.861 461.037 457.438 461.29 456.926 461.483C456.421 461.67 455.827 461.764 455.145 461.764ZM455.946 459.497C456.566 459.497 457.103 459.375 457.557 459.131C458.012 458.881 458.361 458.551 458.605 458.142C458.855 457.733 458.98 457.287 458.98 456.804V455.261C458.884 455.341 458.719 455.415 458.486 455.483C458.259 455.551 458.003 455.611 457.719 455.662C457.435 455.713 457.154 455.759 456.875 455.798C456.597 455.838 456.355 455.872 456.151 455.901C455.691 455.963 455.279 456.065 454.915 456.207C454.551 456.349 454.265 456.548 454.054 456.804C453.844 457.054 453.739 457.378 453.739 457.776C453.739 458.344 453.946 458.773 454.361 459.062C454.776 459.352 455.304 459.497 455.946 459.497ZM465.296 461.5V444.045H468.381V450.574H468.509C468.668 450.256 468.892 449.918 469.182 449.56C469.472 449.196 469.864 448.886 470.358 448.631C470.853 448.369 471.483 448.239 472.25 448.239C473.262 448.239 474.174 448.497 474.986 449.014C475.804 449.526 476.452 450.284 476.929 451.29C477.412 452.29 477.654 453.517 477.654 454.972C477.654 456.409 477.418 457.631 476.946 458.636C476.475 459.642 475.833 460.409 475.02 460.938C474.208 461.466 473.287 461.73 472.259 461.73C471.509 461.73 470.887 461.605 470.392 461.355C469.898 461.105 469.5 460.804 469.199 460.452C468.904 460.094 468.674 459.756 468.509 459.438H468.33V461.5H465.296ZM468.321 454.955C468.321 455.801 468.441 456.543 468.679 457.179C468.924 457.815 469.273 458.312 469.728 458.67C470.188 459.023 470.745 459.199 471.398 459.199C472.08 459.199 472.651 459.017 473.111 458.653C473.571 458.284 473.918 457.781 474.151 457.145C474.39 456.503 474.509 455.773 474.509 454.955C474.509 454.142 474.392 453.42 474.159 452.79C473.926 452.159 473.58 451.665 473.12 451.307C472.659 450.949 472.086 450.77 471.398 450.77C470.739 450.77 470.179 450.943 469.719 451.29C469.259 451.636 468.909 452.122 468.671 452.747C468.438 453.372 468.321 454.108 468.321 454.955ZM483.362 444.045V461.5H480.277V444.045H483.362ZM492.33 461.756C491.017 461.756 489.884 461.483 488.929 460.938C487.98 460.386 487.25 459.608 486.739 458.602C486.228 457.591 485.972 456.401 485.972 455.031C485.972 453.685 486.228 452.503 486.739 451.486C487.256 450.463 487.978 449.668 488.904 449.099C489.83 448.526 490.918 448.239 492.168 448.239C492.975 448.239 493.736 448.369 494.452 448.631C495.174 448.886 495.81 449.284 496.361 449.824C496.918 450.364 497.355 451.051 497.674 451.886C497.992 452.716 498.151 453.705 498.151 454.852V455.798H487.421V453.719H495.194C495.188 453.128 495.06 452.602 494.81 452.142C494.56 451.676 494.211 451.31 493.762 451.043C493.319 450.776 492.801 450.642 492.211 450.642C491.58 450.642 491.026 450.795 490.549 451.102C490.071 451.403 489.699 451.801 489.432 452.295C489.171 452.784 489.037 453.321 489.032 453.906V455.722C489.032 456.483 489.171 457.136 489.449 457.682C489.728 458.222 490.117 458.636 490.617 458.926C491.117 459.21 491.702 459.352 492.373 459.352C492.821 459.352 493.228 459.29 493.591 459.165C493.955 459.034 494.27 458.844 494.537 458.594C494.804 458.344 495.006 458.034 495.142 457.665L498.023 457.989C497.841 458.75 497.495 459.415 496.983 459.983C496.478 460.545 495.83 460.983 495.04 461.295C494.25 461.602 493.347 461.756 492.33 461.756ZM513.251 448.409V450.795H505.725V448.409H513.251ZM507.583 445.273H510.669V457.562C510.669 457.977 510.731 458.295 510.856 458.517C510.987 458.733 511.157 458.881 511.368 458.96C511.578 459.04 511.811 459.08 512.066 459.08C512.26 459.08 512.436 459.065 512.595 459.037C512.76 459.009 512.885 458.983 512.97 458.96L513.49 461.372C513.325 461.429 513.089 461.491 512.782 461.56C512.481 461.628 512.112 461.668 511.674 461.679C510.902 461.702 510.206 461.585 509.586 461.33C508.967 461.068 508.475 460.665 508.112 460.119C507.754 459.574 507.578 458.892 507.583 458.074V445.273ZM521.401 461.756C520.123 461.756 519.015 461.474 518.077 460.912C517.14 460.349 516.412 459.562 515.895 458.551C515.384 457.54 515.128 456.358 515.128 455.006C515.128 453.653 515.384 452.469 515.895 451.452C516.412 450.435 517.14 449.645 518.077 449.082C519.015 448.52 520.123 448.239 521.401 448.239C522.679 448.239 523.787 448.52 524.725 449.082C525.662 449.645 526.387 450.435 526.898 451.452C527.415 452.469 527.674 453.653 527.674 455.006C527.674 456.358 527.415 457.54 526.898 458.551C526.387 459.562 525.662 460.349 524.725 460.912C523.787 461.474 522.679 461.756 521.401 461.756ZM521.418 459.284C522.111 459.284 522.691 459.094 523.157 458.713C523.623 458.327 523.969 457.81 524.196 457.162C524.429 456.514 524.546 455.793 524.546 454.997C524.546 454.196 524.429 453.472 524.196 452.824C523.969 452.17 523.623 451.651 523.157 451.264C522.691 450.878 522.111 450.685 521.418 450.685C520.708 450.685 520.117 450.878 519.645 451.264C519.179 451.651 518.83 452.17 518.597 452.824C518.37 453.472 518.256 454.196 518.256 454.997C518.256 455.793 518.37 456.514 518.597 457.162C518.83 457.81 519.179 458.327 519.645 458.713C520.117 459.094 520.708 459.284 521.418 459.284ZM536.002 461.756C534.724 461.756 533.616 461.474 532.679 460.912C531.741 460.349 531.014 459.562 530.497 458.551C529.985 457.54 529.73 456.358 529.73 455.006C529.73 453.653 529.985 452.469 530.497 451.452C531.014 450.435 531.741 449.645 532.679 449.082C533.616 448.52 534.724 448.239 536.002 448.239C537.281 448.239 538.389 448.52 539.326 449.082C540.264 449.645 540.988 450.435 541.5 451.452C542.017 452.469 542.275 453.653 542.275 455.006C542.275 456.358 542.017 457.54 541.5 458.551C540.988 459.562 540.264 460.349 539.326 460.912C538.389 461.474 537.281 461.756 536.002 461.756ZM536.02 459.284C536.713 459.284 537.292 459.094 537.758 458.713C538.224 458.327 538.571 457.81 538.798 457.162C539.031 456.514 539.147 455.793 539.147 454.997C539.147 454.196 539.031 453.472 538.798 452.824C538.571 452.17 538.224 451.651 537.758 451.264C537.292 450.878 536.713 450.685 536.02 450.685C535.309 450.685 534.718 450.878 534.247 451.264C533.781 451.651 533.431 452.17 533.199 452.824C532.971 453.472 532.858 454.196 532.858 454.997C532.858 455.793 532.971 456.514 533.199 457.162C533.431 457.81 533.781 458.327 534.247 458.713C534.718 459.094 535.309 459.284 536.02 459.284ZM547.979 444.045V461.5H544.894V444.045H547.979Z" fill="#BDC1C6"/>
<g clip-path="url(#clip10_93_548)">
<rect x="123" y="312" width="99" height="99" rx="45" fill="#979797"/>
<g clip-path="url(#clip11_93_548)">
<path d="M168.106 340.034C175.245 332.895 186.82 332.895 193.959 340.034C201.099 347.173 201.099 358.748 193.959 365.888C188.68 371.167 180.979 372.539 174.442 370.017L173.685 369.708L173.629 369.694H171.913V374.134C171.913 375.954 170.529 377.451 168.757 377.631L168.397 377.649H163.958V382.089C163.958 383.909 162.574 385.406 160.802 385.586L160.442 385.604H149.241C147.777 385.604 146.571 384.496 146.417 383.073L146.4 382.764V375.419C146.4 374.44 146.741 373.496 147.356 372.746L147.636 372.436L163.107 356.965L163.132 356.861C163.14 356.803 163.141 356.724 163.122 356.633C161.937 350.828 163.594 344.545 168.106 340.034ZM180.038 347.989C178.391 349.637 178.391 352.308 180.038 353.955C181.686 355.603 184.357 355.603 186.005 353.955C187.652 352.308 187.652 349.637 186.005 347.989C184.357 346.341 181.686 346.341 180.038 347.989Z" fill="white"/>
</g>
</g>
<path d="M275.176 347.409H281.256V367.693C281.256 369.568 280.834 371.197 279.991 372.58C279.158 373.962 277.998 375.027 276.511 375.776C275.025 376.524 273.296 376.898 271.327 376.898C269.575 376.898 267.984 376.59 266.554 375.974C265.134 375.349 264.007 374.402 263.173 373.134C262.34 371.855 261.928 370.25 261.938 368.318H268.06C268.079 369.085 268.235 369.743 268.528 370.293C268.831 370.832 269.243 371.249 269.764 371.543C270.295 371.827 270.92 371.969 271.639 371.969C272.397 371.969 273.036 371.808 273.557 371.486C274.087 371.154 274.49 370.671 274.764 370.037C275.039 369.402 275.176 368.621 275.176 367.693V347.409ZM292.889 376.5L284.565 347.409H291.284L296.099 367.622H296.341L301.653 347.409H307.406L312.705 367.665H312.96L317.776 347.409H324.494L316.17 376.5H310.176L304.636 357.48H304.409L298.884 376.5H292.889ZM326.678 352.48V347.409H350.57V352.48H341.664V376.5H335.585V352.48H326.678ZM374.075 376.5H363.763V347.409H374.161C377.087 347.409 379.606 347.991 381.717 349.156C383.829 350.312 385.453 351.973 386.589 354.142C387.735 356.311 388.308 358.905 388.308 361.926C388.308 364.956 387.735 367.561 386.589 369.739C385.453 371.917 383.82 373.588 381.689 374.753C379.568 375.918 377.03 376.5 374.075 376.5ZM369.913 371.23H373.82C375.638 371.23 377.167 370.908 378.408 370.264C379.658 369.611 380.595 368.602 381.22 367.239C381.855 365.866 382.172 364.095 382.172 361.926C382.172 359.777 381.855 358.02 381.22 356.656C380.595 355.293 379.662 354.289 378.422 353.645C377.181 353.001 375.652 352.679 373.834 352.679H369.913V371.23ZM402.694 376.926C400.45 376.926 398.518 376.472 396.898 375.562C395.289 374.644 394.048 373.347 393.177 371.67C392.306 369.985 391.87 367.991 391.87 365.69C391.87 363.446 392.306 361.476 393.177 359.781C394.048 358.086 395.274 356.765 396.856 355.818C398.447 354.871 400.312 354.398 402.452 354.398C403.892 354.398 405.232 354.63 406.472 355.094C407.722 355.548 408.811 356.235 409.739 357.153C410.677 358.072 411.406 359.227 411.927 360.619C412.448 362.002 412.708 363.621 412.708 365.477V367.139H394.285V363.389H407.012C407.012 362.518 406.823 361.746 406.444 361.074C406.065 360.402 405.54 359.876 404.867 359.497C404.204 359.109 403.433 358.915 402.552 358.915C401.633 358.915 400.819 359.128 400.109 359.554C399.408 359.971 398.859 360.534 398.461 361.244C398.063 361.945 397.86 362.726 397.85 363.588V367.153C397.85 368.233 398.049 369.166 398.447 369.952C398.854 370.738 399.427 371.344 400.165 371.77C400.904 372.196 401.78 372.409 402.793 372.409C403.466 372.409 404.081 372.314 404.64 372.125C405.199 371.936 405.677 371.652 406.075 371.273C406.472 370.894 406.775 370.43 406.984 369.881L412.58 370.25C412.296 371.595 411.714 372.769 410.833 373.773C409.962 374.767 408.835 375.544 407.452 376.102C406.079 376.652 404.493 376.926 402.694 376.926ZM426.515 376.926C424.28 376.926 422.358 376.453 420.748 375.506C419.147 374.549 417.916 373.223 417.055 371.528C416.202 369.833 415.776 367.883 415.776 365.676C415.776 363.441 416.207 361.481 417.069 359.795C417.94 358.1 419.176 356.779 420.776 355.832C422.377 354.876 424.28 354.398 426.487 354.398C428.39 354.398 430.057 354.743 431.487 355.435C432.916 356.126 434.048 357.097 434.881 358.347C435.715 359.597 436.174 361.064 436.259 362.75H430.549C430.388 361.661 429.962 360.785 429.271 360.122C428.589 359.45 427.694 359.114 426.586 359.114C425.648 359.114 424.829 359.369 424.129 359.881C423.437 360.383 422.897 361.116 422.509 362.082C422.121 363.048 421.927 364.218 421.927 365.591C421.927 366.983 422.116 368.167 422.495 369.142C422.883 370.117 423.428 370.861 424.129 371.372C424.829 371.884 425.648 372.139 426.586 372.139C427.277 372.139 427.897 371.997 428.447 371.713C429.005 371.429 429.465 371.017 429.825 370.477C430.194 369.928 430.435 369.27 430.549 368.503H436.259C436.165 370.17 435.71 371.637 434.896 372.906C434.091 374.166 432.978 375.151 431.558 375.861C430.137 376.571 428.456 376.926 426.515 376.926ZM449.991 376.926C447.785 376.926 445.877 376.457 444.267 375.52C442.667 374.573 441.431 373.257 440.56 371.571C439.688 369.876 439.253 367.911 439.253 365.676C439.253 363.422 439.688 361.453 440.56 359.767C441.431 358.072 442.667 356.756 444.267 355.818C445.877 354.871 447.785 354.398 449.991 354.398C452.198 354.398 454.101 354.871 455.702 355.818C457.312 356.756 458.552 358.072 459.423 359.767C460.295 361.453 460.73 363.422 460.73 365.676C460.73 367.911 460.295 369.876 459.423 371.571C458.552 373.257 457.312 374.573 455.702 375.52C454.101 376.457 452.198 376.926 449.991 376.926ZM450.02 372.239C451.024 372.239 451.862 371.955 452.534 371.386C453.206 370.809 453.713 370.023 454.054 369.028C454.404 368.034 454.58 366.902 454.58 365.634C454.58 364.365 454.404 363.233 454.054 362.239C453.713 361.244 453.206 360.458 452.534 359.881C451.862 359.303 451.024 359.014 450.02 359.014C449.007 359.014 448.154 359.303 447.463 359.881C446.781 360.458 446.265 361.244 445.915 362.239C445.574 363.233 445.403 364.365 445.403 365.634C445.403 366.902 445.574 368.034 445.915 369.028C446.265 370.023 446.781 370.809 447.463 371.386C448.154 371.955 449.007 372.239 450.02 372.239ZM472.705 376.855C471.047 376.855 469.546 376.429 468.202 375.577C466.866 374.715 465.806 373.451 465.02 371.784C464.243 370.108 463.855 368.053 463.855 365.619C463.855 363.119 464.258 361.041 465.062 359.384C465.867 357.717 466.938 356.472 468.273 355.648C469.617 354.814 471.09 354.398 472.69 354.398C473.912 354.398 474.93 354.606 475.744 355.023C476.568 355.43 477.231 355.941 477.733 356.557C478.244 357.163 478.633 357.759 478.898 358.347H479.082V347.409H485.119V376.5H479.153V373.006H478.898C478.614 373.612 478.211 374.213 477.69 374.81C477.179 375.397 476.511 375.884 475.688 376.273C474.873 376.661 473.879 376.855 472.705 376.855ZM474.622 372.04C475.598 372.04 476.421 371.775 477.094 371.244C477.776 370.705 478.296 369.952 478.656 368.986C479.026 368.02 479.21 366.888 479.21 365.591C479.21 364.294 479.03 363.167 478.67 362.21C478.311 361.254 477.79 360.515 477.108 359.994C476.426 359.473 475.598 359.213 474.622 359.213C473.628 359.213 472.79 359.483 472.108 360.023C471.426 360.562 470.91 361.311 470.56 362.267C470.209 363.223 470.034 364.331 470.034 365.591C470.034 366.86 470.209 367.982 470.56 368.957C470.92 369.923 471.436 370.681 472.108 371.23C472.79 371.77 473.628 372.04 474.622 372.04ZM500.038 376.926C497.793 376.926 495.862 376.472 494.242 375.562C492.632 374.644 491.392 373.347 490.521 371.67C489.649 369.985 489.214 367.991 489.214 365.69C489.214 363.446 489.649 361.476 490.521 359.781C491.392 358.086 492.618 356.765 494.2 355.818C495.79 354.871 497.656 354.398 499.796 354.398C501.236 354.398 502.576 354.63 503.816 355.094C505.066 355.548 506.155 356.235 507.083 357.153C508.021 358.072 508.75 359.227 509.271 360.619C509.791 362.002 510.052 363.621 510.052 365.477V367.139H491.629V363.389H504.356C504.356 362.518 504.166 361.746 503.788 361.074C503.409 360.402 502.883 359.876 502.211 359.497C501.548 359.109 500.776 358.915 499.896 358.915C498.977 358.915 498.163 359.128 497.452 359.554C496.752 359.971 496.202 360.534 495.805 361.244C495.407 361.945 495.203 362.726 495.194 363.588V367.153C495.194 368.233 495.393 369.166 495.79 369.952C496.198 370.738 496.771 371.344 497.509 371.77C498.248 372.196 499.124 372.409 500.137 372.409C500.809 372.409 501.425 372.314 501.984 372.125C502.542 371.936 503.021 371.652 503.418 371.273C503.816 370.894 504.119 370.43 504.327 369.881L509.924 370.25C509.64 371.595 509.058 372.769 508.177 373.773C507.306 374.767 506.179 375.544 504.796 376.102C503.423 376.652 501.837 376.926 500.038 376.926ZM514.001 376.5V354.682H519.867V358.489H520.094C520.492 357.134 521.16 356.112 522.097 355.42C523.035 354.72 524.114 354.369 525.336 354.369C525.639 354.369 525.966 354.388 526.316 354.426C526.666 354.464 526.974 354.516 527.239 354.582V359.952C526.955 359.866 526.562 359.791 526.06 359.724C525.558 359.658 525.099 359.625 524.683 359.625C523.792 359.625 522.997 359.819 522.296 360.207C521.605 360.586 521.056 361.116 520.648 361.798C520.251 362.48 520.052 363.266 520.052 364.156V376.5H514.001Z" fill="#979797"/>
<g filter="url(#filter3_d_93_548)">
<circle cx="586.84" cy="61.3401" r="18.9826" transform="rotate(-31.9442 586.84 61.3401)" stroke="#B6A356"/>
<circle cx="586.84" cy="61.3401" r="14.0294" transform="rotate(-31.9442 586.84 61.3401)" stroke="#FACC15" stroke-width="2"/>
<path d="M459.499 106.776C458.358 108.336 458.698 110.526 460.258 111.667C461.819 112.808 464.009 112.468 465.149 110.908L459.499 106.776ZM565.734 63.7456C567.171 62.4526 567.288 60.2395 565.995 58.8027L544.924 35.3875C543.631 33.9506 541.418 33.834 539.981 35.127C538.544 36.42 538.427 38.633 539.72 40.0699L558.45 60.8834L537.637 79.613C536.2 80.906 536.083 83.119 537.376 84.5559C538.669 85.9927 540.882 86.1094 542.319 84.8164L565.734 63.7456ZM465.149 110.908C479.11 91.8136 491.061 79.7579 505.589 72.68C520.11 65.6058 537.646 63.2919 563.209 64.639L563.577 57.6487C537.514 56.2752 518.593 58.5583 502.523 66.3871C486.461 74.2124 473.69 87.366 459.499 106.776L465.149 110.908Z" fill="#FACC15"/>
<circle cx="496.975" cy="107.715" r="20" transform="rotate(-31.9442 496.975 107.715)" fill="#FACC15"/>
<path d="M496.897 116.986C495.568 116.986 494.389 116.758 493.36 116.304C492.338 115.844 491.531 115.21 490.94 114.403C490.349 113.597 490.048 112.668 490.036 111.616H494.281C494.298 111.997 494.42 112.335 494.647 112.631C494.874 112.92 495.184 113.148 495.576 113.312C495.968 113.477 496.414 113.56 496.914 113.56C497.414 113.56 497.855 113.472 498.235 113.295C498.622 113.114 498.923 112.866 499.139 112.554C499.355 112.236 499.46 111.872 499.454 111.463C499.46 111.054 499.343 110.69 499.105 110.372C498.866 110.054 498.528 109.807 498.09 109.631C497.659 109.454 497.147 109.366 496.556 109.366H494.86V106.366H496.556C497.073 106.366 497.528 106.281 497.92 106.111C498.318 105.94 498.627 105.702 498.849 105.395C499.071 105.082 499.178 104.724 499.173 104.321C499.178 103.929 499.085 103.585 498.892 103.29C498.704 102.989 498.44 102.756 498.099 102.591C497.764 102.426 497.374 102.344 496.931 102.344C496.465 102.344 496.042 102.426 495.661 102.591C495.286 102.756 494.988 102.989 494.767 103.29C494.545 103.591 494.428 103.94 494.417 104.338H490.386C490.397 103.298 490.687 102.383 491.255 101.594C491.823 100.798 492.596 100.176 493.573 99.7272C494.556 99.2783 495.676 99.0539 496.931 99.0539C498.181 99.0539 499.281 99.2726 500.23 99.7101C501.178 100.148 501.917 100.744 502.446 101.5C502.974 102.25 503.238 103.099 503.238 104.048C503.244 105.031 502.923 105.841 502.275 106.477C501.633 107.114 500.806 107.506 499.795 107.653V107.79C501.147 107.949 502.167 108.386 502.855 109.102C503.548 109.818 503.892 110.713 503.886 111.787C503.886 112.798 503.588 113.696 502.991 114.48C502.4 115.258 501.576 115.872 500.519 116.321C499.468 116.764 498.261 116.986 496.897 116.986Z" fill="black"/>
</g>
</g>
<defs>
<filter id="filter0_d_93_548" x="0" y="0" width="728" height="503" filterUnits="userSpaceOnUse" color-interpolation-filters="sRGB">
<feFlood flood-opacity="0" result="BackgroundImageFix"/>
<feColorMatrix in="SourceAlpha" type="matrix" values="0 0 0 0 0 0 0 0 0 0 0 0 0 0 0 0 0 0 127 0" result="hardAlpha"/>
<feOffset dy="4"/>
<feGaussianBlur stdDeviation="2"/>
<feComposite in2="hardAlpha" operator="out"/>
<feColorMatrix type="matrix" values="0 0 0 0 0 0 0 0 0 0 0 0 0 0 0 0 0 0 0.25 0"/>
<feBlend mode="normal" in2="BackgroundImageFix" result="effect1_dropShadow_93_548"/>
<feBlend mode="normal" in="SourceGraphic" in2="effect1_dropShadow_93_548" result="shape"/>
</filter>
<filter id="filter1_i_93_548" x="4" y="42" width="720" height="38" filterUnits="userSpaceOnUse" color-interpolation-filters="sRGB">
<feFlood flood-opacity="0" result="BackgroundImageFix"/>
<feBlend mode="normal" in="SourceGraphic" in2="BackgroundImageFix" result="shape"/>
<feColorMatrix in="SourceAlpha" type="matrix" values="0 0 0 0 0 0 0 0 0 0 0 0 0 0 0 0 0 0 127 0" result="hardAlpha"/>
<feOffset dy="-1"/>
<feComposite in2="hardAlpha" operator="arithmetic" k2="-1" k3="1"/>
<feColorMatrix type="matrix" values="0 0 0 0 0.854902 0 0 0 0 0.862745 0 0 0 0 0.878431 0 0 0 1 0"/>
<feBlend mode="normal" in2="shape" result="effect1_innerShadow_93_548"/>
</filter>
<filter id="filter2_d_93_548" x="0" y="0" width="728" height="50" filterUnits="userSpaceOnUse" color-interpolation-filters="sRGB">
<feFlood flood-opacity="0" result="BackgroundImageFix"/>
<feColorMatrix in="SourceAlpha" type="matrix" values="0 0 0 0 0 0 0 0 0 0 0 0 0 0 0 0 0 0 127 0" result="hardAlpha"/>
<feOffset dy="4"/>
<feGaussianBlur stdDeviation="2"/>
<feColorMatrix type="matrix" values="0 0 0 0 0 0 0 0 0 0 0 0 0 0 0 0 0 0 0.25 0"/>
<feBlend mode="normal" in2="BackgroundImageFix" result="effect1_dropShadow_93_548"/>
<feBlend mode="normal" in="SourceGraphic" in2="effect1_dropShadow_93_548" result="shape"/>
</filter>
<filter id="filter3_d_93_548" x="454.824" y="34.2288" width="155.502" height="101.489" filterUnits="userSpaceOnUse" color-interpolation-filters="sRGB">
<feFlood flood-opacity="0" result="BackgroundImageFix"/>
<feColorMatrix in="SourceAlpha" type="matrix" values="0 0 0 0 0 0 0 0 0 0 0 0 0 0 0 0 0 0 127 0" result="hardAlpha"/>
<feOffset dy="4"/>
<feGaussianBlur stdDeviation="2"/>
<feComposite in2="hardAlpha" operator="out"/>
<feColorMatrix type="matrix" values="0 0 0 0 0 0 0 0 0 0 0 0 0 0 0 0 0 0 0.25 0"/>
<feBlend mode="normal" in2="BackgroundImageFix" result="effect1_dropShadow_93_548"/>
<feBlend mode="normal" in="SourceGraphic" in2="effect1_dropShadow_93_548" result="shape"/>
</filter>
<clipPath id="clip0_93_548">
<rect width="720" height="80" fill="white" transform="translate(4)"/>
</clipPath>
<clipPath id="clip1_93_548">
<rect width="720" height="38" fill="white" transform="translate(4 42)"/>
</clipPath>
<clipPath id="clip2_93_548">
<rect width="145" height="22" fill="white" transform="translate(565 50.5)"/>
</clipPath>
<clipPath id="clip3_93_548">
<rect width="16" height="16" fill="white" transform="translate(579 53.5)"/>
</clipPath>
<clipPath id="clip4_93_548">
<rect width="11.25" height="11.25" fill="white" transform="translate(581.375 55.375)"/>
</clipPath>
<clipPath id="clip5_93_548">
<rect width="427" height="28" fill="white" transform="translate(138 47.5)"/>
</clipPath>
<clipPath id="clip6_93_548">
<rect width="109" height="16" fill="white" transform="translate(16 53)"/>
</clipPath>
<clipPath id="clip7_93_548">
<rect width="720" height="42" fill="white" transform="translate(4)"/>
</clipPath>
<clipPath id="clip8_93_548">
<rect width="11.25" height="11.25" fill="white" transform="translate(94.375 19.375)"/>
</clipPath>
<clipPath id="clip9_93_548">
<rect width="52" height="12" fill="white" transform="translate(17 15.5)"/>
</clipPath>
<clipPath id="clip10_93_548">
<rect width="99" height="99" fill="white" transform="translate(123 311.5)"/>
</clipPath>
<clipPath id="clip11_93_548">
<rect width="67.5" height="67.5" fill="white" transform="translate(138.75 327.75)"/>
</clipPath>
</defs>
</svg>
