<svg width="836" height="585" viewBox="0 0 836 585" fill="none" xmlns="http://www.w3.org/2000/svg">
<g filter="url(#filter0_d_2122_507)">
<rect x="22" y="14" width="792" height="540" rx="8.75556" fill="white"/>
<g clip-path="url(#clip0_2122_507)">
<g clip-path="url(#clip1_2122_507)">
<g filter="url(#filter1_i_2122_507)">
<rect x="22" y="59.9667" width="792" height="41.5889" fill="#35363A"/>
</g>
<g clip-path="url(#clip2_2122_507)">
<g clip-path="url(#clip3_2122_507)">
<rect x="655.306" y="72.0056" width="17.5111" height="17.5111" rx="8.20833" fill="#F6225D"/>
<g clip-path="url(#clip4_2122_507)">
<path d="M663.26 76.8456C664.562 75.5433 666.673 75.5433 667.975 76.8456C669.278 78.1478 669.278 80.2592 667.975 81.5615C667.012 82.5245 665.608 82.7747 664.415 82.3146L664.277 82.2583L664.267 82.2558H663.954V83.0656C663.954 83.3976 663.702 83.6707 663.378 83.7036L663.313 83.7069H662.503V84.5167C662.503 84.8487 662.251 85.1218 661.927 85.1546L661.862 85.1579H659.818C659.551 85.1579 659.331 84.9559 659.303 84.6963L659.3 84.6398V83.3001C659.3 83.1215 659.362 82.9494 659.475 82.8124L659.526 82.756L662.348 79.934L662.352 79.9149C662.354 79.9043 662.354 79.89 662.351 79.8734C662.134 78.8146 662.437 77.6685 663.26 76.8456ZM665.436 78.2966C665.136 78.5971 665.136 79.0844 665.436 79.3849C665.737 79.6854 666.224 79.6854 666.524 79.3849C666.825 79.0844 666.825 78.5971 666.524 78.2966C666.224 77.9961 665.737 77.9961 665.436 78.2966Z" fill="white"/>
</g>
</g>
<path fill-rule="evenodd" clip-rule="evenodd" d="M693.464 74.4507C693.555 74.0029 693.771 73.6009 694.075 73.2835C694.505 72.8331 695.111 72.5528 695.783 72.5528C696.401 72.5528 696.963 72.8561 697.385 73.2835C697.72 73.6241 697.967 74.0434 698.079 74.4507H702.069C702.673 74.4507 703.163 74.9407 703.163 75.5451V79.2337C703.631 79.319 704.05 79.5422 704.379 79.8597C704.825 80.2912 705.102 80.8969 705.102 81.5677C705.102 82.1852 704.802 82.7476 704.379 83.1697C704.025 83.5219 703.586 83.7765 703.163 83.8837V87.875C703.163 88.4794 702.673 88.9694 702.069 88.9694H689.78C689.176 88.9694 688.686 88.4794 688.686 87.875V85.0345V83.9401V81.5677V79.1954V78.1009V75.5451C688.686 74.9407 689.176 74.4507 689.78 74.4507H693.464ZM689.78 87.875V84.8157C690.231 84.6382 690.649 84.3662 690.992 84.0491C691.615 83.4734 692.146 82.6074 692.146 81.5677C692.146 80.0382 691.156 78.737 689.78 78.2778V75.5451L702.069 75.5451V87.875H689.78ZM688.686 80.2898V79.1954C689.081 79.1954 689.453 79.2924 689.78 79.464L689.781 79.464C690.536 79.8601 691.052 80.6535 691.052 81.5677C691.052 82.4285 690.468 83.1821 689.781 83.5979L689.78 83.598C689.421 83.8151 689.034 83.9401 688.686 83.9401V82.8456L688.686 81.5677L688.686 80.2898Z" fill="#D9D9D9"/>
<line x1="719.057" y1="90.0639" x2="719.057" y2="72.5528" stroke="#5F6368" stroke-width="1.64167"/>
<circle cx="742.861" cy="81.3083" r="12.0389" fill="#5A28B9"/>
<path d="M742.592 77.0895L739.243 86.3083H737.874L741.73 76.1933H742.612L742.592 77.0895ZM745.398 86.3083L742.043 77.0895L742.022 76.1933H742.904L746.774 86.3083H745.398ZM745.225 82.5638V83.6615H739.542V82.5638H745.225Z" fill="white"/>
<path fill-rule="evenodd" clip-rule="evenodd" d="M774.782 78.025C775.685 78.025 776.424 77.2863 776.424 76.3833C776.424 75.4804 775.685 74.7417 774.782 74.7417C773.879 74.7417 773.141 75.4804 773.141 76.3833C773.141 77.2863 773.879 78.025 774.782 78.025ZM774.782 79.6667C773.879 79.6667 773.141 80.4054 773.141 81.3083C773.141 82.2113 773.879 82.95 774.782 82.95C775.685 82.95 776.424 82.2113 776.424 81.3083C776.424 80.4054 775.685 79.6667 774.782 79.6667ZM774.782 84.5917C773.879 84.5917 773.141 85.3304 773.141 86.2333C773.141 87.1363 773.879 87.875 774.782 87.875C775.685 87.875 776.424 87.1363 776.424 86.2333C776.424 85.3304 775.685 84.5917 774.782 84.5917Z" fill="#BDC1C6"/>
</g>
<g clip-path="url(#clip5_2122_507)">
<rect x="168.656" y="65.9861" width="471.328" height="30.6444" rx="15.3222" fill="#202124"/>
<path fill-rule="evenodd" clip-rule="evenodd" d="M626.152 78.9444L622.438 78.6222L620.988 75.2078C620.727 74.5863 619.837 74.5863 619.576 75.2078L618.126 78.6298L614.42 78.9444C613.745 78.9981 613.469 79.8421 613.983 80.2872L616.799 82.7271L615.955 86.3486C615.801 87.0085 616.515 87.5302 617.098 87.1773L620.282 85.2591L623.467 87.185C624.05 87.5379 624.763 87.0162 624.61 86.3563L623.766 82.7271L626.582 80.2872C627.096 79.8421 626.827 78.9981 626.152 78.9444ZM620.282 83.8243L617.397 85.566L618.164 82.2821L615.617 80.0723L618.978 79.7807L620.282 76.6886L621.594 79.7884L624.955 80.08L622.407 82.2897L623.175 85.5737L620.282 83.8243Z" fill="#BDC1C6"/>
<path d="M211.843 83.5551C211.843 83.3007 211.803 83.0763 211.723 82.8818C211.648 82.6823 211.513 82.5027 211.319 82.3431C211.129 82.1835 210.865 82.0314 210.526 81.8867C210.192 81.7421 209.768 81.595 209.254 81.4453C208.715 81.2857 208.229 81.1087 207.795 80.9141C207.361 80.7146 206.989 80.4877 206.68 80.2333C206.371 79.9789 206.134 79.6872 205.97 79.358C205.805 79.0288 205.723 78.6522 205.723 78.2283C205.723 77.8043 205.81 77.4128 205.984 77.0537C206.159 76.6945 206.408 76.3828 206.733 76.1185C207.062 75.8491 207.453 75.6396 207.907 75.49C208.361 75.3404 208.867 75.2656 209.426 75.2656C210.244 75.2656 210.937 75.4227 211.506 75.7369C212.079 76.0461 212.516 76.4526 212.815 76.9564C213.114 77.4552 213.264 77.9888 213.264 78.5574H211.828C211.828 78.1485 211.74 77.7868 211.566 77.4726C211.391 77.1534 211.127 76.904 210.773 76.7245C210.419 76.5399 209.97 76.4476 209.426 76.4476C208.912 76.4476 208.488 76.525 208.154 76.6796C207.82 76.8342 207.571 77.0437 207.406 77.308C207.246 77.5724 207.167 77.8741 207.167 78.2133C207.167 78.4427 207.214 78.6522 207.309 78.8417C207.408 79.0263 207.561 79.1984 207.765 79.358C207.975 79.5176 208.239 79.6647 208.558 79.7994C208.882 79.9341 209.269 80.0637 209.718 80.1884C210.336 80.363 210.87 80.5575 211.319 80.772C211.768 80.9865 212.137 81.2284 212.426 81.4977C212.72 81.762 212.937 82.0638 213.077 82.403C213.222 82.7371 213.294 83.1162 213.294 83.5402C213.294 83.9841 213.204 84.3856 213.025 84.7447C212.845 85.1038 212.588 85.4105 212.254 85.6649C211.92 85.9193 211.518 86.1163 211.049 86.256C210.586 86.3906 210.067 86.458 209.493 86.458C208.99 86.458 208.493 86.3881 208.004 86.2485C207.521 86.1088 207.079 85.8993 206.68 85.62C206.286 85.3407 205.97 84.9966 205.73 84.5876C205.496 84.1736 205.378 83.6948 205.378 83.1511H206.815C206.815 83.5252 206.887 83.8469 207.032 84.1162C207.177 84.3806 207.374 84.6 207.623 84.7746C207.877 84.9492 208.164 85.0789 208.483 85.1637C208.808 85.2435 209.144 85.2834 209.493 85.2834C209.997 85.2834 210.424 85.2135 210.773 85.0739C211.122 84.9342 211.386 84.7347 211.566 84.4754C211.75 84.216 211.843 83.9092 211.843 83.5551ZM218.558 86.458C217.994 86.458 217.483 86.3632 217.024 86.1737C216.57 85.9791 216.179 85.7073 215.849 85.3582C215.525 85.009 215.276 84.5951 215.101 84.1162C214.927 83.6374 214.839 83.1137 214.839 82.5451V82.2309C214.839 81.5725 214.937 80.9865 215.131 80.4727C215.326 79.954 215.59 79.5151 215.924 79.156C216.258 78.7969 216.637 78.525 217.061 78.3405C217.485 78.1559 217.924 78.0637 218.378 78.0637C218.957 78.0637 219.456 78.1634 219.875 78.3629C220.298 78.5624 220.645 78.8417 220.914 79.2009C221.184 79.555 221.383 79.974 221.513 80.4578C221.643 80.9366 221.707 81.4603 221.707 82.0289V82.6499H215.662V81.5201H220.323V81.4154C220.303 81.0563 220.229 80.7071 220.099 80.368C219.974 80.0288 219.775 79.7495 219.5 79.53C219.226 79.3106 218.852 79.2009 218.378 79.2009C218.064 79.2009 217.775 79.2682 217.51 79.4029C217.246 79.5325 217.019 79.7271 216.83 79.9864C216.64 80.2458 216.493 80.5625 216.388 80.9366C216.283 81.3107 216.231 81.7421 216.231 82.2309V82.5451C216.231 82.9292 216.283 83.2908 216.388 83.6299C216.498 83.9641 216.655 84.2584 216.859 84.5128C217.069 84.7671 217.321 84.9666 217.615 85.1113C217.914 85.2559 218.254 85.3283 218.633 85.3283C219.121 85.3283 219.535 85.2285 219.875 85.029C220.214 84.8295 220.51 84.5626 220.765 84.2285L221.603 84.8943C221.428 85.1587 221.206 85.4105 220.937 85.65C220.668 85.8894 220.336 86.0839 219.942 86.2335C219.553 86.3831 219.091 86.458 218.558 86.458ZM228.37 84.9242V80.757C228.37 80.4378 228.306 80.161 228.176 79.9266C228.051 79.6872 227.862 79.5026 227.607 79.3729C227.353 79.2433 227.039 79.1784 226.665 79.1784C226.315 79.1784 226.009 79.2383 225.744 79.358C225.485 79.4777 225.28 79.6348 225.131 79.8293C224.986 80.0238 224.914 80.2333 224.914 80.4578H223.53C223.53 80.1685 223.605 79.8817 223.754 79.5974C223.904 79.3131 224.118 79.0562 224.398 78.8268C224.682 78.5924 225.021 78.4078 225.415 78.2731C225.814 78.1335 226.258 78.0637 226.747 78.0637C227.335 78.0637 227.854 78.1634 228.303 78.3629C228.757 78.5624 229.111 78.8642 229.365 79.2682C229.625 79.6672 229.754 80.1685 229.754 80.772V84.5427C229.754 84.812 229.777 85.0988 229.822 85.4031C229.872 85.7073 229.944 85.9692 230.039 86.1886V86.3083H228.595C228.525 86.1487 228.47 85.9368 228.43 85.6724C228.39 85.4031 228.37 85.1537 228.37 84.9242ZM228.61 81.4004L228.625 82.373H227.226C226.832 82.373 226.48 82.4055 226.171 82.4703C225.862 82.5301 225.602 82.6224 225.393 82.7471C225.183 82.8718 225.024 83.0289 224.914 83.2185C224.804 83.403 224.749 83.62 224.749 83.8693C224.749 84.1237 224.807 84.3556 224.921 84.5651C225.036 84.7746 225.208 84.9417 225.438 85.0664C225.672 85.1861 225.959 85.246 226.298 85.246C226.722 85.246 227.096 85.1562 227.42 84.9766C227.744 84.7971 228.001 84.5776 228.191 84.3182C228.385 84.0589 228.49 83.807 228.505 83.5626L229.096 84.2285C229.061 84.4379 228.966 84.6699 228.812 84.9242C228.657 85.1786 228.45 85.423 228.191 85.6574C227.936 85.8869 227.632 86.0789 227.278 86.2335C226.929 86.3831 226.535 86.458 226.096 86.458C225.547 86.458 225.066 86.3507 224.652 86.1363C224.243 85.9218 223.924 85.635 223.694 85.2759C223.47 84.9118 223.358 84.5053 223.358 84.0564C223.358 83.6225 223.443 83.2409 223.612 82.9117C223.782 82.5775 224.026 82.3007 224.345 82.0813C224.664 81.8568 225.049 81.6872 225.497 81.5725C225.946 81.4578 226.448 81.4004 227.001 81.4004H228.61ZM233.589 79.4852V86.3083H232.205V78.2133H233.552L233.589 79.4852ZM236.118 78.1684L236.111 79.4552C235.996 79.4303 235.886 79.4153 235.781 79.4103C235.682 79.4004 235.567 79.3954 235.437 79.3954C235.118 79.3954 234.836 79.4453 234.592 79.545C234.347 79.6448 234.14 79.7844 233.971 79.964C233.801 80.1435 233.667 80.358 233.567 80.6074C233.472 80.8518 233.41 81.1211 233.38 81.4154L232.991 81.6398C232.991 81.1511 233.038 80.6922 233.133 80.2632C233.233 79.8343 233.385 79.4552 233.589 79.126C233.794 78.7919 234.053 78.5325 234.367 78.348C234.687 78.1584 235.066 78.0637 235.505 78.0637C235.604 78.0637 235.719 78.0761 235.849 78.1011C235.978 78.121 236.068 78.1435 236.118 78.1684ZM240.761 85.3208C241.09 85.3208 241.394 85.2534 241.674 85.1188C241.953 84.9841 242.182 84.7996 242.362 84.5651C242.541 84.3257 242.644 84.0539 242.669 83.7496H243.985C243.96 84.2285 243.798 84.6749 243.499 85.0888C243.205 85.4978 242.818 85.8295 242.339 86.0839C241.861 86.3333 241.334 86.458 240.761 86.458C240.152 86.458 239.621 86.3507 239.167 86.1363C238.718 85.9218 238.344 85.6275 238.045 85.2534C237.751 84.8794 237.529 84.4504 237.379 83.9666C237.235 83.4778 237.162 82.9616 237.162 82.4179V82.1037C237.162 81.56 237.235 81.0463 237.379 80.5625C237.529 80.0737 237.751 79.6423 238.045 79.2682C238.344 78.8941 238.718 78.5998 239.167 78.3854C239.621 78.1709 240.152 78.0637 240.761 78.0637C241.394 78.0637 241.948 78.1933 242.422 78.4527C242.896 78.7071 243.267 79.0562 243.537 79.5001C243.811 79.939 243.96 80.4378 243.985 80.9964H242.669C242.644 80.6623 242.549 80.3605 242.384 80.0912C242.225 79.8218 242.005 79.6074 241.726 79.4477C241.452 79.2832 241.13 79.2009 240.761 79.2009C240.337 79.2009 239.98 79.2856 239.691 79.4552C239.407 79.6198 239.18 79.8443 239.01 80.1286C238.846 80.4079 238.726 80.7196 238.651 81.0638C238.581 81.4029 238.546 81.7496 238.546 82.1037V82.4179C238.546 82.7721 238.581 83.1212 238.651 83.4653C238.721 83.8095 238.838 84.1212 239.003 84.4005C239.172 84.6798 239.399 84.9043 239.684 85.0739C239.973 85.2385 240.332 85.3208 240.761 85.3208ZM247.199 74.8167V86.3083H245.815V74.8167H247.199ZM246.87 81.9541L246.294 81.9316C246.299 81.378 246.381 80.8668 246.541 80.3979C246.701 79.9241 246.925 79.5126 247.214 79.1635C247.504 78.8143 247.848 78.545 248.247 78.3554C248.651 78.1609 249.097 78.0637 249.586 78.0637C249.985 78.0637 250.344 78.1185 250.663 78.2283C250.982 78.333 251.254 78.5026 251.479 78.737C251.708 78.9714 251.883 79.2757 252.002 79.6498C252.122 80.0188 252.182 80.4702 252.182 81.0039V86.3083H250.79V80.9889C250.79 80.565 250.728 80.2258 250.603 79.9715C250.479 79.7121 250.297 79.5251 250.057 79.4103C249.818 79.2906 249.524 79.2308 249.174 79.2308C248.83 79.2308 248.516 79.3031 248.232 79.4477C247.952 79.5924 247.711 79.7919 247.506 80.0463C247.307 80.3006 247.149 80.5924 247.035 80.9216C246.925 81.2458 246.87 81.59 246.87 81.9541ZM266.862 80.8842V84.8719C266.727 85.0714 266.513 85.2958 266.218 85.5452C265.924 85.7896 265.518 86.0041 264.999 86.1886C264.485 86.3682 263.822 86.458 263.009 86.458C262.346 86.458 261.735 86.3432 261.176 86.1138C260.622 85.8794 260.141 85.5402 259.732 85.0963C259.328 84.6474 259.014 84.1038 258.789 83.4653C258.57 82.8219 258.46 82.0937 258.46 81.2807V80.4353C258.46 79.6223 258.555 78.8966 258.744 78.2582C258.939 77.6198 259.223 77.0786 259.597 76.6347C259.971 76.1858 260.43 75.8466 260.974 75.6172C261.518 75.3828 262.141 75.2656 262.844 75.2656C263.677 75.2656 264.373 75.4102 264.932 75.6995C265.495 75.9838 265.934 76.3778 266.248 76.8816C266.568 77.3853 266.772 77.9589 266.862 78.6023H265.418C265.353 78.2083 265.223 77.8492 265.029 77.525C264.839 77.2008 264.568 76.9414 264.213 76.7469C263.859 76.5474 263.403 76.4476 262.844 76.4476C262.341 76.4476 261.904 76.5399 261.535 76.7245C261.166 76.909 260.862 77.1734 260.622 77.5175C260.383 77.8617 260.203 78.2781 260.084 78.7669C259.969 79.2557 259.912 79.8069 259.912 80.4204V81.2807C259.912 81.9092 259.984 82.4703 260.128 82.9641C260.278 83.4579 260.49 83.8793 260.764 84.2285C261.039 84.5726 261.365 84.8345 261.744 85.014C262.129 85.1936 262.552 85.2834 263.016 85.2834C263.53 85.2834 263.947 85.241 264.266 85.1562C264.585 85.0664 264.834 84.9617 265.014 84.8419C265.193 84.7173 265.331 84.6 265.425 84.4903V82.0513H262.904V80.8842H266.862ZM268.954 82.3506V82.1785C268.954 81.595 269.038 81.0538 269.208 80.555C269.377 80.0513 269.622 79.6148 269.941 79.2457C270.26 78.8717 270.647 78.5824 271.101 78.3779C271.555 78.1684 272.063 78.0637 272.627 78.0637C273.196 78.0637 273.707 78.1684 274.161 78.3779C274.62 78.5824 275.009 78.8717 275.328 79.2457C275.652 79.6148 275.899 80.0513 276.068 80.555C276.238 81.0538 276.323 81.595 276.323 82.1785V82.3506C276.323 82.9342 276.238 83.4753 276.068 83.9741C275.899 84.4729 275.652 84.9093 275.328 85.2834C275.009 85.6525 274.622 85.9417 274.168 86.1512C273.719 86.3557 273.211 86.458 272.642 86.458C272.073 86.458 271.562 86.3557 271.108 86.1512C270.654 85.9417 270.265 85.6525 269.941 85.2834C269.622 84.9093 269.377 84.4729 269.208 83.9741C269.038 83.4753 268.954 82.9342 268.954 82.3506ZM270.338 82.1785V82.3506C270.338 82.7546 270.385 83.1362 270.48 83.4953C270.575 83.8494 270.717 84.1636 270.906 84.4379C271.101 84.7123 271.343 84.9292 271.632 85.0888C271.921 85.2435 272.258 85.3208 272.642 85.3208C273.021 85.3208 273.353 85.2435 273.637 85.0888C273.926 84.9292 274.166 84.7123 274.355 84.4379C274.545 84.1636 274.687 83.8494 274.782 83.4953C274.881 83.1362 274.931 82.7546 274.931 82.3506V82.1785C274.931 81.7795 274.881 81.4029 274.782 81.0488C274.687 80.6897 274.542 80.373 274.348 80.0986C274.158 79.8193 273.919 79.5999 273.629 79.4403C273.345 79.2807 273.011 79.2009 272.627 79.2009C272.248 79.2009 271.914 79.2807 271.624 79.4403C271.34 79.5999 271.101 79.8193 270.906 80.0986C270.717 80.373 270.575 80.6897 270.48 81.0488C270.385 81.4029 270.338 81.7795 270.338 82.1785ZM277.966 82.3506V82.1785C277.966 81.595 278.05 81.0538 278.22 80.555C278.39 80.0513 278.634 79.6148 278.953 79.2457C279.272 78.8717 279.659 78.5824 280.113 78.3779C280.567 78.1684 281.075 78.0637 281.639 78.0637C282.208 78.0637 282.719 78.1684 283.173 78.3779C283.632 78.5824 284.021 78.8717 284.34 79.2457C284.664 79.6148 284.911 80.0513 285.081 80.555C285.25 81.0538 285.335 81.595 285.335 82.1785V82.3506C285.335 82.9342 285.25 83.4753 285.081 83.9741C284.911 84.4729 284.664 84.9093 284.34 85.2834C284.021 85.6525 283.634 85.9417 283.18 86.1512C282.731 86.3557 282.223 86.458 281.654 86.458C281.085 86.458 280.574 86.3557 280.12 86.1512C279.666 85.9417 279.277 85.6525 278.953 85.2834C278.634 84.9093 278.39 84.4729 278.22 83.9741C278.05 83.4753 277.966 82.9342 277.966 82.3506ZM279.35 82.1785V82.3506C279.35 82.7546 279.397 83.1362 279.492 83.4953C279.587 83.8494 279.729 84.1636 279.918 84.4379C280.113 84.7123 280.355 84.9292 280.644 85.0888C280.933 85.2435 281.27 85.3208 281.654 85.3208C282.033 85.3208 282.365 85.2435 282.649 85.0888C282.938 84.9292 283.178 84.7123 283.367 84.4379C283.557 84.1636 283.699 83.8494 283.794 83.4953C283.893 83.1362 283.943 82.7546 283.943 82.3506V82.1785C283.943 81.7795 283.893 81.4029 283.794 81.0488C283.699 80.6897 283.554 80.373 283.36 80.0986C283.17 79.8193 282.931 79.5999 282.642 79.4403C282.357 79.2807 282.023 79.2009 281.639 79.2009C281.26 79.2009 280.926 79.2807 280.636 79.4403C280.352 79.5999 280.113 79.8193 279.918 80.0986C279.729 80.373 279.587 80.6897 279.492 81.0488C279.397 81.4029 279.35 81.7795 279.35 82.1785ZM292.589 78.2133H293.846V86.1363C293.846 86.8495 293.701 87.458 293.412 87.9618C293.122 88.4655 292.718 88.8471 292.2 89.1064C291.686 89.3708 291.092 89.503 290.419 89.503C290.14 89.503 289.811 89.4581 289.432 89.3683C289.058 89.2835 288.688 89.1364 288.324 88.9269C287.965 88.7224 287.663 88.4456 287.419 88.0964L288.145 87.2735C288.484 87.6824 288.838 87.9667 289.207 88.1264C289.581 88.286 289.95 88.3658 290.314 88.3658C290.753 88.3658 291.132 88.2835 291.452 88.1189C291.771 87.9543 292.018 87.7099 292.192 87.3857C292.372 87.0665 292.462 86.6724 292.462 86.2036V79.9939L292.589 78.2133ZM287.015 82.3506V82.1935C287.015 81.575 287.087 81.0139 287.232 80.5101C287.382 80.0014 287.594 79.565 287.868 79.2009C288.147 78.8368 288.484 78.5574 288.878 78.3629C289.272 78.1634 289.716 78.0637 290.21 78.0637C290.718 78.0637 291.162 78.1534 291.541 78.333C291.925 78.5076 292.25 78.7644 292.514 79.1036C292.783 79.4378 292.995 79.8418 293.15 80.3156C293.305 80.7894 293.412 81.3256 293.472 81.9241V82.6124C293.417 83.206 293.31 83.7397 293.15 84.2135C292.995 84.6873 292.783 85.0913 292.514 85.4255C292.25 85.7597 291.925 86.0166 291.541 86.1961C291.157 86.3707 290.708 86.458 290.195 86.458C289.711 86.458 289.272 86.3557 288.878 86.1512C288.489 85.9467 288.155 85.6599 287.875 85.2908C287.596 84.9218 287.382 84.4878 287.232 83.9891C287.087 83.4853 287.015 82.9391 287.015 82.3506ZM288.399 82.1935V82.3506C288.399 82.7546 288.439 83.1337 288.519 83.4878C288.604 83.8419 288.731 84.1536 288.9 84.423C289.075 84.6923 289.297 84.9043 289.566 85.0589C289.836 85.2085 290.157 85.2834 290.531 85.2834C290.99 85.2834 291.369 85.1861 291.669 84.9916C291.968 84.7971 292.205 84.5402 292.379 84.221C292.559 83.9018 292.699 83.5551 292.798 83.181V81.378C292.743 81.1037 292.659 80.8393 292.544 80.5849C292.434 80.3256 292.29 80.0962 292.11 79.8966C291.935 79.6921 291.718 79.53 291.459 79.4103C291.2 79.2906 290.895 79.2308 290.546 79.2308C290.167 79.2308 289.841 79.3106 289.566 79.4702C289.297 79.6248 289.075 79.8393 288.9 80.1136C288.731 80.3829 288.604 80.6972 288.519 81.0563C288.439 81.4104 288.399 81.7895 288.399 82.1935ZM297.725 74.8167V86.3083H296.334V74.8167H297.725ZM303.58 86.458C303.017 86.458 302.505 86.3632 302.047 86.1737C301.593 85.9791 301.201 85.7073 300.872 85.3582C300.548 85.009 300.298 84.5951 300.124 84.1162C299.949 83.6374 299.862 83.1137 299.862 82.5451V82.2309C299.862 81.5725 299.959 80.9865 300.154 80.4727C300.348 79.954 300.613 79.5151 300.947 79.156C301.281 78.7969 301.66 78.525 302.084 78.3405C302.508 78.1559 302.947 78.0637 303.401 78.0637C303.979 78.0637 304.478 78.1634 304.897 78.3629C305.321 78.5624 305.668 78.8417 305.937 79.2009C306.206 79.555 306.406 79.974 306.535 80.4578C306.665 80.9366 306.73 81.4603 306.73 82.0289V82.6499H300.685V81.5201H305.346V81.4154C305.326 81.0563 305.251 80.7071 305.121 80.368C304.997 80.0288 304.797 79.7495 304.523 79.53C304.249 79.3106 303.875 79.2009 303.401 79.2009C303.086 79.2009 302.797 79.2682 302.533 79.4029C302.269 79.5325 302.042 79.7271 301.852 79.9864C301.662 80.2458 301.515 80.5625 301.411 80.9366C301.306 81.3107 301.254 81.7421 301.254 82.2309V82.5451C301.254 82.9292 301.306 83.2908 301.411 83.6299C301.52 83.9641 301.677 84.2584 301.882 84.5128C302.091 84.7671 302.343 84.9666 302.638 85.1113C302.937 85.2559 303.276 85.3283 303.655 85.3283C304.144 85.3283 304.558 85.2285 304.897 85.029C305.236 84.8295 305.533 84.5626 305.787 84.2285L306.625 84.8943C306.451 85.1587 306.229 85.4105 305.959 85.65C305.69 85.8894 305.358 86.0839 304.964 86.2335C304.575 86.3831 304.114 86.458 303.58 86.458ZM312.327 82.3506V82.1785C312.327 81.595 312.412 81.0538 312.582 80.555C312.751 80.0513 312.996 79.6148 313.315 79.2457C313.634 78.8717 314.021 78.5824 314.474 78.3779C314.928 78.1684 315.437 78.0637 316.001 78.0637C316.569 78.0637 317.081 78.1684 317.534 78.3779C317.993 78.5824 318.382 78.8717 318.702 79.2457C319.026 79.6148 319.273 80.0513 319.442 80.555C319.612 81.0538 319.697 81.595 319.697 82.1785V82.3506C319.697 82.9342 319.612 83.4753 319.442 83.9741C319.273 84.4729 319.026 84.9093 318.702 85.2834C318.382 85.6525 317.996 85.9417 317.542 86.1512C317.093 86.3557 316.584 86.458 316.016 86.458C315.447 86.458 314.936 86.3557 314.482 86.1512C314.028 85.9417 313.639 85.6525 313.315 85.2834C312.996 84.9093 312.751 84.4729 312.582 83.9741C312.412 83.4753 312.327 82.9342 312.327 82.3506ZM313.711 82.1785V82.3506C313.711 82.7546 313.759 83.1362 313.854 83.4953C313.948 83.8494 314.09 84.1636 314.28 84.4379C314.474 84.7123 314.716 84.9292 315.006 85.0888C315.295 85.2435 315.632 85.3208 316.016 85.3208C316.395 85.3208 316.726 85.2435 317.011 85.0888C317.3 84.9292 317.539 84.7123 317.729 84.4379C317.918 84.1636 318.061 83.8494 318.155 83.4953C318.255 83.1362 318.305 82.7546 318.305 82.3506V82.1785C318.305 81.7795 318.255 81.4029 318.155 81.0488C318.061 80.6897 317.916 80.373 317.721 80.0986C317.532 79.8193 317.293 79.5999 317.003 79.4403C316.719 79.2807 316.385 79.2009 316.001 79.2009C315.622 79.2009 315.287 79.2807 314.998 79.4403C314.714 79.5999 314.474 79.8193 314.28 80.0986C314.09 80.373 313.948 80.6897 313.854 81.0488C313.759 81.4029 313.711 81.7795 313.711 82.1785ZM323.09 79.4852V86.3083H321.706V78.2133H323.053L323.09 79.4852ZM325.619 78.1684L325.611 79.4552C325.497 79.4303 325.387 79.4153 325.282 79.4103C325.182 79.4004 325.068 79.3954 324.938 79.3954C324.619 79.3954 324.337 79.4453 324.093 79.545C323.848 79.6448 323.641 79.7844 323.472 79.964C323.302 80.1435 323.167 80.358 323.068 80.6074C322.973 80.8518 322.91 81.1211 322.881 81.4154L322.492 81.6398C322.492 81.1511 322.539 80.6922 322.634 80.2632C322.733 79.8343 322.886 79.4552 323.09 79.126C323.295 78.7919 323.554 78.5325 323.868 78.348C324.187 78.1584 324.566 78.0637 325.005 78.0637C325.105 78.0637 325.22 78.0761 325.349 78.1011C325.479 78.121 325.569 78.1435 325.619 78.1684ZM334.635 78.2133V79.2757H330.258V78.2133H334.635ZM331.74 76.2456H333.124V84.3033C333.124 84.5776 333.166 84.7846 333.251 84.9242C333.336 85.0639 333.446 85.1562 333.58 85.2011C333.715 85.246 333.86 85.2684 334.014 85.2684C334.129 85.2684 334.249 85.2584 334.373 85.2385C334.503 85.2135 334.6 85.1936 334.665 85.1786L334.673 86.3083C334.563 86.3432 334.418 86.3757 334.239 86.4056C334.064 86.4405 333.852 86.458 333.603 86.458C333.264 86.458 332.952 86.3906 332.667 86.256C332.383 86.1213 332.156 85.8968 331.987 85.5826C331.822 85.2634 331.74 84.8345 331.74 84.2958V76.2456ZM338.807 85.4704L341.059 78.2133H342.54L339.293 87.5578C339.218 87.7573 339.118 87.9717 338.994 88.2012C338.874 88.4356 338.719 88.6575 338.53 88.867C338.34 89.0765 338.111 89.2461 337.842 89.3758C337.577 89.5104 337.26 89.5778 336.891 89.5778C336.782 89.5778 336.642 89.5628 336.472 89.5329C336.303 89.503 336.183 89.478 336.113 89.4581L336.106 88.3358C336.146 88.3408 336.208 88.3458 336.293 88.3508C336.383 88.3608 336.445 88.3658 336.48 88.3658C336.794 88.3658 337.061 88.3234 337.28 88.2386C337.5 88.1588 337.684 88.0216 337.834 87.8271C337.989 87.6376 338.121 87.3757 338.231 87.0415L338.807 85.4704ZM337.153 78.2133L339.256 84.4978L339.615 85.9567L338.62 86.4654L335.642 78.2133H337.153ZM345.447 79.7695V89.4207H344.055V78.2133H345.327L345.447 79.7695ZM350.901 82.1935V82.3506C350.901 82.9391 350.831 83.4853 350.692 83.9891C350.552 84.4878 350.347 84.9218 350.078 85.2908C349.814 85.6599 349.487 85.9467 349.098 86.1512C348.709 86.3557 348.263 86.458 347.759 86.458C347.245 86.458 346.791 86.3732 346.397 86.2036C346.003 86.034 345.669 85.7871 345.395 85.4629C345.12 85.1387 344.901 84.7497 344.736 84.2958C344.577 83.8419 344.467 83.3307 344.407 82.7621V81.9241C344.467 81.3256 344.579 80.7894 344.744 80.3156C344.908 79.8418 345.125 79.4378 345.395 79.1036C345.669 78.7644 346.001 78.5076 346.39 78.333C346.779 78.1534 347.228 78.0637 347.736 78.0637C348.245 78.0637 348.697 78.1634 349.091 78.3629C349.485 78.5574 349.816 78.8368 350.086 79.2009C350.355 79.565 350.557 80.0014 350.692 80.5101C350.831 81.0139 350.901 81.575 350.901 82.1935ZM349.51 82.3506V82.1935C349.51 81.7895 349.467 81.4104 349.382 81.0563C349.298 80.6972 349.165 80.3829 348.986 80.1136C348.811 79.8393 348.587 79.6248 348.312 79.4702C348.038 79.3106 347.711 79.2308 347.332 79.2308C346.983 79.2308 346.679 79.2906 346.42 79.4103C346.165 79.53 345.948 79.6921 345.769 79.8966C345.589 80.0962 345.442 80.3256 345.327 80.5849C345.218 80.8393 345.135 81.1037 345.08 81.378V83.3157C345.18 83.6649 345.32 83.994 345.499 84.3033C345.679 84.6075 345.918 84.8544 346.218 85.044C346.517 85.2285 346.893 85.3208 347.347 85.3208C347.721 85.3208 348.043 85.2435 348.312 85.0888C348.587 84.9292 348.811 84.7123 348.986 84.4379C349.165 84.1636 349.298 83.8494 349.382 83.4953C349.467 83.1362 349.51 82.7546 349.51 82.3506ZM356.3 86.458C355.736 86.458 355.225 86.3632 354.766 86.1737C354.312 85.9791 353.92 85.7073 353.591 85.3582C353.267 85.009 353.018 84.5951 352.843 84.1162C352.669 83.6374 352.581 83.1137 352.581 82.5451V82.2309C352.581 81.5725 352.678 80.9865 352.873 80.4727C353.068 79.954 353.332 79.5151 353.666 79.156C354 78.7969 354.379 78.525 354.803 78.3405C355.227 78.1559 355.666 78.0637 356.12 78.0637C356.699 78.0637 357.197 78.1634 357.616 78.3629C358.04 78.5624 358.387 78.8417 358.656 79.2009C358.926 79.555 359.125 79.974 359.255 80.4578C359.384 80.9366 359.449 81.4603 359.449 82.0289V82.6499H353.404V81.5201H358.065V81.4154C358.045 81.0563 357.97 80.7071 357.841 80.368C357.716 80.0288 357.517 79.7495 357.242 79.53C356.968 79.3106 356.594 79.2009 356.12 79.2009C355.806 79.2009 355.516 79.2682 355.252 79.4029C354.988 79.5325 354.761 79.7271 354.571 79.9864C354.382 80.2458 354.235 80.5625 354.13 80.9366C354.025 81.3107 353.973 81.7421 353.973 82.2309V82.5451C353.973 82.9292 354.025 83.2908 354.13 83.6299C354.24 83.9641 354.397 84.2584 354.601 84.5128C354.811 84.7671 355.063 84.9666 355.357 85.1113C355.656 85.2559 355.995 85.3283 356.374 85.3283C356.863 85.3283 357.277 85.2285 357.616 85.029C357.955 84.8295 358.252 84.5626 358.507 84.2285L359.345 84.8943C359.17 85.1587 358.948 85.4105 358.679 85.65C358.409 85.8894 358.078 86.0839 357.684 86.2335C357.295 86.3831 356.833 86.458 356.3 86.458ZM371.855 75.4152H373.291V82.7845C373.291 83.6025 373.109 84.2833 372.745 84.827C372.381 85.3706 371.897 85.7796 371.294 86.054C370.695 86.3233 370.044 86.458 369.341 86.458C368.603 86.458 367.934 86.3233 367.336 86.054C366.742 85.7796 366.271 85.3706 365.922 84.827C365.578 84.2833 365.406 83.6025 365.406 82.7845V75.4152H366.835V82.7845C366.835 83.3531 366.939 83.822 367.149 84.1911C367.358 84.5601 367.65 84.8345 368.024 85.014C368.403 85.1936 368.842 85.2834 369.341 85.2834C369.845 85.2834 370.284 85.1936 370.658 85.014C371.037 84.8345 371.331 84.5601 371.541 84.1911C371.75 83.822 371.855 83.3531 371.855 82.7845V75.4152ZM375.832 75.4152H379.438C380.256 75.4152 380.947 75.5399 381.51 75.7893C382.079 76.0387 382.51 76.4077 382.805 76.8965C383.104 77.3803 383.253 77.9764 383.253 78.6846C383.253 79.1834 383.151 79.6398 382.947 80.0538C382.747 80.4627 382.458 80.8119 382.079 81.1012C381.705 81.3855 381.256 81.5974 380.732 81.7371L380.328 81.8942H376.939L376.924 80.7196H379.483C380.001 80.7196 380.433 80.6298 380.777 80.4503C381.121 80.2657 381.381 80.0188 381.555 79.7096C381.73 79.4004 381.817 79.0587 381.817 78.6846C381.817 78.2657 381.735 77.8991 381.57 77.5848C381.406 77.2706 381.146 77.0287 380.792 76.8591C380.443 76.6846 379.992 76.5973 379.438 76.5973H377.276V86.3083H375.832V75.4152ZM382.199 86.3083L379.55 81.3705L381.054 81.363L383.74 86.2186V86.3083H382.199ZM392.153 85.1337V86.3083H386.707V85.1337H392.153ZM386.991 75.4152V86.3083H385.547V75.4152H386.991Z" fill="#EAEAEA"/>
<path d="M188.499 86.0286C189.994 84.6517 190.659 82.357 190.26 80.1606H184.314V82.5865H187.702C187.569 83.3732 187.104 84.0289 186.44 84.455L188.499 86.0286Z" fill="#EAEAEA"/>
<path d="M178.667 84.0944C178.721 84.2002 178.778 84.3043 178.839 84.4069C178.899 84.5095 178.962 84.6103 179.028 84.7093C179.095 84.8083 179.164 84.9055 179.235 85.0006C179.307 85.0958 179.381 85.1889 179.458 85.28C179.535 85.371 179.615 85.4598 179.697 85.5464C179.779 85.633 179.864 85.7173 179.951 85.7992C180.038 85.881 180.127 85.9604 180.218 86.0373C180.31 86.1142 180.404 86.1885 180.499 86.2602C180.595 86.3319 180.693 86.4008 180.793 86.467C180.892 86.5333 180.994 86.5966 181.097 86.6572C181.2 86.7178 181.305 86.7754 181.412 86.8301C181.519 86.8848 181.627 86.9365 181.737 86.9852C181.846 87.0338 181.957 87.0794 182.069 87.1219C182.181 87.1644 182.295 87.2037 182.409 87.2399C182.524 87.276 182.639 87.309 182.756 87.3387C182.872 87.3684 182.989 87.3949 183.107 87.4181C183.225 87.4412 183.343 87.4611 183.462 87.4777C183.581 87.4943 183.701 87.5075 183.82 87.5174C183.94 87.5273 184.06 87.5339 184.18 87.5371C184.3 87.5404 184.42 87.5402 184.541 87.5368C184.661 87.5333 184.781 87.5265 184.9 87.5163C185.02 87.5061 185.14 87.4926 185.259 87.4758C185.378 87.459 185.496 87.4388 185.614 87.4154C185.732 87.3919 185.849 87.3653 185.965 87.3353C186.081 87.3053 186.197 87.2721 186.311 87.2358C186.425 87.1994 186.539 87.1598 186.651 87.1171C186.763 87.0743 186.874 87.0285 186.983 86.9796C187.093 86.9307 187.201 86.8788 187.307 86.8239C187.414 86.769 187.519 86.7111 187.622 86.6503C187.725 86.5895 187.826 86.5259 187.926 86.4595C188.026 86.3931 188.123 86.3239 188.219 86.252C188.314 86.1802 188.408 86.1056 188.499 86.0286L186.44 84.455C184.679 85.6024 181.756 85.1762 180.759 82.4881L178.667 84.0944Z" fill="#EAEAEA"/>
<path d="M180.76 82.4881C180.494 81.6685 180.494 80.9146 180.76 80.095L178.667 78.4887C177.903 79.9967 177.67 82.1275 178.667 84.0944L180.76 82.4881Z" fill="#EAEAEA"/>
<path d="M180.759 80.095C181.49 77.8331 184.613 76.5218 186.705 78.4559L188.532 76.6857C185.941 74.2271 180.892 74.3254 178.667 78.4887L180.759 80.095Z" fill="#EAEAEA"/>
</g>
<g clip-path="url(#clip6_2122_507)">
<path fill-rule="evenodd" clip-rule="evenodd" d="M145.672 74.2029C145.473 74.1755 145.262 74.2332 145.101 74.3792L139.337 79.596C139.048 79.8572 139.025 80.3024 139.284 80.5923C139.546 80.8842 139.995 80.9078 140.286 80.6447L140.719 80.2529V85.9101V86.2333C140.719 86.8378 141.209 87.3278 141.813 87.3278H142.129H149.181H149.498C150.102 87.3278 150.592 86.8378 150.592 86.2333V85.9101V80.2222L151.059 80.6447C151.35 80.9078 151.799 80.8842 152.06 80.5923C152.32 80.3024 152.297 79.8572 152.008 79.596L146.244 74.3792C146.082 74.2332 145.872 74.1755 145.672 74.2029ZM142.129 78.9766V79.9162V80.9644V81.0106V83.7212V85.1389V85.1851V85.9101H142.859H142.908H144.318H146.992H148.403H148.452H149.181V85.1853V85.1389V83.7212V81.0106V80.9642V79.9162V78.9455L149.045 78.8217L145.672 75.7699L142.129 78.9766Z" fill="white"/>
<path fill-rule="evenodd" clip-rule="evenodd" d="M118.309 78.9347V75.075C118.309 74.7466 117.915 74.5861 117.689 74.8196L116.39 76.1183C115.069 74.7977 113.187 74.0389 111.129 74.2213C108.072 74.4986 105.555 76.9574 105.219 80.0146C104.781 83.9692 107.868 87.3255 111.742 87.3255C115.091 87.3255 117.856 84.8155 118.258 81.576C118.309 81.1382 117.966 80.7588 117.528 80.7588C117.163 80.7588 116.857 81.0288 116.813 81.3863C116.499 83.9327 114.303 85.9027 111.669 85.8662C108.962 85.8297 106.678 83.546 106.635 80.8318C106.591 77.9862 108.904 75.6514 111.742 75.6514C113.15 75.6514 114.427 76.2278 115.354 77.1471L113.829 78.6721C113.595 78.9055 113.756 79.2995 114.084 79.2995H117.944C118.148 79.2995 118.309 79.139 118.309 78.9347Z" fill="white"/>
<path fill-rule="evenodd" clip-rule="evenodd" d="M72.0928 81.4364H81.5072L77.3942 85.5494C77.0655 85.8781 77.0655 86.4175 77.3942 86.7462C77.7229 87.0749 78.2539 87.0749 78.5826 86.7462L84.1368 81.192C84.4655 80.8633 84.4655 80.3323 84.1368 80.0036L78.591 74.441C78.2623 74.1123 77.7313 74.1123 77.4026 74.441C77.0739 74.7697 77.0739 75.3007 77.4026 75.6294L81.5072 79.7508H72.0928C71.6293 79.7508 71.25 80.13 71.25 80.5936C71.25 81.0572 71.6293 81.4364 72.0928 81.4364Z" fill="#86888A"/>
<path fill-rule="evenodd" clip-rule="evenodd" d="M49.6128 79.7508H40.1984L44.3114 75.6378C44.6401 75.3091 44.6401 74.7697 44.3114 74.441C43.9827 74.1123 43.4517 74.1123 43.123 74.441L37.5688 79.9952C37.2401 80.3239 37.2401 80.8549 37.5688 81.1836L43.123 86.7378C43.4517 87.0665 43.9827 87.0665 44.3114 86.7378C44.6401 86.4091 44.6401 85.8781 44.3114 85.5494L40.1984 81.4364H49.6128C50.0763 81.4364 50.4556 81.0572 50.4556 80.5936C50.4556 80.13 50.0763 79.7508 49.6128 79.7508Z" fill="white"/>
</g>
</g>
<g clip-path="url(#clip7_2122_507)">
<g filter="url(#filter2_d_2122_507)">
<path d="M22 22.7556C22 17.92 25.92 14 30.7556 14H805.244C810.08 14 814 17.92 814 22.7556V59.9667H22V22.7556Z" fill="#202124"/>
</g>
<path fill-rule="evenodd" clip-rule="evenodd" d="M102.989 58.2667C104.504 57.2366 108.04 56.7216 109.555 49.5111C109.555 49.5111 109.555 58.2667 109.555 58.2667H102.989Z" fill="#35363A"/>
<path d="M109.556 31.5111C109.556 26.6756 113.476 22.7556 118.311 22.7556H250.522C255.358 22.7556 259.278 26.6756 259.278 31.5111V58.2667H109.556V31.5111Z" fill="#35363A"/>
<rect x="118.311" y="31.7556" width="17.5111" height="17.5111" rx="8.20833" fill="#F6225D"/>
<g clip-path="url(#clip8_2122_507)">
<path d="M126.265 36.5956C127.567 35.2933 129.679 35.2933 130.981 36.5956C132.283 37.8978 132.283 40.0092 130.981 41.3115C130.018 42.2745 128.613 42.5247 127.421 42.0646L127.283 42.0083L127.272 42.0058H126.959V42.8156C126.959 43.1476 126.707 43.4207 126.384 43.4535L126.318 43.4569H125.508V44.2667C125.508 44.5987 125.256 44.8718 124.933 44.9046L124.867 44.9079H122.824C122.557 44.9079 122.337 44.7059 122.309 44.4463L122.306 44.3898V43.0501C122.306 42.8715 122.368 42.6994 122.48 42.5624L122.531 42.506L125.353 39.684L125.358 39.6649C125.359 39.6543 125.359 39.64 125.356 39.6234C125.14 38.5646 125.442 37.4185 126.265 36.5956ZM128.441 38.0466C128.141 38.3471 128.141 38.8344 128.441 39.1349C128.742 39.4354 129.229 39.4354 129.53 39.1349C129.83 38.8344 129.83 38.3471 129.53 38.0466C129.229 37.7461 128.742 37.7461 128.441 38.0466Z" fill="white"/>
</g>
<path d="M149.283 45.0111H147.333L147.346 44.0043H149.283C149.95 44.0043 150.505 43.8654 150.95 43.5875C151.395 43.3053 151.728 42.912 151.95 42.4075C152.177 41.8988 152.29 41.3045 152.29 40.6248V40.054C152.29 39.5196 152.226 39.0451 152.098 38.6304C151.97 38.2114 151.782 37.8587 151.534 37.5723C151.286 37.2816 150.982 37.0614 150.623 36.9118C150.268 36.7622 149.86 36.6873 149.398 36.6873H147.295V35.6741H149.398C150.01 35.6741 150.567 35.7767 151.072 35.9819C151.576 36.1829 152.01 36.4757 152.374 36.8605C152.741 37.241 153.024 37.7027 153.22 38.2456C153.417 38.7843 153.515 39.3914 153.515 40.0669V40.6248C153.515 41.3003 153.417 41.9095 153.22 42.4524C153.024 42.9911 152.739 43.4507 152.367 43.8312C152 44.2117 151.555 44.5045 151.033 44.7097C150.516 44.9106 149.933 45.0111 149.283 45.0111ZM147.994 35.6741V45.0111H146.756V35.6741H147.994ZM158.294 45.1394C157.81 45.1394 157.372 45.0581 156.979 44.8957C156.59 44.7289 156.254 44.496 155.972 44.1967C155.694 43.8974 155.48 43.5426 155.331 43.1322C155.181 42.7218 155.106 42.2729 155.106 41.7855V41.5162C155.106 40.9518 155.19 40.4495 155.356 40.0092C155.523 39.5645 155.75 39.1883 156.036 38.8805C156.323 38.5727 156.648 38.3397 157.011 38.1815C157.374 38.0233 157.751 37.9442 158.14 37.9442C158.636 37.9442 159.063 38.0298 159.422 38.2008C159.786 38.3718 160.083 38.6112 160.314 38.919C160.544 39.2225 160.715 39.5816 160.827 39.9963C160.938 40.4067 160.993 40.8556 160.993 41.343V41.8753H155.812V40.9069H159.807V40.8172C159.79 40.5094 159.726 40.2101 159.615 39.9194C159.508 39.6287 159.337 39.3893 159.102 39.2011C158.866 39.013 158.546 38.919 158.14 38.919C157.87 38.919 157.622 38.9767 157.396 39.0921C157.169 39.2033 156.975 39.37 156.812 39.5923C156.65 39.8146 156.524 40.0861 156.434 40.4067C156.344 40.7274 156.299 41.0972 156.299 41.5162V41.7855C156.299 42.1147 156.344 42.4246 156.434 42.7153C156.528 43.0018 156.663 43.254 156.838 43.472C157.017 43.6901 157.233 43.8611 157.486 43.9851C157.742 44.109 158.033 44.171 158.358 44.171C158.777 44.171 159.131 44.0855 159.422 43.9145C159.713 43.7435 159.967 43.5148 160.185 43.2284L160.904 43.7991C160.754 44.0257 160.564 44.2416 160.333 44.4468C160.102 44.652 159.818 44.8187 159.48 44.947C159.146 45.0752 158.751 45.1394 158.294 45.1394ZM165.374 44.1646C165.656 44.1646 165.917 44.1069 166.156 43.9915C166.396 43.8761 166.592 43.7179 166.746 43.5169C166.9 43.3117 166.988 43.0787 167.009 42.8179H168.138C168.117 43.2284 167.978 43.611 167.721 43.9658C167.469 44.3164 167.138 44.6007 166.727 44.8187C166.317 45.0325 165.866 45.1394 165.374 45.1394C164.853 45.1394 164.397 45.0474 164.008 44.8636C163.623 44.6798 163.303 44.4275 163.046 44.1069C162.794 43.7863 162.604 43.4186 162.476 43.0039C162.352 42.5849 162.29 42.1425 162.29 41.6765V41.4071C162.29 40.9411 162.352 40.5008 162.476 40.0861C162.604 39.6671 162.794 39.2973 163.046 38.9767C163.303 38.6561 163.623 38.4038 164.008 38.22C164.397 38.0362 164.853 37.9442 165.374 37.9442C165.917 37.9442 166.392 38.0554 166.798 38.2777C167.204 38.4957 167.522 38.795 167.753 39.1755C167.988 39.5517 168.117 39.9792 168.138 40.4581H167.009C166.988 40.1716 166.907 39.913 166.766 39.6821C166.629 39.4512 166.441 39.2674 166.201 39.1306C165.966 38.9895 165.69 38.919 165.374 38.919C165.011 38.919 164.705 38.9917 164.457 39.137C164.213 39.2781 164.019 39.4705 163.873 39.7142C163.732 39.9536 163.63 40.2208 163.566 40.5158C163.506 40.8065 163.476 41.1036 163.476 41.4071V41.6765C163.476 41.98 163.506 42.2793 163.566 42.5743C163.626 42.8692 163.726 43.1364 163.867 43.3759C164.012 43.6153 164.207 43.8076 164.451 43.953C164.699 44.0941 165.006 44.1646 165.374 44.1646ZM169.376 41.6188V41.4713C169.376 40.9711 169.449 40.5072 169.595 40.0797C169.74 39.6479 169.949 39.2738 170.223 38.9575C170.497 38.6368 170.828 38.3889 171.217 38.2136C171.606 38.034 172.042 37.9442 172.525 37.9442C173.013 37.9442 173.451 38.034 173.84 38.2136C174.233 38.3889 174.567 38.6368 174.84 38.9575C175.118 39.2738 175.33 39.6479 175.475 40.0797C175.62 40.5072 175.693 40.9711 175.693 41.4713V41.6188C175.693 42.119 175.62 42.5828 175.475 43.0103C175.33 43.4378 175.118 43.8119 174.84 44.1326C174.567 44.4489 174.235 44.6969 173.846 44.8764C173.461 45.0517 173.025 45.1394 172.538 45.1394C172.051 45.1394 171.612 45.0517 171.223 44.8764C170.834 44.6969 170.501 44.4489 170.223 44.1326C169.949 43.8119 169.74 43.4378 169.595 43.0103C169.449 42.5828 169.376 42.119 169.376 41.6188ZM170.563 41.4713V41.6188C170.563 41.965 170.603 42.2921 170.685 42.5999C170.766 42.9034 170.888 43.1728 171.05 43.4079C171.217 43.6431 171.424 43.829 171.672 43.9658C171.92 44.0984 172.209 44.1646 172.538 44.1646C172.863 44.1646 173.147 44.0984 173.391 43.9658C173.639 43.829 173.844 43.6431 174.007 43.4079C174.169 43.1728 174.291 42.9034 174.372 42.5999C174.458 42.2921 174.5 41.965 174.5 41.6188V41.4713C174.5 41.1293 174.458 40.8065 174.372 40.5029C174.291 40.1951 174.167 39.9237 174 39.6885C173.838 39.4491 173.632 39.261 173.384 39.1242C173.141 38.9874 172.854 38.919 172.525 38.919C172.2 38.919 171.914 38.9874 171.666 39.1242C171.422 39.261 171.217 39.4491 171.05 39.6885C170.888 39.9237 170.766 40.1951 170.685 40.5029C170.603 40.8065 170.563 41.1293 170.563 41.4713ZM181.773 43.6644V35.1611H182.966V45.0111H181.876L181.773 43.6644ZM177.105 41.6188V41.4841C177.105 40.954 177.169 40.473 177.297 40.0412C177.43 39.6052 177.616 39.2311 177.855 38.919C178.099 38.6069 178.387 38.3675 178.721 38.2008C179.058 38.0298 179.435 37.9442 179.849 37.9442C180.285 37.9442 180.666 38.0212 180.991 38.1751C181.32 38.3247 181.598 38.5449 181.825 38.8356C182.055 39.1221 182.237 39.4683 182.37 39.8745C182.502 40.2806 182.594 40.7402 182.645 41.2532V41.8432C182.598 42.352 182.506 42.8094 182.37 43.2155C182.237 43.6217 182.055 43.968 181.825 44.2544C181.598 44.5408 181.32 44.761 180.991 44.9149C180.662 45.0645 180.277 45.1394 179.837 45.1394C179.43 45.1394 179.058 45.0517 178.721 44.8764C178.387 44.7012 178.099 44.4553 177.855 44.139C177.616 43.8226 177.43 43.4507 177.297 43.0232C177.169 42.5914 177.105 42.1232 177.105 41.6188ZM178.297 41.4841V41.6188C178.297 41.965 178.332 42.29 178.4 42.5935C178.473 42.897 178.584 43.1642 178.734 43.3951C178.883 43.626 179.073 43.8076 179.304 43.9402C179.535 44.0684 179.811 44.1326 180.132 44.1326C180.525 44.1326 180.848 44.0492 181.1 43.8825C181.356 43.7157 181.562 43.4956 181.715 43.222C181.869 42.9483 181.989 42.6512 182.075 42.3306V40.7851C182.023 40.55 181.948 40.3234 181.85 40.1053C181.756 39.883 181.632 39.6864 181.478 39.5154C181.329 39.3401 181.143 39.2011 180.92 39.0985C180.702 38.9959 180.444 38.9446 180.144 38.9446C179.819 38.9446 179.539 39.013 179.304 39.1498C179.073 39.2824 178.883 39.4662 178.734 39.7013C178.584 39.9322 178.473 40.2015 178.4 40.5094C178.332 40.8129 178.297 41.1378 178.297 41.4841ZM187.911 45.1394C187.428 45.1394 186.99 45.0581 186.596 44.8957C186.207 44.7289 185.872 44.496 185.59 44.1967C185.312 43.8974 185.098 43.5426 184.948 43.1322C184.799 42.7218 184.724 42.2729 184.724 41.7855V41.5162C184.724 40.9518 184.807 40.4495 184.974 40.0092C185.141 39.5645 185.367 39.1883 185.654 38.8805C185.94 38.5727 186.265 38.3397 186.629 38.1815C186.992 38.0233 187.368 37.9442 187.757 37.9442C188.253 37.9442 188.681 38.0298 189.04 38.2008C189.403 38.3718 189.7 38.6112 189.931 38.919C190.162 39.2225 190.333 39.5816 190.444 39.9963C190.555 40.4067 190.611 40.8556 190.611 41.343V41.8753H185.429V40.9069H189.424V40.8172C189.407 40.5094 189.343 40.2101 189.232 39.9194C189.125 39.6287 188.954 39.3893 188.719 39.2011C188.484 39.013 188.163 38.919 187.757 38.919C187.488 38.919 187.24 38.9767 187.013 39.0921C186.787 39.2033 186.592 39.37 186.43 39.5923C186.267 39.8146 186.141 40.0861 186.051 40.4067C185.962 40.7274 185.917 41.0972 185.917 41.5162V41.7855C185.917 42.1147 185.962 42.4246 186.051 42.7153C186.145 43.0018 186.28 43.254 186.455 43.472C186.635 43.6901 186.851 43.8611 187.103 43.9851C187.36 44.109 187.65 44.171 187.975 44.171C188.394 44.171 188.749 44.0855 189.04 43.9145C189.33 43.7435 189.585 43.5148 189.803 43.2284L190.521 43.7991C190.371 44.0257 190.181 44.2416 189.95 44.4468C189.719 44.652 189.435 44.8187 189.097 44.947C188.764 45.0752 188.369 45.1394 187.911 45.1394ZM199.789 42.2857V35.6741H201.02V42.2857C201.02 42.9013 200.894 43.4207 200.642 43.844C200.39 44.2672 200.041 44.59 199.597 44.8123C199.156 45.0303 198.65 45.1394 198.077 45.1394C197.504 45.1394 196.995 45.041 196.551 44.8444C196.106 44.6477 195.758 44.3485 195.505 43.9466C195.253 43.5447 195.127 43.0381 195.127 42.4268H196.365C196.365 42.8201 196.437 43.1429 196.583 43.3951C196.728 43.6473 196.929 43.8333 197.186 43.953C197.446 44.0727 197.744 44.1326 198.077 44.1326C198.402 44.1326 198.693 44.0642 198.949 43.9274C199.21 43.7863 199.415 43.5789 199.565 43.3053C199.714 43.0274 199.789 42.6876 199.789 42.2857ZM205.792 42.1895L207.646 35.6741H208.543L208.024 38.2072L206.03 45.0111H205.138L205.792 42.1895ZM203.875 35.6741L205.35 42.0612L205.792 45.0111H204.907L202.644 35.6741H203.875ZM210.942 42.0548L212.385 35.6741H213.622L211.365 45.0111H210.48L210.942 42.0548ZM208.678 35.6741L210.48 42.1895L211.134 45.0111H210.243L208.319 38.2072L207.793 35.6741H208.678ZM218.753 35.6741V45.0111H217.535V35.6741H218.753ZM221.755 35.6741V36.6873H214.54V35.6741H221.755Z" fill="white"/>
<path fill-rule="evenodd" clip-rule="evenodd" d="M245.106 36.9332C244.884 36.7113 244.526 36.7113 244.304 36.9332L241.522 39.7091L238.741 36.9275C238.519 36.7056 238.161 36.7056 237.939 36.9275C237.717 37.1493 237.717 37.5077 237.939 37.7295L240.72 40.5111L237.939 43.2927C237.717 43.5145 237.717 43.8729 237.939 44.0947C238.161 44.3166 238.519 44.3166 238.741 44.0947L241.522 41.3132L244.304 44.0947C244.526 44.3166 244.884 44.3166 245.106 44.0947C245.328 43.8729 245.328 43.5145 245.106 43.2927L242.325 40.5111L245.106 37.7295C245.322 37.5134 245.322 37.1493 245.106 36.9332Z" fill="white"/>
<path fill-rule="evenodd" clip-rule="evenodd" d="M265.844 58.2667C264.329 57.2366 260.793 56.7216 259.278 49.5111C259.278 49.5111 259.278 58.2667 259.278 58.2667H265.844Z" fill="#35363A"/>
<path fill-rule="evenodd" clip-rule="evenodd" d="M291.799 41.5534H286.587V46.7651C286.587 47.3384 286.118 47.8074 285.545 47.8074C284.972 47.8074 284.503 47.3384 284.503 46.7651V41.5534H279.291C278.718 41.5534 278.249 41.0844 278.249 40.5111C278.249 39.9378 278.718 39.4688 279.291 39.4688H284.503V34.2571C284.503 33.6839 284.972 33.2148 285.545 33.2148C286.118 33.2148 286.587 33.6839 286.587 34.2571V39.4688H291.799C292.372 39.4688 292.841 39.9378 292.841 40.5111C292.841 41.0844 292.372 41.5534 291.799 41.5534Z" fill="#BDC1C6"/>
<g clip-path="url(#clip9_2122_507)">
<circle cx="86.572" cy="37.5306" r="6.29306" fill="#27CA40" stroke="#3EAF3F" stroke-width="0.547222"/>
<circle cx="64.6834" cy="37.5306" r="6.29306" fill="#FFC130" stroke="#E1A325" stroke-width="0.547222"/>
<circle cx="42.7942" cy="37.5306" r="6.29306" fill="#FF6058" stroke="#E14942" stroke-width="0.547222"/>
</g>
</g>
</g>
<g clip-path="url(#clip10_2122_507)">
<rect x="159.711" y="355.467" width="108.35" height="108.35" rx="49.25" fill="#979797"/>
<g clip-path="url(#clip11_2122_507)">
<path d="M209.077 386.148C216.891 378.335 229.559 378.335 237.373 386.148C245.186 393.962 245.186 406.63 237.373 414.444C231.594 420.222 223.166 421.723 216.012 418.963L215.183 418.625L215.122 418.61H213.244V423.469C213.244 425.461 211.73 427.099 209.789 427.296L209.396 427.316H204.537V432.175C204.537 434.167 203.023 435.806 201.083 436.003L200.69 436.023H188.431C186.828 436.023 185.509 434.81 185.34 433.253L185.322 432.914V424.876C185.322 423.804 185.694 422.771 186.367 421.95L186.674 421.611L203.606 404.679L203.634 404.564C203.642 404.501 203.643 404.415 203.623 404.315C202.326 397.962 204.14 391.086 209.077 386.148ZM222.137 394.855C220.334 396.658 220.334 399.581 222.137 401.384C223.94 403.188 226.864 403.188 228.666 401.384C230.47 399.581 230.47 396.658 228.666 394.855C226.864 393.052 223.94 393.052 222.137 394.855Z" fill="white"/>
</g>
</g>
<path d="M363.496 371.542H370.15V393.742C370.15 395.794 369.689 397.577 368.766 399.09C367.854 400.603 366.585 401.769 364.958 402.588C363.33 403.406 361.439 403.816 359.283 403.816C357.366 403.816 355.625 403.479 354.06 402.805C352.505 402.121 351.272 401.085 350.36 399.696C349.448 398.297 348.997 396.54 349.007 394.426H355.708C355.728 395.265 355.899 395.986 356.221 396.587C356.552 397.178 357.003 397.634 357.573 397.955C358.154 398.266 358.838 398.421 359.625 398.421C360.454 398.421 361.154 398.245 361.724 397.893C362.304 397.53 362.745 397.001 363.045 396.307C363.346 395.613 363.496 394.758 363.496 393.742V371.542ZM382.882 403.381L373.772 371.542H381.125L386.396 393.664H386.66L392.474 371.542H398.77L404.569 393.711H404.849L410.119 371.542H417.472L408.362 403.381H401.802L395.739 382.564H395.49L389.443 403.381H382.882ZM419.862 377.092V371.542H446.011V377.092H436.264V403.381H429.61V377.092H419.862ZM471.736 403.381H460.449V371.542H471.829C475.032 371.542 477.788 372.18 480.1 373.454C482.411 374.719 484.188 376.538 485.432 378.911C486.686 381.284 487.313 384.124 487.313 387.43C487.313 390.747 486.686 393.597 485.432 395.981C484.188 398.364 482.4 400.194 480.069 401.468C477.747 402.743 474.969 403.381 471.736 403.381ZM467.181 397.613H471.456C473.446 397.613 475.12 397.261 476.477 396.556C477.845 395.841 478.871 394.737 479.556 393.245C480.25 391.742 480.597 389.804 480.597 387.43C480.597 385.078 480.25 383.155 479.556 381.663C478.871 380.17 477.851 379.072 476.493 378.367C475.135 377.662 473.461 377.31 471.472 377.31H467.181V397.613ZM503.057 403.847C500.601 403.847 498.487 403.349 496.714 402.355C494.953 401.349 493.595 399.929 492.641 398.095C491.688 396.25 491.211 394.068 491.211 391.55C491.211 389.094 491.688 386.938 492.641 385.083C493.595 383.228 494.937 381.782 496.668 380.745C498.409 379.709 500.451 379.191 502.793 379.191C504.368 379.191 505.835 379.445 507.193 379.953C508.561 380.45 509.752 381.201 510.768 382.207C511.794 383.212 512.592 384.477 513.162 386C513.732 387.513 514.017 389.285 514.017 391.317V393.136H493.854V389.032H507.783C507.783 388.078 507.576 387.233 507.161 386.498C506.747 385.762 506.172 385.186 505.436 384.772C504.71 384.347 503.866 384.135 502.902 384.135C501.897 384.135 501.005 384.368 500.228 384.834C499.461 385.29 498.86 385.907 498.425 386.684C497.989 387.451 497.766 388.306 497.756 389.249V393.151C497.756 394.333 497.974 395.354 498.409 396.214C498.855 397.074 499.482 397.737 500.29 398.204C501.098 398.67 502.057 398.903 503.166 398.903C503.902 398.903 504.576 398.8 505.187 398.592C505.799 398.385 506.322 398.074 506.757 397.66C507.193 397.245 507.524 396.737 507.752 396.136L513.877 396.54C513.566 398.012 512.929 399.297 511.965 400.396C511.012 401.484 509.778 402.334 508.265 402.945C506.762 403.546 505.026 403.847 503.057 403.847ZM529.128 403.847C526.682 403.847 524.578 403.329 522.816 402.292C521.065 401.246 519.717 399.795 518.774 397.939C517.842 396.084 517.375 393.949 517.375 391.534C517.375 389.089 517.847 386.943 518.79 385.098C519.743 383.243 521.096 381.797 522.847 380.761C524.599 379.714 526.682 379.191 529.097 379.191C531.18 379.191 533.004 379.569 534.569 380.326C536.134 381.082 537.373 382.145 538.285 383.513C539.197 384.881 539.699 386.487 539.793 388.332H533.543C533.367 387.14 532.901 386.181 532.144 385.456C531.398 384.72 530.418 384.352 529.206 384.352C528.18 384.352 527.283 384.632 526.516 385.192C525.76 385.741 525.169 386.544 524.744 387.601C524.319 388.658 524.107 389.938 524.107 391.441C524.107 392.965 524.314 394.26 524.729 395.328C525.153 396.395 525.749 397.209 526.516 397.768C527.283 398.328 528.18 398.608 529.206 398.608C529.962 398.608 530.641 398.452 531.242 398.142C531.854 397.831 532.356 397.38 532.75 396.789C533.154 396.188 533.419 395.468 533.543 394.628H539.793C539.689 396.452 539.192 398.059 538.3 399.447C537.419 400.826 536.202 401.904 534.647 402.681C533.092 403.458 531.253 403.847 529.128 403.847ZM554.822 403.847C552.407 403.847 550.319 403.334 548.557 402.308C546.805 401.271 545.453 399.831 544.499 397.986C543.546 396.131 543.069 393.98 543.069 391.534C543.069 389.068 543.546 386.912 544.499 385.067C545.453 383.212 546.805 381.771 548.557 380.745C550.319 379.709 552.407 379.191 554.822 379.191C557.237 379.191 559.32 379.709 561.071 380.745C562.833 381.771 564.191 383.212 565.144 385.067C566.098 386.912 566.575 389.068 566.575 391.534C566.575 393.98 566.098 396.131 565.144 397.986C564.191 399.831 562.833 401.271 561.071 402.308C559.32 403.334 557.237 403.847 554.822 403.847ZM554.853 398.717C555.952 398.717 556.869 398.406 557.605 397.784C558.34 397.152 558.895 396.292 559.268 395.203C559.652 394.115 559.843 392.877 559.843 391.488C559.843 390.099 559.652 388.861 559.268 387.772C558.895 386.684 558.34 385.824 557.605 385.192C556.869 384.559 555.952 384.243 554.853 384.243C553.744 384.243 552.811 384.559 552.055 385.192C551.308 385.824 550.744 386.684 550.36 387.772C549.987 388.861 549.8 390.099 549.8 391.488C549.8 392.877 549.987 394.115 550.36 395.203C550.744 396.292 551.308 397.152 552.055 397.784C552.811 398.406 553.744 398.717 554.853 398.717ZM579.68 403.769C577.866 403.769 576.224 403.303 574.752 402.37C573.291 401.427 572.13 400.043 571.27 398.219C570.42 396.385 569.995 394.136 569.995 391.472C569.995 388.736 570.435 386.461 571.316 384.648C572.197 382.823 573.368 381.461 574.83 380.559C576.301 379.647 577.913 379.191 579.665 379.191C581.001 379.191 582.116 379.419 583.007 379.875C583.909 380.321 584.634 380.88 585.183 381.554C585.743 382.217 586.168 382.87 586.458 383.513H586.66V371.542H593.267V403.381H586.738V399.556H586.458C586.147 400.22 585.707 400.878 585.137 401.531C584.577 402.173 583.846 402.707 582.945 403.132C582.053 403.557 580.965 403.769 579.68 403.769ZM581.779 398.499C582.846 398.499 583.748 398.209 584.484 397.629C585.23 397.038 585.8 396.214 586.194 395.157C586.598 394.1 586.8 392.861 586.8 391.441C586.8 390.021 586.603 388.788 586.209 387.741C585.816 386.694 585.246 385.886 584.499 385.316C583.753 384.746 582.846 384.461 581.779 384.461C580.691 384.461 579.773 384.756 579.027 385.347C578.281 385.938 577.716 386.757 577.333 387.803C576.949 388.85 576.757 390.063 576.757 391.441C576.757 392.83 576.949 394.058 577.333 395.126C577.726 396.183 578.291 397.012 579.027 397.613C579.773 398.204 580.691 398.499 581.779 398.499ZM609.595 403.847C607.138 403.847 605.024 403.349 603.252 402.355C601.49 401.349 600.132 399.929 599.179 398.095C598.225 396.25 597.748 394.068 597.748 391.55C597.748 389.094 598.225 386.938 599.179 385.083C600.132 383.228 601.474 381.782 603.205 380.745C604.946 379.709 606.988 379.191 609.33 379.191C610.906 379.191 612.372 379.445 613.73 379.953C615.098 380.45 616.29 381.201 617.305 382.207C618.332 383.212 619.13 384.477 619.7 386C620.27 387.513 620.555 389.285 620.555 391.317V393.136H600.391V389.032H614.321C614.321 388.078 614.113 387.233 613.699 386.498C613.284 385.762 612.709 385.186 611.973 384.772C611.248 384.347 610.403 384.135 609.439 384.135C608.434 384.135 607.543 384.368 606.765 384.834C605.998 385.29 605.397 385.907 604.962 386.684C604.527 387.451 604.304 388.306 604.293 389.249V393.151C604.293 394.333 604.511 395.354 604.946 396.214C605.392 397.074 606.019 397.737 606.827 398.204C607.636 398.67 608.594 398.903 609.703 398.903C610.439 398.903 611.113 398.8 611.724 398.592C612.336 398.385 612.859 398.074 613.295 397.66C613.73 397.245 614.062 396.737 614.29 396.136L620.415 396.54C620.104 398.012 619.466 399.297 618.503 400.396C617.549 401.484 616.316 402.334 614.803 402.945C613.3 403.546 611.564 403.847 609.595 403.847ZM624.876 403.381V379.502H631.297V383.668H631.546C631.981 382.186 632.712 381.067 633.738 380.31C634.764 379.543 635.945 379.16 637.282 379.16C637.614 379.16 637.971 379.18 638.355 379.222C638.738 379.263 639.075 379.32 639.365 379.393V385.269C639.054 385.176 638.624 385.093 638.075 385.021C637.526 384.948 637.023 384.912 636.567 384.912C635.593 384.912 634.722 385.124 633.955 385.549C633.199 385.964 632.598 386.544 632.152 387.29C631.717 388.037 631.499 388.897 631.499 389.871V403.381H624.876Z" fill="#979797"/>
<path d="M316.651 457.269H312.957L319.682 438.166H323.954L330.689 457.269H326.995L321.893 442.084H321.744L316.651 457.269ZM316.772 449.779H326.846V452.559H316.772V449.779ZM346.828 442.942V445.554H338.359V442.942H346.828ZM340.476 457.269V441.59C340.476 440.626 340.675 439.824 341.073 439.183C341.477 438.543 342.018 438.064 342.696 437.747C343.374 437.43 344.126 437.271 344.953 437.271C345.538 437.271 346.057 437.318 346.511 437.411C346.965 437.504 347.301 437.588 347.518 437.663L346.847 440.274C346.704 440.231 346.523 440.187 346.306 440.144C346.088 440.094 345.846 440.069 345.578 440.069C344.95 440.069 344.505 440.222 344.244 440.526C343.989 440.825 343.862 441.254 343.862 441.814V457.269H340.476ZM353.108 457.559C352.2 457.559 351.382 457.397 350.655 457.074C349.933 456.744 349.361 456.259 348.938 455.618C348.522 454.978 348.313 454.188 348.313 453.249C348.313 452.441 348.463 451.772 348.761 451.244C349.06 450.715 349.467 450.292 349.983 449.975C350.499 449.658 351.081 449.419 351.727 449.257C352.38 449.089 353.055 448.968 353.752 448.893C354.591 448.806 355.272 448.728 355.794 448.66C356.317 448.585 356.696 448.473 356.932 448.324C357.175 448.169 357.296 447.929 357.296 447.606V447.55C357.296 446.847 357.088 446.303 356.671 445.918C356.254 445.532 355.654 445.339 354.871 445.339C354.044 445.339 353.388 445.52 352.903 445.88C352.424 446.241 352.101 446.667 351.933 447.158L348.78 446.711C349.029 445.84 349.439 445.112 350.011 444.528C350.583 443.937 351.283 443.496 352.11 443.203C352.937 442.905 353.851 442.756 354.852 442.756C355.542 442.756 356.23 442.836 356.914 442.998C357.598 443.16 358.223 443.427 358.788 443.8C359.354 444.167 359.808 444.668 360.15 445.302C360.499 445.936 360.673 446.729 360.673 447.681V457.269H357.427V455.301H357.315C357.109 455.699 356.82 456.072 356.447 456.421C356.08 456.763 355.617 457.039 355.057 457.251C354.504 457.456 353.854 457.559 353.108 457.559ZM353.985 455.077C354.663 455.077 355.25 454.944 355.748 454.676C356.245 454.403 356.628 454.042 356.895 453.594C357.169 453.147 357.305 452.658 357.305 452.13V450.442C357.2 450.529 357.019 450.609 356.764 450.684C356.516 450.759 356.236 450.824 355.925 450.88C355.614 450.936 355.306 450.986 355.001 451.029C354.697 451.073 354.432 451.11 354.209 451.141C353.705 451.21 353.254 451.322 352.856 451.477C352.458 451.632 352.144 451.85 351.914 452.13C351.684 452.404 351.569 452.758 351.569 453.193C351.569 453.815 351.796 454.285 352.25 454.602C352.704 454.919 353.282 455.077 353.985 455.077ZM375.392 446.729L372.314 447.065C372.226 446.754 372.074 446.462 371.856 446.188C371.645 445.915 371.359 445.694 370.998 445.526C370.638 445.358 370.196 445.274 369.674 445.274C368.971 445.274 368.38 445.426 367.902 445.731C367.429 446.036 367.196 446.431 367.202 446.916C367.196 447.332 367.348 447.671 367.659 447.932C367.976 448.194 368.499 448.408 369.226 448.576L371.67 449.098C373.026 449.391 374.033 449.854 374.692 450.488C375.357 451.123 375.693 451.953 375.699 452.979C375.693 453.88 375.429 454.676 374.907 455.367C374.39 456.051 373.672 456.585 372.752 456.971C371.832 457.356 370.774 457.549 369.581 457.549C367.827 457.549 366.415 457.182 365.346 456.449C364.276 455.709 363.639 454.679 363.434 453.361L366.726 453.044C366.876 453.691 367.193 454.179 367.678 454.508C368.163 454.838 368.794 455.003 369.571 455.003C370.373 455.003 371.017 454.838 371.502 454.508C371.993 454.179 372.239 453.772 372.239 453.287C372.239 452.876 372.08 452.537 371.763 452.27C371.452 452.002 370.967 451.797 370.308 451.654L367.864 451.141C366.49 450.855 365.473 450.373 364.814 449.695C364.155 449.011 363.828 448.147 363.835 447.102C363.828 446.219 364.068 445.454 364.553 444.808C365.044 444.155 365.725 443.651 366.596 443.297C367.472 442.936 368.483 442.756 369.627 442.756C371.306 442.756 372.628 443.113 373.591 443.828C374.561 444.543 375.162 445.51 375.392 446.729ZM385.638 442.942V445.554H377.402V442.942H385.638ZM379.435 439.51H382.812V452.96C382.812 453.414 382.88 453.762 383.017 454.005C383.16 454.241 383.347 454.403 383.577 454.49C383.807 454.577 384.062 454.62 384.342 454.62C384.553 454.62 384.746 454.605 384.92 454.574C385.1 454.543 385.237 454.515 385.33 454.49L385.899 457.13C385.719 457.192 385.461 457.26 385.125 457.335C384.795 457.409 384.391 457.453 383.912 457.465C383.067 457.49 382.305 457.363 381.627 457.083C380.949 456.797 380.411 456.355 380.014 455.758C379.622 455.161 379.429 454.415 379.435 453.52V439.51ZM392.426 454.658L392.305 455.684C392.218 456.467 392.063 457.263 391.839 458.072C391.621 458.886 391.391 459.636 391.148 460.32C390.906 461.004 390.71 461.542 390.561 461.933H388.285C388.372 461.554 388.49 461.038 388.639 460.385C388.795 459.732 388.944 458.998 389.087 458.184C389.23 457.369 389.326 456.542 389.376 455.702L389.441 454.658H392.426ZM408.477 457.549C407.04 457.549 405.8 457.251 404.755 456.654C403.717 456.051 402.918 455.199 402.358 454.098C401.798 452.991 401.518 451.688 401.518 450.19C401.518 448.716 401.798 447.423 402.358 446.309C402.924 445.19 403.714 444.32 404.727 443.698C405.741 443.07 406.932 442.756 408.3 442.756C409.183 442.756 410.016 442.899 410.799 443.185C411.589 443.465 412.286 443.9 412.889 444.491C413.498 445.081 413.977 445.834 414.325 446.748C414.674 447.656 414.848 448.738 414.848 449.994V451.029H403.104V448.753H411.611C411.605 448.107 411.465 447.531 411.191 447.028C410.918 446.518 410.535 446.117 410.044 445.824C409.559 445.532 408.993 445.386 408.346 445.386C407.656 445.386 407.05 445.554 406.527 445.89C406.005 446.219 405.598 446.655 405.305 447.196C405.019 447.73 404.873 448.318 404.867 448.959V450.945C404.867 451.779 405.019 452.494 405.324 453.091C405.629 453.681 406.055 454.135 406.602 454.452C407.149 454.763 407.79 454.919 408.523 454.919C409.015 454.919 409.459 454.85 409.857 454.714C410.255 454.571 410.6 454.362 410.893 454.089C411.185 453.815 411.406 453.476 411.555 453.072L414.708 453.426C414.509 454.26 414.129 454.987 413.57 455.609C413.016 456.225 412.307 456.704 411.443 457.046C410.579 457.381 409.59 457.549 408.477 457.549ZM421.827 457.559C420.919 457.559 420.101 457.397 419.374 457.074C418.653 456.744 418.08 456.259 417.658 455.618C417.241 454.978 417.033 454.188 417.033 453.249C417.033 452.441 417.182 451.772 417.48 451.244C417.779 450.715 418.186 450.292 418.702 449.975C419.218 449.658 419.8 449.419 420.447 449.257C421.099 449.089 421.774 448.968 422.471 448.893C423.31 448.806 423.991 448.728 424.513 448.66C425.036 448.585 425.415 448.473 425.651 448.324C425.894 448.169 426.015 447.929 426.015 447.606V447.55C426.015 446.847 425.807 446.303 425.39 445.918C424.974 445.532 424.373 445.339 423.59 445.339C422.763 445.339 422.107 445.52 421.622 445.88C421.143 446.241 420.82 446.667 420.652 447.158L417.499 446.711C417.748 445.84 418.158 445.112 418.73 444.528C419.302 443.937 420.002 443.496 420.829 443.203C421.656 442.905 422.57 442.756 423.571 442.756C424.262 442.756 424.949 442.836 425.633 442.998C426.317 443.16 426.942 443.427 427.508 443.8C428.073 444.167 428.527 444.668 428.869 445.302C429.218 445.936 429.392 446.729 429.392 447.681V457.269H426.146V455.301H426.034C425.829 455.699 425.539 456.072 425.166 456.421C424.799 456.763 424.336 457.039 423.777 457.251C423.223 457.456 422.573 457.559 421.827 457.559ZM422.704 455.077C423.382 455.077 423.969 454.944 424.467 454.676C424.964 454.403 425.347 454.042 425.614 453.594C425.888 453.147 426.024 452.658 426.024 452.13V450.442C425.919 450.529 425.738 450.609 425.483 450.684C425.235 450.759 424.955 450.824 424.644 450.88C424.333 450.936 424.025 450.986 423.721 451.029C423.416 451.073 423.152 451.11 422.928 451.141C422.424 451.21 421.973 451.322 421.575 451.477C421.177 451.632 420.863 451.85 420.633 452.13C420.403 452.404 420.288 452.758 420.288 453.193C420.288 453.815 420.515 454.285 420.969 454.602C421.423 454.919 422.001 455.077 422.704 455.077ZM444.111 446.729L441.033 447.065C440.946 446.754 440.793 446.462 440.576 446.188C440.364 445.915 440.078 445.694 439.717 445.526C439.357 445.358 438.915 445.274 438.393 445.274C437.69 445.274 437.1 445.426 436.621 445.731C436.148 446.036 435.915 446.431 435.921 446.916C435.915 447.332 436.067 447.671 436.378 447.932C436.695 448.194 437.218 448.408 437.945 448.576L440.389 449.098C441.745 449.391 442.752 449.854 443.411 450.488C444.077 451.123 444.412 451.953 444.419 452.979C444.412 453.88 444.148 454.676 443.626 455.367C443.11 456.051 442.391 456.585 441.471 456.971C440.551 457.356 439.494 457.549 438.3 457.549C436.546 457.549 435.134 457.182 434.065 456.449C432.995 455.709 432.358 454.679 432.153 453.361L435.445 453.044C435.595 453.691 435.912 454.179 436.397 454.508C436.882 454.838 437.513 455.003 438.29 455.003C439.093 455.003 439.736 454.838 440.221 454.508C440.712 454.179 440.958 453.772 440.958 453.287C440.958 452.876 440.799 452.537 440.482 452.27C440.171 452.002 439.686 451.797 439.027 451.654L436.583 451.141C435.209 450.855 434.192 450.373 433.533 449.695C432.874 449.011 432.548 448.147 432.554 447.102C432.548 446.219 432.787 445.454 433.272 444.808C433.763 444.155 434.444 443.651 435.315 443.297C436.192 442.936 437.202 442.756 438.346 442.756C440.025 442.756 441.347 443.113 442.311 443.828C443.281 444.543 443.881 445.51 444.111 446.729ZM449.302 462.642C448.841 462.642 448.416 462.605 448.024 462.53C447.638 462.462 447.33 462.381 447.1 462.288L447.884 459.657C448.375 459.8 448.813 459.869 449.199 459.863C449.585 459.856 449.923 459.735 450.216 459.499C450.514 459.269 450.766 458.883 450.971 458.342L451.26 457.568L446.065 442.942H449.647L452.949 453.762H453.098L456.409 442.942H460L454.264 459.004C453.997 459.763 453.642 460.413 453.201 460.954C452.759 461.501 452.218 461.918 451.578 462.204C450.943 462.496 450.185 462.642 449.302 462.642ZM465.403 454.658L465.282 455.684C465.195 456.467 465.04 457.263 464.816 458.072C464.598 458.886 464.368 459.636 464.126 460.32C463.883 461.004 463.687 461.542 463.538 461.933H461.262C461.349 461.554 461.467 461.038 461.616 460.385C461.772 459.732 461.921 458.998 462.064 458.184C462.207 457.369 462.304 456.542 462.353 455.702L462.419 454.658H465.403ZM479.234 457.559C478.326 457.559 477.508 457.397 476.781 457.074C476.06 456.744 475.487 456.259 475.065 455.618C474.648 454.978 474.44 454.188 474.44 453.249C474.44 452.441 474.589 451.772 474.887 451.244C475.186 450.715 475.593 450.292 476.109 449.975C476.625 449.658 477.207 449.419 477.854 449.257C478.507 449.089 479.181 448.968 479.878 448.893C480.717 448.806 481.398 448.728 481.92 448.66C482.443 448.585 482.822 448.473 483.058 448.324C483.301 448.169 483.422 447.929 483.422 447.606V447.55C483.422 446.847 483.214 446.303 482.797 445.918C482.381 445.532 481.781 445.339 480.997 445.339C480.17 445.339 479.514 445.52 479.029 445.88C478.55 446.241 478.227 446.667 478.059 447.158L474.906 446.711C475.155 445.84 475.565 445.112 476.137 444.528C476.709 443.937 477.409 443.496 478.236 443.203C479.063 442.905 479.977 442.756 480.978 442.756C481.669 442.756 482.356 442.836 483.04 442.998C483.724 443.16 484.349 443.427 484.915 443.8C485.48 444.167 485.934 444.668 486.276 445.302C486.625 445.936 486.799 446.729 486.799 447.681V457.269H483.553V455.301H483.441C483.236 455.699 482.946 456.072 482.573 456.421C482.206 456.763 481.743 457.039 481.184 457.251C480.63 457.456 479.98 457.559 479.234 457.559ZM480.111 455.077C480.789 455.077 481.376 454.944 481.874 454.676C482.371 454.403 482.754 454.042 483.021 453.594C483.295 453.147 483.432 452.658 483.432 452.13V450.442C483.326 450.529 483.145 450.609 482.891 450.684C482.642 450.759 482.362 450.824 482.051 450.88C481.74 450.936 481.432 450.986 481.128 451.029C480.823 451.073 480.559 451.11 480.335 451.141C479.831 451.21 479.38 451.322 478.982 451.477C478.584 451.632 478.27 451.85 478.04 452.13C477.81 452.404 477.695 452.758 477.695 453.193C477.695 453.815 477.922 454.285 478.376 454.602C478.83 454.919 479.408 455.077 480.111 455.077ZM493.571 448.875V457.269H490.194V442.942H493.421V445.377H493.589C493.919 444.575 494.444 443.937 495.166 443.465C495.893 442.992 496.792 442.756 497.861 442.756C498.85 442.756 499.711 442.967 500.445 443.39C501.185 443.813 501.757 444.425 502.161 445.227C502.572 446.03 502.774 447.003 502.768 448.147V457.269H499.391V448.669C499.391 447.712 499.142 446.962 498.645 446.421C498.154 445.88 497.473 445.61 496.602 445.61C496.011 445.61 495.486 445.74 495.026 446.002C494.572 446.257 494.214 446.627 493.953 447.112C493.698 447.597 493.571 448.184 493.571 448.875ZM511.517 457.521C510.392 457.521 509.384 457.232 508.495 456.654C507.606 456.076 506.903 455.236 506.387 454.135C505.871 453.035 505.613 451.698 505.613 450.124C505.613 448.533 505.874 447.189 506.396 446.095C506.925 444.994 507.637 444.164 508.532 443.604C509.428 443.039 510.426 442.756 511.526 442.756C512.366 442.756 513.056 442.899 513.597 443.185C514.138 443.465 514.567 443.803 514.884 444.201C515.201 444.593 515.447 444.963 515.621 445.311H515.761V438.166H519.147V457.269H515.826V455.012H515.621C515.447 455.36 515.195 455.73 514.866 456.122C514.536 456.508 514.101 456.837 513.56 457.111C513.019 457.384 512.338 457.521 511.517 457.521ZM512.459 454.751C513.174 454.751 513.784 454.558 514.287 454.173C514.791 453.781 515.174 453.237 515.435 452.54C515.696 451.844 515.826 451.032 515.826 450.106C515.826 449.179 515.696 448.374 515.435 447.69C515.18 447.006 514.8 446.474 514.297 446.095C513.799 445.716 513.187 445.526 512.459 445.526C511.707 445.526 511.079 445.722 510.575 446.114C510.071 446.505 509.692 447.046 509.437 447.737C509.182 448.427 509.055 449.217 509.055 450.106C509.055 451.001 509.182 451.8 509.437 452.503C509.698 453.199 510.081 453.75 510.584 454.154C511.094 454.552 511.719 454.751 512.459 454.751ZM529.261 457.269V442.942H532.535V445.33H532.684C532.945 444.503 533.393 443.866 534.027 443.418C534.668 442.964 535.398 442.737 536.219 442.737C536.406 442.737 536.614 442.746 536.844 442.765C537.08 442.777 537.276 442.799 537.432 442.83V445.936C537.289 445.887 537.062 445.843 536.751 445.806C536.446 445.762 536.151 445.74 535.865 445.74C535.249 445.74 534.696 445.874 534.204 446.142C533.719 446.403 533.337 446.767 533.057 447.233C532.777 447.699 532.637 448.237 532.637 448.847V457.269H529.261ZM545.428 457.549C543.991 457.549 542.751 457.251 541.706 456.654C540.668 456.051 539.868 455.199 539.309 454.098C538.749 452.991 538.469 451.688 538.469 450.19C538.469 448.716 538.749 447.423 539.309 446.309C539.875 445.19 540.664 444.32 541.678 443.698C542.692 443.07 543.882 442.756 545.251 442.756C546.134 442.756 546.967 442.899 547.75 443.185C548.54 443.465 549.237 443.9 549.84 444.491C550.449 445.081 550.928 445.834 551.276 446.748C551.624 447.656 551.799 448.738 551.799 449.994V451.029H540.055V448.753H548.562C548.556 448.107 548.416 447.531 548.142 447.028C547.868 446.518 547.486 446.117 546.995 445.824C546.51 445.532 545.944 445.386 545.297 445.386C544.607 445.386 544.001 445.554 543.478 445.89C542.956 446.219 542.549 446.655 542.256 447.196C541.97 447.73 541.824 448.318 541.818 448.959V450.945C541.818 451.779 541.97 452.494 542.275 453.091C542.58 453.681 543.006 454.135 543.553 454.452C544.1 454.763 544.741 454.919 545.474 454.919C545.966 454.919 546.41 454.85 546.808 454.714C547.206 454.571 547.551 454.362 547.844 454.089C548.136 453.815 548.357 453.476 548.506 453.072L551.659 453.426C551.46 454.26 551.08 454.987 550.521 455.609C549.967 456.225 549.258 456.704 548.394 457.046C547.53 457.381 546.541 457.549 545.428 457.549ZM558.032 438.166V457.269H554.655V438.166H558.032ZM561.504 457.269V442.942H564.881V457.269H561.504ZM563.202 440.909C562.667 440.909 562.207 440.732 561.821 440.377C561.436 440.016 561.243 439.584 561.243 439.081C561.243 438.571 561.436 438.138 561.821 437.784C562.207 437.423 562.667 437.243 563.202 437.243C563.743 437.243 564.203 437.423 564.582 437.784C564.968 438.138 565.16 438.571 565.16 439.081C565.16 439.584 564.968 440.016 564.582 440.377C564.203 440.732 563.743 440.909 563.202 440.909ZM572.476 457.559C571.568 457.559 570.75 457.397 570.022 457.074C569.301 456.744 568.729 456.259 568.306 455.618C567.89 454.978 567.681 454.188 567.681 453.249C567.681 452.441 567.83 451.772 568.129 451.244C568.427 450.715 568.835 450.292 569.351 449.975C569.867 449.658 570.448 449.419 571.095 449.257C571.748 449.089 572.423 448.968 573.119 448.893C573.959 448.806 574.64 448.728 575.162 448.66C575.684 448.585 576.064 448.473 576.3 448.324C576.542 448.169 576.664 447.929 576.664 447.606V447.55C576.664 446.847 576.455 446.303 576.039 445.918C575.622 445.532 575.022 445.339 574.239 445.339C573.411 445.339 572.755 445.52 572.27 445.88C571.792 446.241 571.468 446.667 571.3 447.158L568.148 446.711C568.396 445.84 568.807 445.112 569.379 444.528C569.951 443.937 570.65 443.496 571.478 443.203C572.305 442.905 573.219 442.756 574.22 442.756C574.91 442.756 575.597 442.836 576.281 442.998C576.965 443.16 577.59 443.427 578.156 443.8C578.722 444.167 579.176 444.668 579.518 445.302C579.866 445.936 580.04 446.729 580.04 447.681V457.269H576.794V455.301H576.682C576.477 455.699 576.188 456.072 575.815 456.421C575.448 456.763 574.985 457.039 574.425 457.251C573.872 457.456 573.222 457.559 572.476 457.559ZM573.352 455.077C574.03 455.077 574.618 454.944 575.115 454.676C575.613 454.403 575.995 454.042 576.263 453.594C576.536 453.147 576.673 452.658 576.673 452.13V450.442C576.567 450.529 576.387 450.609 576.132 450.684C575.883 450.759 575.603 450.824 575.293 450.88C574.982 450.936 574.674 450.986 574.369 451.029C574.064 451.073 573.8 451.11 573.576 451.141C573.073 451.21 572.622 451.322 572.224 451.477C571.826 451.632 571.512 451.85 571.282 452.13C571.052 452.404 570.937 452.758 570.937 453.193C570.937 453.815 571.164 454.285 571.617 454.602C572.071 454.919 572.65 455.077 573.352 455.077ZM583.585 457.269V438.166H586.961V445.311H587.101C587.275 444.963 587.521 444.593 587.838 444.201C588.155 443.803 588.584 443.465 589.125 443.185C589.666 442.899 590.357 442.756 591.196 442.756C592.303 442.756 593.301 443.039 594.19 443.604C595.086 444.164 595.795 444.994 596.317 446.095C596.846 447.189 597.11 448.533 597.11 450.124C597.11 451.698 596.852 453.035 596.336 454.135C595.82 455.236 595.117 456.076 594.228 456.654C593.338 457.232 592.331 457.521 591.206 457.521C590.385 457.521 589.704 457.384 589.163 457.111C588.622 456.837 588.186 456.508 587.857 456.122C587.534 455.73 587.282 455.36 587.101 455.012H586.905V457.269H583.585ZM586.896 450.106C586.896 451.032 587.027 451.844 587.288 452.54C587.555 453.237 587.938 453.781 588.435 454.173C588.939 454.558 589.548 454.751 590.263 454.751C591.01 454.751 591.635 454.552 592.138 454.154C592.642 453.75 593.021 453.199 593.276 452.503C593.537 451.8 593.668 451.001 593.668 450.106C593.668 449.217 593.541 448.427 593.286 447.737C593.031 447.046 592.651 446.505 592.148 446.114C591.644 445.722 591.016 445.526 590.263 445.526C589.542 445.526 588.93 445.716 588.426 446.095C587.922 446.474 587.54 447.006 587.279 447.69C587.024 448.374 586.896 449.179 586.896 450.106ZM603.357 438.166V457.269H599.981V438.166H603.357ZM613.172 457.549C611.736 457.549 610.495 457.251 609.45 456.654C608.412 456.051 607.613 455.199 607.053 454.098C606.494 452.991 606.214 451.688 606.214 450.19C606.214 448.716 606.494 447.423 607.053 446.309C607.619 445.19 608.409 444.32 609.422 443.698C610.436 443.07 611.627 442.756 612.995 442.756C613.878 442.756 614.711 442.899 615.495 443.185C616.284 443.465 616.981 443.9 617.584 444.491C618.194 445.081 618.672 445.834 619.021 446.748C619.369 447.656 619.543 448.738 619.543 449.994V451.029H607.799V448.753H616.306C616.3 448.107 616.16 447.531 615.886 447.028C615.613 446.518 615.23 446.117 614.739 445.824C614.254 445.532 613.688 445.386 613.042 445.386C612.351 445.386 611.745 445.554 611.223 445.89C610.7 446.219 610.293 446.655 610.001 447.196C609.715 447.73 609.569 448.318 609.562 448.959V450.945C609.562 451.779 609.715 452.494 610.019 453.091C610.324 453.681 610.75 454.135 611.297 454.452C611.845 454.763 612.485 454.919 613.219 454.919C613.71 454.919 614.155 454.85 614.553 454.714C614.951 454.571 615.296 454.362 615.588 454.089C615.88 453.815 616.101 453.476 616.25 453.072L619.403 453.426C619.204 454.26 618.825 454.987 618.265 455.609C617.712 456.225 617.003 456.704 616.138 457.046C615.274 457.381 614.285 457.549 613.172 457.549ZM636.069 442.942V445.554H627.833V442.942H636.069ZM629.866 439.51H633.243V452.96C633.243 453.414 633.311 453.762 633.448 454.005C633.591 454.241 633.778 454.403 634.008 454.49C634.238 454.577 634.493 454.62 634.773 454.62C634.984 454.62 635.177 454.605 635.351 454.574C635.531 454.543 635.668 454.515 635.761 454.49L636.33 457.13C636.15 457.192 635.892 457.26 635.556 457.335C635.227 457.409 634.822 457.453 634.344 457.465C633.498 457.49 632.736 457.363 632.058 457.083C631.381 456.797 630.843 456.355 630.445 455.758C630.053 455.161 629.86 454.415 629.866 453.52V439.51ZM644.989 457.549C643.59 457.549 642.377 457.241 641.351 456.626C640.325 456.01 639.529 455.149 638.963 454.042C638.403 452.935 638.124 451.642 638.124 450.162C638.124 448.682 638.403 447.385 638.963 446.272C639.529 445.159 640.325 444.295 641.351 443.679C642.377 443.063 643.59 442.756 644.989 442.756C646.388 442.756 647.601 443.063 648.627 443.679C649.653 444.295 650.445 445.159 651.005 446.272C651.571 447.385 651.854 448.682 651.854 450.162C651.854 451.642 651.571 452.935 651.005 454.042C650.445 455.149 649.653 456.01 648.627 456.626C647.601 457.241 646.388 457.549 644.989 457.549ZM645.007 454.844C645.766 454.844 646.4 454.636 646.91 454.219C647.42 453.796 647.8 453.231 648.048 452.522C648.303 451.813 648.431 451.023 648.431 450.152C648.431 449.276 648.303 448.483 648.048 447.774C647.8 447.059 647.42 446.49 646.91 446.067C646.4 445.644 645.766 445.433 645.007 445.433C644.23 445.433 643.583 445.644 643.067 446.067C642.557 446.49 642.175 447.059 641.92 447.774C641.671 448.483 641.547 449.276 641.547 450.152C641.547 451.023 641.671 451.813 641.92 452.522C642.175 453.231 642.557 453.796 643.067 454.219C643.583 454.636 644.23 454.844 645.007 454.844ZM660.969 457.549C659.57 457.549 658.358 457.241 657.332 456.626C656.306 456.01 655.51 455.149 654.944 454.042C654.384 452.935 654.104 451.642 654.104 450.162C654.104 448.682 654.384 447.385 654.944 446.272C655.51 445.159 656.306 444.295 657.332 443.679C658.358 443.063 659.57 442.756 660.969 442.756C662.369 442.756 663.581 443.063 664.607 443.679C665.633 444.295 666.426 445.159 666.986 446.272C667.552 447.385 667.835 448.682 667.835 450.162C667.835 451.642 667.552 452.935 666.986 454.042C666.426 455.149 665.633 456.01 664.607 456.626C663.581 457.241 662.369 457.549 660.969 457.549ZM660.988 454.844C661.747 454.844 662.381 454.636 662.891 454.219C663.401 453.796 663.78 453.231 664.029 452.522C664.284 451.813 664.411 451.023 664.411 450.152C664.411 449.276 664.284 448.483 664.029 447.774C663.78 447.059 663.401 446.49 662.891 446.067C662.381 445.644 661.747 445.433 660.988 445.433C660.211 445.433 659.564 445.644 659.048 446.067C658.538 446.49 658.156 447.059 657.901 447.774C657.652 448.483 657.527 449.276 657.527 450.152C657.527 451.023 657.652 451.813 657.901 452.522C658.156 453.231 658.538 453.796 659.048 454.219C659.564 454.636 660.211 454.844 660.988 454.844ZM674.077 438.166V457.269H670.7V438.166H674.077Z" fill="#BDC1C6"/>
<g filter="url(#filter3_d_2122_507)">
<path d="M680.844 69.9593C686.944 79.6624 683.96 92.436 674.172 98.4886C664.384 104.541 651.504 101.577 645.404 91.8741C639.304 82.171 642.288 69.3974 652.076 63.3448C661.864 57.2922 674.744 60.2562 680.844 69.9593Z" stroke="#B6A356" stroke-width="1.09444"/>
<path d="M676.222 72.8174C680.729 79.9864 678.525 89.4279 671.288 93.903C664.051 98.3781 654.533 96.1849 650.026 89.016C645.518 81.847 647.722 72.4055 654.959 67.9304C662.196 63.4553 671.714 65.6485 676.222 72.8174Z" stroke="#FACC15" stroke-width="2.18889"/>
<path d="M523.054 130.474C521.802 132.173 522.175 134.563 523.888 135.813C525.6 137.063 528.004 136.698 529.257 134.999L523.054 130.474ZM639.909 83.541C641.483 82.13 641.604 79.7153 640.18 78.1477L616.976 52.6012C615.552 51.0335 613.123 50.9065 611.55 52.3175C609.976 53.7285 609.855 56.1432 611.279 57.7109L631.904 80.4189L609.115 100.858C607.542 102.269 607.421 104.684 608.845 106.251C610.269 107.819 612.698 107.946 614.272 106.535L639.909 83.541ZM529.257 134.999C544.613 114.169 557.762 101.014 573.748 93.2905C589.726 85.5706 609.021 83.0466 637.14 84.5162L637.523 76.8888C608.854 75.3905 588.045 77.8814 570.373 86.4194C552.71 94.9536 538.665 109.299 523.054 130.474L529.257 134.999Z" fill="#CE145B"/>
<path d="M582.475 120.251C588.742 130.219 585.675 143.341 575.621 149.558C565.566 155.776 552.336 152.731 546.069 142.763C539.802 132.796 542.868 119.674 552.923 113.456C562.978 107.239 576.208 110.284 582.475 120.251Z" fill="#CE145B" stroke="#CE145B" stroke-width="1.09444"/>
<path d="M564.187 141.729C562.727 141.729 561.432 141.481 560.303 140.985C559.18 140.483 558.294 139.792 557.645 138.912C556.996 138.032 556.665 137.019 556.653 135.872L561.314 135.872C561.332 136.287 561.467 136.656 561.716 136.978C561.966 137.295 562.306 137.542 562.736 137.722C563.167 137.902 563.656 137.992 564.206 137.992C564.755 137.992 565.238 137.896 565.656 137.704C566.08 137.505 566.411 137.236 566.648 136.895C566.885 136.548 567.001 136.151 566.994 135.705C567.001 135.259 566.873 134.862 566.611 134.515C566.349 134.168 565.977 133.898 565.497 133.706C565.023 133.514 564.461 133.418 563.812 133.418L561.95 133.418L561.95 130.146L563.812 130.146C564.38 130.146 564.879 130.053 565.31 129.867C565.747 129.681 566.087 129.421 566.33 129.086C566.573 128.745 566.692 128.355 566.686 127.915C566.692 127.487 566.589 127.112 566.377 126.79C566.171 126.461 565.881 126.207 565.506 126.027C565.138 125.848 564.711 125.758 564.224 125.758C563.713 125.758 563.248 125.848 562.83 126.027C562.418 126.207 562.09 126.461 561.847 126.79C561.604 127.118 561.476 127.499 561.463 127.933L557.037 127.933C557.049 126.799 557.367 125.801 557.991 124.94C558.615 124.072 559.464 123.393 560.537 122.904C561.616 122.414 562.845 122.169 564.224 122.169C565.597 122.169 566.804 122.408 567.846 122.885C568.888 123.362 569.699 124.013 570.279 124.837C570.86 125.656 571.15 126.582 571.15 127.617C571.156 128.689 570.803 129.572 570.092 130.266C569.387 130.961 568.479 131.388 567.369 131.549L567.369 131.698C568.854 131.872 569.974 132.349 570.729 133.13C571.49 133.911 571.867 134.887 571.861 136.058C571.861 137.161 571.533 138.141 570.878 138.996C570.229 139.845 569.325 140.514 568.164 141.004C567.01 141.487 565.684 141.729 564.187 141.729Z" fill="white"/>
</g>
</g>
<defs>
<filter id="filter0_d_2122_507" x="0.111113" y="0.866668" width="835.778" height="583.778" filterUnits="userSpaceOnUse" color-interpolation-filters="sRGB">
<feFlood flood-opacity="0" result="BackgroundImageFix"/>
<feColorMatrix in="SourceAlpha" type="matrix" values="0 0 0 0 0 0 0 0 0 0 0 0 0 0 0 0 0 0 127 0" result="hardAlpha"/>
<feOffset dy="8.75556"/>
<feGaussianBlur stdDeviation="10.9444"/>
<feComposite in2="hardAlpha" operator="out"/>
<feColorMatrix type="matrix" values="0 0 0 0 0 0 0 0 0 0 0 0 0 0 0 0 0 0 0.12 0"/>
<feBlend mode="normal" in2="BackgroundImageFix" result="effect1_dropShadow_2122_507"/>
<feBlend mode="normal" in="SourceGraphic" in2="effect1_dropShadow_2122_507" result="shape"/>
</filter>
<filter id="filter1_i_2122_507" x="22" y="59.9667" width="792" height="41.5889" filterUnits="userSpaceOnUse" color-interpolation-filters="sRGB">
<feFlood flood-opacity="0" result="BackgroundImageFix"/>
<feBlend mode="normal" in="SourceGraphic" in2="BackgroundImageFix" result="shape"/>
<feColorMatrix in="SourceAlpha" type="matrix" values="0 0 0 0 0 0 0 0 0 0 0 0 0 0 0 0 0 0 127 0" result="hardAlpha"/>
<feOffset dy="-1.09444"/>
<feComposite in2="hardAlpha" operator="arithmetic" k2="-1" k3="1"/>
<feColorMatrix type="matrix" values="0 0 0 0 0.854902 0 0 0 0 0.862745 0 0 0 0 0.878431 0 0 0 1 0"/>
<feBlend mode="normal" in2="shape" result="effect1_innerShadow_2122_507"/>
</filter>
<filter id="filter2_d_2122_507" x="17.6222" y="14" width="800.756" height="54.7222" filterUnits="userSpaceOnUse" color-interpolation-filters="sRGB">
<feFlood flood-opacity="0" result="BackgroundImageFix"/>
<feColorMatrix in="SourceAlpha" type="matrix" values="0 0 0 0 0 0 0 0 0 0 0 0 0 0 0 0 0 0 127 0" result="hardAlpha"/>
<feOffset dy="4.37778"/>
<feGaussianBlur stdDeviation="2.18889"/>
<feColorMatrix type="matrix" values="0 0 0 0 0 0 0 0 0 0 0 0 0 0 0 0 0 0 0.25 0"/>
<feBlend mode="normal" in2="BackgroundImageFix" result="effect1_dropShadow_2122_507"/>
<feBlend mode="normal" in="SourceGraphic" in2="effect1_dropShadow_2122_507" result="shape"/>
</filter>
<filter id="filter3_d_2122_507" x="517.935" y="51.337" width="171" height="110.747" filterUnits="userSpaceOnUse" color-interpolation-filters="sRGB">
<feFlood flood-opacity="0" result="BackgroundImageFix"/>
<feColorMatrix in="SourceAlpha" type="matrix" values="0 0 0 0 0 0 0 0 0 0 0 0 0 0 0 0 0 0 127 0" result="hardAlpha"/>
<feOffset dy="4.37778"/>
<feGaussianBlur stdDeviation="2.18889"/>
<feComposite in2="hardAlpha" operator="out"/>
<feColorMatrix type="matrix" values="0 0 0 0 0 0 0 0 0 0 0 0 0 0 0 0 0 0 0.25 0"/>
<feBlend mode="normal" in2="BackgroundImageFix" result="effect1_dropShadow_2122_507"/>
<feBlend mode="normal" in="SourceGraphic" in2="effect1_dropShadow_2122_507" result="shape"/>
</filter>
<clipPath id="clip0_2122_507">
<rect width="792" height="87.5556" fill="white" transform="translate(22 14)"/>
</clipPath>
<clipPath id="clip1_2122_507">
<rect width="792" height="41.5889" fill="white" transform="translate(22 59.9667)"/>
</clipPath>
<clipPath id="clip2_2122_507">
<rect width="158.694" height="24.0778" fill="white" transform="translate(639.983 69.2694)"/>
</clipPath>
<clipPath id="clip3_2122_507">
<rect width="17.5111" height="17.5111" fill="white" transform="translate(655.306 72.5528)"/>
</clipPath>
<clipPath id="clip4_2122_507">
<rect width="12.3125" height="12.3125" fill="white" transform="translate(657.905 74.6049)"/>
</clipPath>
<clipPath id="clip5_2122_507">
<rect width="471.328" height="30.6444" fill="white" transform="translate(168.656 65.9861)"/>
</clipPath>
<clipPath id="clip6_2122_507">
<rect width="119.294" height="17.5111" fill="white" transform="translate(35.1333 72.0056)"/>
</clipPath>
<clipPath id="clip7_2122_507">
<rect width="792" height="45.9667" fill="white" transform="translate(22 14)"/>
</clipPath>
<clipPath id="clip8_2122_507">
<rect width="12.3125" height="12.3125" fill="white" transform="translate(120.911 34.3549)"/>
</clipPath>
<clipPath id="clip9_2122_507">
<rect width="56.9111" height="13.1333" fill="white" transform="translate(36.2275 30.9639)"/>
</clipPath>
<clipPath id="clip10_2122_507">
<rect width="108.35" height="108.35" fill="white" transform="translate(159.711 354.919)"/>
</clipPath>
<clipPath id="clip11_2122_507">
<rect width="73.875" height="73.875" fill="white" transform="translate(176.949 372.704)"/>
</clipPath>
</defs>
</svg>
