<svg width="30" height="34" viewBox="0 0 30 34" fill="none" xmlns="http://www.w3.org/2000/svg">
<path d="M13.9286 0H22.2388C23.0893 0 23.9062 0.338672 24.5089 0.936328L29.0558 5.44531C29.6585 6.04297 30 6.85313 30 7.69648V22.3125C30 24.0723 28.5603 25.5 26.7857 25.5H13.9286C12.154 25.5 10.7143 24.0723 10.7143 22.3125V3.1875C10.7143 1.42773 12.154 0 13.9286 0ZM3.21429 8.5H8.57143V12.75H4.28571V29.75H17.1429V27.625H21.4286V30.8125C21.4286 32.5723 19.9888 34 18.2143 34H3.21429C1.43973 34 0 32.5723 0 30.8125V11.6875C0 9.92773 1.43973 8.5 3.21429 8.5Z" fill="#F6225D"/>
</svg>
